<!DOCTYPE svg PUBLIC "-//W3C//DTD SVG 20010904//EN" "http://www.w3.org/TR/2001/REC-SVG-20010904/DTD/svg10.dtd">
<svg version="1.0" xmlns="http://www.w3.org/2000/svg" width="800px" height="1200px" viewBox="0 0 8000 12000" preserveAspectRatio="xMidYMid meet">
<g id="layer101" fill="#d2b0ff" stroke="none">
 <path d="M144 11875 c4 -71 19 -229 33 -350 14 -121 29 -251 33 -290 25 -228 70 -539 66 -460 -4 67 -25 247 -45 385 -6 36 -13 97 -16 135 -4 39 -8 81 -10 95 -12 74 -43 385 -45 450 -4 125 -6 150 -15 157 -4 5 -4 -50 -1 -122z"/>
 <path d="M965 11952 c3 -29 10 -62 15 -75 6 -15 7 -7 3 28 -9 72 -24 114 -18 47z"/>
 <path d="M1130 11999 c-1 -22 172 -214 300 -334 215 -201 349 -307 570 -452 258 -170 294 -195 386 -269 208 -167 362 -363 400 -506 21 -80 6 -109 -73 -144 -52 -23 -63 -36 -42 -49 6 -4 8 -13 5 -21 -3 -7 -1 -16 4 -19 5 -3 12 -26 16 -50 3 -25 10 -45 14 -45 5 0 6 -9 3 -20 -3 -11 0 -20 6 -20 6 0 11 -11 11 -25 0 -14 4 -25 10 -25 5 0 7 -6 4 -14 -3 -8 0 -17 5 -21 6 -3 9 -11 5 -16 -3 -5 0 -16 6 -24 6 -8 9 -19 6 -24 -4 -5 -2 -12 4 -16 5 -3 10 -17 10 -31 0 -13 4 -24 9 -24 5 0 7 -9 4 -20 -3 -11 -1 -20 5 -20 6 0 8 -8 5 -19 -3 -10 0 -22 6 -25 5 -4 8 -13 5 -20 -3 -8 -1 -17 5 -20 6 -4 8 -13 5 -20 -3 -8 0 -17 6 -21 6 -4 8 -15 5 -26 -4 -11 -2 -19 4 -19 6 0 11 -11 11 -25 0 -14 3 -25 8 -25 4 0 7 -13 8 -29 1 -16 5 -37 9 -47 4 -11 7 -27 6 -36 -1 -10 3 -18 9 -18 7 0 9 -8 5 -19 -3 -11 -1 -22 4 -25 5 -4 13 -27 17 -51 3 -25 10 -45 14 -45 5 0 6 -9 3 -20 -3 -11 -1 -20 5 -20 6 0 8 -8 5 -19 -3 -10 0 -22 6 -25 5 -4 8 -13 5 -20 -3 -8 -1 -17 5 -20 6 -4 8 -13 5 -20 -3 -8 0 -17 6 -21 6 -4 8 -15 5 -26 -4 -10 -2 -19 4 -19 5 0 10 -8 10 -17 1 -42 7 -64 20 -72 9 -6 10 -10 2 -16 -8 -4 -9 -11 -3 -18 9 -11 12 -27 13 -69 0 -10 4 -20 9 -23 5 -3 7 -12 4 -19 -3 -8 0 -17 6 -21 6 -4 8 -15 5 -25 -3 -10 -2 -21 4 -24 5 -3 7 -15 4 -26 -3 -12 0 -20 7 -20 7 0 9 -8 5 -19 -3 -11 -2 -22 4 -25 5 -3 7 -15 4 -26 -3 -11 -1 -20 5 -20 6 0 8 -8 5 -19 -3 -10 0 -22 5 -25 6 -3 8 -15 5 -26 -3 -11 -1 -20 5 -20 6 0 8 -9 5 -20 -3 -12 0 -20 7 -20 10 0 9 -4 -1 -16 -10 -12 -10 -17 -1 -23 7 -4 10 -15 7 -23 -4 -9 -2 -19 3 -22 6 -3 8 -15 5 -26 -3 -11 -1 -20 3 -20 5 0 10 -10 10 -22 6 -91 10 -111 20 -115 8 -3 -2 -19 -25 -42 -20 -20 -42 -55 -49 -77 -24 -80 -18 -118 67 -429 61 -224 61 -225 50 -243 -8 -13 -5 -50 15 -153 14 -75 26 -146 26 -157 0 -12 9 -31 20 -42 22 -22 30 -60 65 -335 14 -104 33 -248 44 -320 11 -71 34 -224 51 -340 46 -315 85 -455 170 -612 38 -71 39 -74 25 -108 -8 -19 -15 -46 -15 -59 0 -15 -13 -38 -33 -58 -39 -39 -88 -107 -143 -198 -21 -35 -54 -78 -73 -94 -30 -27 -33 -34 -28 -70 5 -34 1 -47 -34 -94 -42 -59 -47 -83 -24 -122 21 -37 18 -50 -10 -50 -25 0 -31 2 -93 33 -19 9 -49 17 -68 17 -18 0 -61 14 -95 31 -51 26 -64 38 -80 76 -10 25 -19 51 -19 59 0 8 -11 19 -25 24 -14 5 -30 22 -35 37 -6 16 -15 35 -20 43 -6 8 -13 22 -17 30 -3 8 -17 30 -30 48 -18 23 -21 33 -11 36 124 37 160 51 138 54 -14 1 -51 -6 -84 -17 -60 -21 -72 -20 -95 12 -7 10 -24 22 -37 27 -14 6 -26 21 -30 37 -4 15 -22 51 -39 78 -18 28 -40 82 -50 120 -9 39 -22 76 -28 83 -16 20 -47 35 -47 22 0 -5 7 -10 15 -10 21 0 41 -80 23 -91 -11 -7 -10 -9 1 -9 8 0 12 -3 8 -6 -7 -8 50 -134 67 -148 8 -6 17 -24 21 -41 7 -33 32 -65 49 -65 6 0 17 -9 24 -20 7 -12 17 -18 21 -15 5 2 12 -6 15 -20 4 -14 19 -47 35 -73 16 -26 31 -59 34 -73 4 -14 23 -37 44 -52 23 -16 31 -27 21 -27 -16 0 -198 87 -208 99 -3 4 -30 24 -60 46 -30 22 -57 42 -60 45 -22 23 -50 41 -50 32 0 -23 200 -159 305 -208 58 -27 105 -54 105 -60 0 -14 63 -74 78 -74 6 0 26 -9 44 -20 18 -11 48 -20 66 -20 18 0 55 -12 83 -26 31 -15 63 -24 82 -22 22 2 37 -3 48 -16 27 -32 29 -4 4 49 -30 64 -31 84 -1 116 37 40 68 109 51 115 -20 8 -7 38 36 79 25 23 38 43 34 53 -5 13 93 146 122 165 7 4 13 13 13 20 0 7 9 23 19 36 l19 25 11 -40 c18 -65 14 -90 -20 -118 -21 -18 -42 -26 -69 -26 -41 0 -75 -24 -63 -43 5 -8 9 -6 11 6 2 11 13 17 30 17 15 0 36 3 47 6 16 4 21 0 22 -18 1 -12 7 -24 13 -26 5 -2 10 -15 10 -28 0 -13 5 -24 11 -24 6 0 8 7 5 16 -3 9 -9 32 -12 52 -5 33 -2 40 26 60 29 22 31 28 27 65 -18 138 -19 158 -7 187 l12 29 47 -49 c48 -51 91 -66 91 -34 0 13 -3 14 -13 5 -16 -13 -28 -5 -20 14 2 8 12 11 21 7 14 -5 15 -4 2 10 -13 13 -16 13 -33 -6 -18 -21 -18 -21 -6 4 11 23 11 24 -5 11 -15 -12 -16 -12 -9 5 6 17 5 18 -13 4 -15 -11 -16 -11 -6 0 6 8 12 18 12 23 0 5 -6 5 -12 -1 -9 -7 -17 -6 -25 3 -8 9 -9 16 -3 20 6 4 10 12 9 18 -3 20 12 45 57 94 38 42 55 73 39 73 -2 0 -19 -15 -37 -34 -86 -89 -89 -93 -82 -120 13 -52 -12 -23 -54 62 -75 153 -104 251 -147 497 -3 17 -9 66 -15 110 -5 44 -16 127 -25 185 -22 153 -42 302 -55 405 -20 158 -50 363 -56 379 -3 9 -1 16 5 16 6 0 11 4 11 10 0 5 -7 7 -16 3 -12 -4 -15 -2 -12 8 3 8 13 13 23 11 12 -2 16 1 12 11 -3 7 -11 49 -18 91 -11 66 -17 79 -36 87 -29 11 -30 23 -2 14 19 -6 21 -4 16 16 -3 13 -9 43 -13 67 -4 23 -14 48 -24 55 -9 7 -19 23 -22 37 -5 24 -21 81 -54 195 -34 121 -74 283 -78 322 -5 55 10 123 35 149 10 11 46 33 79 49 41 19 60 34 60 47 0 10 -3 18 -7 18 -5 0 -9 10 -9 23 -2 30 -11 101 -14 107 -1 3 -3 10 -5 15 -1 6 -3 12 -4 15 -2 3 -4 23 -5 45 -1 22 -5 46 -10 53 -4 6 -5 16 -1 21 3 5 1 13 -5 16 -6 4 -8 15 -5 26 4 11 2 19 -5 19 -7 0 -9 7 -6 16 4 9 2 22 -4 29 -6 7 -12 29 -13 49 -2 19 -5 38 -9 41 -4 4 -4 13 -1 21 3 8 0 20 -6 28 -6 7 -8 16 -5 19 3 3 3 11 -2 18 -4 7 -8 27 -10 46 -2 18 -7 39 -11 46 -4 6 -6 20 -5 30 2 9 0 17 -5 17 -4 0 -9 16 -10 36 -1 20 -6 41 -12 47 -5 5 -7 15 -5 22 3 7 1 16 -4 19 -6 3 -8 15 -5 26 3 12 0 20 -7 20 -7 0 -9 8 -5 19 3 11 2 22 -4 25 -5 3 -7 15 -4 26 3 11 1 20 -5 20 -5 0 -9 6 -9 13 1 6 -4 30 -11 53 l-12 41 -45 -7 c-25 -4 -48 -3 -51 2 -10 16 6 22 52 19 35 -2 45 1 42 11 -4 9 -22 12 -61 10 -47 -2 -57 1 -57 14 0 13 10 15 55 12 30 -1 55 -1 55 2 -1 17 -21 25 -62 25 -27 0 -47 4 -45 10 1 6 23 8 50 7 39 -3 46 -1 41 11 -4 12 -19 15 -56 14 -35 -1 -53 2 -56 11 -3 11 8 12 52 9 31 -3 56 -3 56 0 0 17 -29 28 -71 25 -39 -3 -49 -1 -49 11 0 13 10 15 58 10 51 -6 56 -5 44 10 -11 12 -25 15 -63 10 -40 -5 -49 -3 -49 10 0 12 11 15 50 13 46 -2 50 -1 44 18 -3 12 -8 28 -10 37 -3 13 -15 15 -60 11 -45 -4 -56 -2 -52 9 3 10 20 14 57 13 35 -1 51 2 48 10 -2 6 -26 11 -57 11 -34 0 -55 5 -57 13 -4 9 9 11 51 8 l56 -4 -6 27 c-10 39 -19 45 -74 42 -38 -2 -49 1 -45 11 4 9 19 12 50 10 44 -4 45 -4 45 27 0 17 -4 31 -8 31 -5 0 -17 37 -26 83 -10 45 -22 87 -28 94 -6 7 -28 9 -65 6 -45 -5 -55 -3 -51 8 3 10 21 14 56 14 41 0 51 3 47 15 -2 8 -9 35 -15 59 -11 41 -13 43 -42 37 -17 -3 -35 -6 -40 -6 -5 0 -6 -4 -3 -10 3 -5 23 -10 43 -10 43 0 32 -17 -13 -20 -52 -3 -58 -1 -52 20 3 11 1 20 -4 20 -5 0 -9 6 -9 14 0 11 13 14 56 11 38 -2 52 1 46 7 -6 6 -8 16 -6 23 3 7 1 16 -5 20 -7 4 -5 14 6 31 24 37 9 184 -26 253 -86 167 -333 409 -581 569 -282 181 -406 271 -593 431 -118 101 -305 284 -361 354 -22 27 -47 47 -58 47 -11 0 -28 10 -39 23 -10 12 -18 19 -19 16z m1663 -1740 c-12 -11 -78 -15 -81 -4 -3 11 55 23 76 17 7 -3 10 -8 5 -13z m37 -129 c0 -5 -13 -11 -30 -12 -16 -1 -37 -2 -47 -2 -9 -1 -18 5 -20 12 -3 8 10 12 46 12 28 0 51 -4 51 -10z m3 -80 c45 0 21 -17 -30 -22 -27 -2 -43 1 -43 8 0 16 12 25 28 19 7 -3 28 -5 45 -5z m37 -50 c0 -5 -8 -10 -19 -10 -10 0 -33 -3 -50 -6 -24 -5 -31 -3 -31 10 0 13 11 16 50 16 28 0 50 -4 50 -10z m10 -39 c3 -1 -2 -6 -10 -11 -29 -19 -105 -8 -85 12 4 3 78 3 95 -1z m10 -52 c0 -5 -23 -9 -51 -9 -41 0 -49 3 -41 13 12 14 92 11 92 -4z m14 -36 c13 -9 -22 -21 -61 -22 -22 -1 -33 4 -33 13 0 14 74 21 94 9z m-7 -85 c18 2 33 -2 33 -7 0 -11 -82 -21 -94 -10 -12 10 3 31 17 22 6 -4 26 -6 44 -5z m63 -139 c0 -5 -22 -9 -50 -9 -44 0 -60 7 -46 21 8 8 96 -3 96 -12z m80 -308 c0 -12 -26 -21 -61 -21 -19 0 -29 5 -29 15 0 11 12 15 45 15 25 0 45 -4 45 -9z m-14 -41 c13 0 24 -4 24 -10 0 -5 -20 -10 -45 -10 -42 0 -54 7 -38 24 4 3 13 4 21 1 7 -3 25 -5 38 -5z m34 -50 c0 -11 -73 -19 -84 -10 -4 5 -6 12 -3 17 7 11 87 4 87 -7z m10 -40 c3 -1 -4 -5 -15 -10 -31 -13 -62 -12 -68 4 -4 10 5 12 36 11 23 -2 44 -4 47 -5z m-14 -40 c13 0 24 -4 24 -10 0 -12 -77 -13 -84 -1 -8 12 6 22 22 16 7 -3 25 -5 38 -5z m34 -51 c0 -5 -18 -9 -40 -9 -26 0 -40 5 -40 13 0 9 12 11 40 9 22 -2 40 -8 40 -13z m-5 -39 c18 -1 17 -2 -4 -11 -27 -11 -61 -3 -61 13 0 6 10 8 23 4 12 -3 31 -6 42 -6z m3 -40 c19 0 23 -3 15 -11 -14 -14 -65 -7 -71 10 -3 10 0 12 12 8 10 -4 29 -7 44 -7z m32 -51 c0 -5 -18 -9 -40 -9 -26 0 -40 5 -40 13 0 9 12 11 40 9 22 -2 40 -8 40 -13z m9 -38 c12 -8 9 -11 -11 -16 -34 -9 -60 -3 -66 13 -4 14 55 17 77 3z m-6 -41 c9 0 17 -4 17 -10 0 -17 -67 -12 -74 6 -5 13 -2 15 16 10 13 -3 31 -6 41 -6z m27 -51 c0 -5 -18 -9 -40 -9 -36 0 -49 8 -35 21 8 8 75 -3 75 -12z m-7 -39 c9 0 17 -5 17 -11 0 -15 -73 -6 -78 10 -4 10 1 12 19 8 13 -4 32 -7 42 -7z m4 -43 c6 2 14 -1 18 -6 4 -7 -9 -11 -34 -11 -30 0 -41 4 -41 15 0 11 6 12 23 6 12 -4 27 -6 34 -4z m11 -47 c19 0 23 -3 15 -11 -14 -14 -65 -7 -71 10 -3 10 0 12 12 8 10 -4 29 -7 44 -7z m32 -51 c0 -5 -18 -9 -40 -9 -26 0 -40 5 -40 13 0 9 12 11 40 9 22 -2 40 -8 40 -13z m-7 -39 c9 0 17 -4 17 -10 0 -5 -18 -10 -40 -10 -30 0 -40 4 -40 16 0 12 6 15 23 10 12 -3 30 -6 40 -6z m27 -50 c0 -5 -18 -10 -40 -10 -22 0 -40 5 -40 10 0 6 18 10 40 10 22 0 40 -4 40 -10z m6 -41 c3 -5 -15 -9 -40 -9 -25 0 -46 4 -46 9 0 12 78 12 86 0z m-6 -39 c20 0 22 -2 10 -10 -26 -16 -80 -12 -80 6 0 12 6 15 23 10 12 -3 33 -6 47 -6z m26 -51 c3 -5 -17 -9 -45 -9 -37 0 -49 3 -45 13 5 14 80 11 90 -4z m-23 -33 c8 3 18 1 21 -4 8 -14 -63 -20 -74 -7 -14 17 -1 26 21 15 9 -6 24 -7 32 -4z m13 -46 c14 0 22 -4 19 -10 -7 -12 -85 -14 -85 -2 0 15 13 23 28 17 7 -3 25 -5 38 -5z m24 -51 c0 -5 -18 -9 -40 -9 -26 0 -40 5 -40 13 0 9 12 11 40 9 22 -2 40 -8 40 -13z m10 -39 c0 -8 -35 -20 -62 -20 -10 0 -15 5 -13 13 6 13 75 21 75 7z m10 -871 c0 -16 -4 -29 -10 -29 -5 0 -10 11 -10 25 0 14 -6 25 -12 25 -9 0 -8 3 2 9 20 14 30 4 30 -30z m18 -135 c2 -16 -1 -23 -8 -19 -6 3 -8 10 -5 15 3 5 1 11 -5 15 -6 4 -8 11 -4 16 8 14 17 3 22 -27z m9 -85 c-5 -4 -6 -12 -2 -19 5 -8 4 -11 -2 -7 -6 4 -9 21 -7 39 4 45 5 47 13 18 4 -14 3 -28 -2 -31z"/>
 <path d="M5915 11988 c-16 -46 -59 -186 -60 -198 -3 -27 -28 -105 -37 -114 -12 -15 -10 62 3 86 14 26 4 35 -16 14 -14 -14 -15 -25 -6 -85 24 -153 7 -288 -39 -321 -12 -8 -33 -25 -47 -37 l-25 -22 22 -28 c15 -19 19 -35 15 -53 -7 -28 -49 -138 -72 -188 -13 -28 -14 -37 -3 -60 17 -35 15 -98 -4 -142 -8 -19 -38 -64 -66 -98 -39 -49 -53 -76 -59 -112 -4 -26 -17 -61 -29 -78 -12 -16 -22 -37 -22 -46 0 -8 -5 -27 -12 -41 -9 -20 -8 -40 7 -99 22 -88 12 -140 -33 -178 -22 -18 -26 -28 -21 -48 4 -14 7 -53 8 -88 1 -55 -2 -64 -20 -70 -19 -7 -16 -12 33 -50 30 -23 62 -57 72 -75 38 -75 79 -186 87 -240 5 -32 17 -91 27 -130 22 -86 14 -144 -21 -149 -45 -6 -71 -191 -42 -292 9 -30 17 -86 18 -124 2 -74 15 -82 26 -16 6 36 7 37 24 20 21 -22 21 -18 0 25 -13 25 -19 66 -21 149 -3 64 -9 118 -15 121 -5 4 3 14 19 23 27 14 27 15 7 16 -30 0 -29 9 9 61 23 32 32 54 30 79 -4 72 -9 118 -16 129 -4 6 -4 11 0 11 3 0 2 6 -4 13 -6 6 -13 40 -17 74 -3 35 -12 75 -20 90 -8 16 -15 36 -15 45 0 9 -4 20 -10 23 -5 3 -10 17 -10 31 0 13 -15 45 -34 71 l-34 48 33 70 c18 39 31 75 30 80 -8 39 -18 65 -25 65 -4 0 -4 -17 1 -37 7 -33 4 -47 -23 -100 -21 -41 -38 -63 -49 -63 -14 0 -16 6 -12 33 3 17 6 66 7 108 1 42 6 82 12 90 22 28 44 83 44 109 0 15 -7 47 -15 71 -19 54 -13 104 23 174 14 28 30 70 37 96 13 49 95 164 123 174 42 13 89 184 77 281 -3 32 -8 84 -9 114 -2 30 -6 71 -11 91 -6 32 -5 37 16 44 13 4 28 7 32 6 5 -1 6 3 3 8 -3 5 1 15 10 22 26 22 36 59 39 159 5 120 11 164 30 204 12 26 27 73 49 156 3 8 5 15 6 15 2 0 5 12 15 63 5 21 4 32 -4 32 -6 0 -14 -6 -16 -12z m-189 -950 c-8 -87 -9 -88 -16 -88 -9 0 -30 46 -30 65 0 21 32 85 43 85 6 0 7 -26 3 -62z"/>
 <path d="M7019 11993 c-3 -15 -10 -199 -11 -286 -1 -68 3 -91 16 -105 9 -10 16 -36 17 -58 0 -21 5 -48 10 -59 7 -15 8 -10 4 20 -2 22 -5 50 -5 62 0 12 -7 29 -16 37 -18 19 -20 95 -7 284 4 61 5 112 1 112 -5 0 -9 -3 -9 -7z"/>
 <path d="M984 11830 c2 -14 10 -61 16 -105 7 -44 13 -84 15 -90 1 -5 5 -28 9 -50 17 -89 47 -235 66 -320 12 -49 23 -99 25 -110 2 -11 9 -38 15 -60 5 -22 12 -67 15 -100 9 -119 15 -159 25 -169 6 -6 10 -25 10 -43 0 -18 5 -33 10 -33 6 0 10 -8 10 -18 0 -10 4 -22 10 -28 5 -5 10 -29 12 -54 2 -25 5 -47 8 -50 9 -9 42 -122 37 -127 -3 -2 2 -21 10 -41 9 -20 18 -53 20 -72 3 -19 11 -59 19 -89 7 -30 11 -64 8 -77 -4 -13 -2 -24 3 -24 5 0 15 -35 23 -77 18 -105 19 -116 7 -132 -8 -10 -7 -16 6 -26 9 -6 14 -15 10 -18 -3 -4 -1 -12 5 -19 6 -8 9 -53 7 -108 -2 -52 1 -99 5 -105 10 -13 22 -135 26 -267 2 -58 6 -125 10 -147 6 -37 5 -41 -12 -36 -12 4 -11 1 4 -6 13 -7 21 -19 18 -28 -2 -9 -7 -26 -11 -38 -4 -15 -2 -23 6 -23 8 0 10 -19 7 -64 -3 -36 -1 -69 4 -74 6 -6 12 -103 14 -219 5 -259 5 -261 48 -418 13 -49 27 -110 31 -135 7 -53 13 -83 15 -90 1 -3 2 -9 1 -14 -1 -4 3 -22 8 -40 12 -36 27 -199 38 -401 9 -168 8 -197 -1 -390 -7 -122 -5 -168 9 -245 17 -100 39 -185 60 -235 42 -100 49 -116 56 -121 8 -4 -17 92 -28 110 -10 16 -44 151 -63 255 -22 115 -26 217 -10 271 15 49 19 168 10 280 -5 52 -11 154 -15 225 -3 72 -10 155 -15 185 -5 30 -12 75 -15 99 -8 55 -36 180 -68 301 -22 84 -26 124 -32 335 -4 132 -6 247 -6 255 0 15 -18 231 -24 285 -2 17 -6 73 -10 125 -4 52 -8 109 -10 125 -5 47 -15 182 -20 268 -4 83 -19 201 -36 282 -16 75 -61 268 -67 285 -3 8 -6 22 -8 30 -5 31 -37 166 -42 180 -3 8 -7 24 -9 35 -6 31 -40 137 -57 177 -9 20 -18 78 -20 130 -3 51 -12 120 -21 153 -15 55 -39 156 -51 215 -3 13 -13 60 -24 105 -10 44 -25 123 -34 175 -9 52 -21 113 -26 135 -5 22 -10 54 -10 71 0 16 -7 39 -16 50 -15 18 -15 18 -10 -6z"/>
 <path d="M6935 11824 c-16 -7 -60 -23 -97 -34 -37 -11 -70 -26 -74 -32 -5 -8 -1 -9 12 -4 10 5 40 14 66 21 57 16 127 47 128 58 0 4 -1 7 -2 6 -2 0 -16 -7 -33 -15z"/>
 <path d="M4615 11795 c-25 -12 -26 -14 -5 -9 28 7 60 23 45 23 -5 0 -23 -6 -40 -14z"/>
 <path d="M6725 11753 c-11 -3 -26 -10 -33 -16 -7 -6 -30 -13 -50 -16 -25 -4 -38 -12 -40 -24 -4 -17 -2 -17 27 -3 17 9 32 16 33 16 11 -2 88 35 88 42 0 4 -1 7 -2 7 -2 -1 -12 -4 -23 -6z"/>
 <path d="M6910 11724 c0 -14 3 -14 15 -4 8 7 15 14 15 16 0 2 -7 4 -15 4 -8 0 -15 -7 -15 -16z"/>
 <path d="M6548 11668 c-9 -5 -4 -8 15 -8 15 0 27 4 27 8 0 11 -25 11 -42 0z"/>
 <path d="M6630 11640 c-12 -8 -11 -10 8 -10 12 0 22 5 22 10 0 13 -11 13 -30 0z"/>
 <path d="M6703 11553 c-13 -2 -23 -8 -23 -12 0 -5 11 -6 25 -3 14 2 25 8 25 13 0 5 -1 8 -2 8 -2 -1 -13 -4 -25 -6z"/>
 <path d="M6968 11539 c-20 -21 -22 -29 -9 -29 5 0 16 11 25 25 19 29 9 32 -16 4z"/>
 <path d="M5150 11506 c0 -2 44 -21 98 -41 53 -20 117 -46 142 -57 66 -30 92 -40 127 -48 30 -7 32 -6 22 12 -16 29 4 39 73 36 69 -4 61 11 -12 23 -60 9 -80 4 -80 -21 0 -11 -4 -21 -8 -24 -9 -5 -81 21 -228 85 -79 34 -134 48 -134 35z"/>
 <path d="M6904 11495 c-10 -8 -14 -14 -9 -15 15 0 40 18 34 24 -3 3 -14 -1 -25 -9z"/>
 <path d="M7063 11369 c0 -99 -6 -143 -29 -198 -8 -18 -14 -51 -14 -72 0 -21 -4 -49 -9 -62 -10 -25 -3 -187 8 -187 3 0 7 60 7 133 1 107 6 144 24 197 24 71 37 221 23 259 -7 17 -9 -3 -10 -70z"/>
 <path d="M4923 11435 c0 -8 4 -15 8 -15 4 0 9 7 13 15 3 9 0 15 -8 15 -7 0 -13 -7 -13 -15z"/>
 <path d="M6590 11440 c-11 -8 -5 -10 23 -8 20 1 37 6 37 10 0 11 -42 10 -60 -2z"/>
 <path d="M6780 11439 c-24 -10 -82 -23 -143 -33 -26 -4 -57 -27 -57 -41 0 -9 44 6 51 17 3 5 10 8 15 7 5 -1 16 0 24 3 8 3 45 14 83 23 37 10 70 21 73 26 7 12 -14 10 -46 -2z"/>
 <path d="M5140 11389 c0 -12 61 -28 128 -31 78 -5 82 9 5 16 -32 4 -75 10 -95 15 -21 4 -38 5 -38 0z"/>
 <path d="M5624 11368 c4 -12 -2 -18 -22 -20 l-27 -3 32 -18 c18 -9 37 -17 43 -17 17 0 11 26 -11 51 -14 16 -19 19 -15 7z"/>
 <path d="M5351 11349 c7 -14 14 -18 21 -11 13 13 2 32 -18 32 -12 0 -13 -4 -3 -21z"/>
 <path d="M7000 11353 c-8 -3 -18 -10 -21 -14 -5 -8 -53 -19 -89 -20 -8 0 -22 -3 -30 -6 -22 -9 -28 -10 -50 -12 -11 0 -20 -6 -20 -12 0 -19 173 18 218 47 32 21 28 31 -8 17z"/>
 <path d="M6509 11300 c-27 -27 -55 -50 -60 -50 -6 0 -7 -4 -4 -10 6 -9 13 -6 50 28 7 6 17 12 21 12 7 0 28 24 45 53 17 30 0 19 -52 -33z"/>
 <path d="M6703 11296 c-4 -8 -26 -16 -47 -18 -22 -2 -42 -10 -44 -17 -4 -11 1 -12 19 -7 13 4 36 7 51 7 24 -1 68 28 68 44 0 12 -40 4 -47 -9z"/>
 <path d="M6415 11218 c-26 -15 -49 -38 -38 -38 20 0 63 26 63 38 0 14 0 14 -25 0z"/>
 <path d="M6939 11174 c-41 -43 -87 -68 -183 -99 -39 -12 -83 -28 -98 -35 -30 -14 -39 -36 -10 -25 9 3 53 18 97 32 108 35 167 66 200 105 15 18 37 38 49 45 21 12 21 12 0 13 -11 0 -36 -16 -55 -36z"/>
 <path d="M6671 11170 c-90 -4 -136 -10 -139 -18 -2 -7 -12 -12 -21 -12 -10 0 -38 -16 -62 -35 -24 -19 -49 -35 -55 -35 -6 0 -27 -14 -45 -30 -19 -17 -67 -46 -108 -65 -40 -20 -71 -39 -67 -42 3 -4 16 -1 29 5 12 6 43 18 68 27 25 9 59 28 75 42 16 14 44 32 62 39 17 8 32 19 32 25 0 5 4 8 9 4 6 -3 13 1 18 9 4 7 26 24 48 37 33 19 56 23 130 25 117 1 202 13 184 25 -8 5 -16 8 -19 7 -3 -1 -65 -4 -139 -8z"/>
 <path d="M6235 11059 c-4 -6 -4 -13 -1 -16 8 -8 36 5 36 17 0 13 -27 13 -35 -1z"/>
 <path d="M6556 11018 c3 -4 19 -8 36 -8 17 0 28 3 25 7 -10 9 -67 11 -61 1z"/>
 <path d="M6693 10987 c-38 -9 -60 -27 -32 -27 22 0 100 23 105 31 6 11 -18 10 -73 -4z"/>
 <path d="M5780 10945 c0 -14 2 -25 4 -25 2 0 6 11 8 25 3 14 1 25 -3 25 -5 0 -9 -11 -9 -25z"/>
 <path d="M6905 10930 c-11 -5 -39 -14 -62 -20 -26 -7 -43 -17 -43 -25 0 -19 15 -19 45 1 13 8 29 14 37 13 15 -4 58 22 58 33 0 10 -9 9 -35 -2z"/>
 <path d="M6440 10880 c0 -13 40 -13 60 0 11 7 5 10 -22 10 -21 0 -38 -4 -38 -10z"/>
 <path d="M6699 10876 c-4 -4 -40 -11 -110 -22 -19 -4 -41 -15 -47 -25 -15 -24 0 -25 42 -4 16 8 45 18 66 21 41 7 68 20 59 28 -3 4 -8 4 -10 2z"/>
 <path d="M5728 10865 c-11 -18 -14 -205 -3 -205 6 0 11 37 13 86 4 96 0 134 -10 119z"/>
 <path d="M6723 10853 c-12 -2 -27 -12 -35 -21 -11 -13 -11 -14 2 -6 8 5 26 9 39 9 13 0 26 6 28 13 3 6 1 11 -4 11 -4 -1 -18 -4 -30 -6z"/>
 <path d="M6485 10842 c-52 -5 -76 -12 -70 -22 7 -11 55 -10 55 1 0 4 8 5 19 2 10 -3 22 0 26 7 9 15 6 16 -30 12z"/>
 <path d="M7020 10685 c0 -82 2 -146 6 -143 6 7 6 279 -1 286 -3 3 -5 -61 -5 -143z"/>
 <path d="M6860 10798 c0 -19 2 -20 10 -8 13 19 13 30 0 30 -5 0 -10 -10 -10 -22z"/>
 <path d="M4250 10763 c-8 -3 -23 -14 -34 -25 -11 -10 -24 -18 -30 -18 -5 0 -6 -3 -3 -6 3 -4 -5 -16 -19 -26 -14 -11 -23 -23 -20 -25 3 -3 18 6 33 20 55 51 76 67 90 67 7 0 13 5 13 10 0 11 -7 12 -30 3z"/>
 <path d="M5385 10728 c-69 -36 -172 -62 -297 -73 -43 -4 -78 -10 -78 -14 0 -17 228 4 267 24 16 8 34 15 42 15 19 0 121 52 121 62 0 12 -11 9 -55 -14z"/>
 <path d="M275 10685 c3 -11 10 -54 15 -95 5 -41 14 -88 20 -105 9 -26 9 -24 4 15 -3 25 -9 72 -13 105 -4 33 -13 69 -20 80 l-13 20 7 -20z"/>
 <path d="M4095 10627 c-11 -11 -38 -31 -60 -46 -203 -133 -343 -301 -489 -586 -78 -152 -102 -213 -121 -302 -12 -54 -11 -160 1 -172 11 -11 17 13 15 61 -2 61 14 148 36 198 8 19 24 55 35 80 11 25 23 54 28 65 18 46 83 171 96 186 8 8 14 18 14 22 0 13 77 125 125 182 53 63 177 190 185 190 15 0 167 131 160 138 -3 2 -14 -5 -25 -16z"/>
 <path d="M5716 10633 c-11 -11 -6 -23 9 -23 8 0 15 4 15 9 0 13 -16 22 -24 14z"/>
 <path d="M5722 10540 c3 -28 1 -53 -4 -56 -9 -6 -1 -24 11 -24 4 0 8 29 8 65 -1 36 -5 65 -10 65 -5 0 -7 -22 -5 -50z"/>
 <path d="M7012 10478 c-6 -18 -13 -58 -17 -88 -8 -65 -9 -71 -29 -175 -22 -118 -37 -225 -32 -234 3 -3 7 -36 11 -71 12 -131 17 -165 26 -168 5 -2 6 -8 3 -14 -7 -11 -6 -141 1 -176 1 -9 6 -55 9 -102 4 -47 11 -116 16 -155 12 -88 16 -145 30 -370 10 -167 16 -223 41 -380 6 -33 13 -97 17 -142 4 -45 11 -85 15 -89 8 -8 1 89 -13 181 -25 158 -39 291 -45 405 -3 69 -17 240 -31 380 -26 267 -33 399 -21 439 4 15 -1 39 -12 65 -12 26 -21 79 -26 144 -6 88 -2 129 25 300 17 108 35 215 40 237 11 49 6 58 -8 13z"/>
 <path d="M311 10427 c0 -15 -7 -40 -15 -55 -31 -61 -30 -88 7 -129 23 -26 36 -51 39 -78 4 -35 1 -43 -29 -71 -23 -22 -33 -40 -32 -60 0 -26 2 -25 13 11 8 27 20 44 40 54 27 13 28 15 21 69 -5 42 -13 60 -31 75 -43 33 -47 52 -24 106 12 27 20 61 17 77 l-4 29 -2 -28z"/>
 <path d="M5730 10227 c0 -8 7 -20 15 -27 12 -10 15 -10 15 3 0 8 -7 20 -15 27 -12 10 -15 10 -15 -3z"/>
 <path d="M5690 10164 c0 -7 8 -10 18 -7 12 3 18 -2 19 -17 1 -11 -2 -18 -7 -15 -5 3 -11 1 -14 -4 -3 -5 2 -11 12 -13 11 -3 23 -23 31 -49 8 -24 20 -59 29 -78 8 -19 16 -46 17 -60 1 -14 10 -43 19 -65 9 -21 16 -58 16 -81 0 -27 5 -45 13 -48 11 -4 13 5 10 36 -5 58 -32 176 -48 214 -8 18 -22 60 -30 95 -9 35 -22 69 -28 77 -9 12 -9 13 1 7 7 -4 12 -2 12 6 0 8 -13 13 -35 13 -21 0 -35 -4 -35 -11z"/>
 <path d="M990 10160 c-21 -7 -21 -8 -5 -9 11 0 27 4 35 9 18 11 5 11 -30 0z"/>
 <path d="M5640 10084 c0 -8 32 -33 43 -34 4 0 7 5 7 10 0 6 -7 10 -15 10 -8 0 -15 5 -15 10 0 6 -4 10 -10 10 -5 0 -10 -3 -10 -6z"/>
 <path d="M279 9996 c-2 -2 -3 -80 -3 -173 2 -191 9 -226 96 -441 45 -112 50 -131 50 -205 l1 -82 9 70 c9 69 8 74 -32 180 -23 61 -58 155 -77 210 -37 105 -36 93 -31 335 1 36 -4 110 -7 110 -1 0 -4 -2 -6 -4z"/>
 <path d="M3360 9905 c0 -8 5 -15 10 -15 6 0 10 7 10 15 0 8 -4 15 -10 15 -5 0 -10 -7 -10 -15z"/>
 <path d="M5680 9853 c8 -3 18 -11 22 -17 4 -6 10 -7 15 -3 9 10 -16 27 -37 26 -13 -1 -13 -1 0 -6z"/>
 <path d="M506 9838 c3 -4 17 -8 31 -8 15 0 23 3 20 7 -10 9 -56 10 -51 1z"/>
 <path d="M5491 9795 c-1 -6 -15 -19 -31 -29 -67 -39 -80 -104 -36 -179 15 -25 33 -51 41 -57 8 -6 31 -40 51 -76 21 -35 40 -62 42 -59 6 5 -21 65 -29 65 -4 0 -9 10 -13 23 -3 13 -20 39 -38 58 -49 51 -62 81 -55 131 4 34 14 50 43 74 21 18 34 37 31 45 -3 8 -6 9 -6 4z"/>
 <path d="M5685 9751 c-3 -6 3 -15 14 -20 16 -9 18 -8 14 9 -6 21 -18 26 -28 11z"/>
 <path d="M4302 9717 c-44 -46 -40 -55 8 -17 37 30 50 50 32 50 -4 0 -22 -15 -40 -33z"/>
 <path d="M5846 9673 c7 -52 14 -54 14 -5 0 23 -4 42 -9 42 -5 0 -7 -17 -5 -37z"/>
 <path d="M1060 9660 c-125 -5 -131 -6 -77 -14 83 -12 244 0 216 17 -2 1 -65 0 -139 -3z"/>
 <path d="M3180 9625 c-7 -16 -14 -48 -16 -70 -4 -36 -3 -34 16 20 21 63 21 102 0 50z"/>
 <path d="M4931 9623 c-12 -14 -19 -29 -16 -32 4 -3 9 -1 13 5 4 6 16 14 28 18 16 5 23 0 32 -19 7 -15 16 -24 21 -20 5 3 12 -3 16 -14 3 -10 14 -21 24 -24 14 -3 7 11 -26 54 -24 33 -51 59 -58 59 -7 0 -23 -12 -34 -27z"/>
 <path d="M5850 9586 c0 -2 7 -23 16 -47 9 -24 16 -52 16 -61 0 -10 3 -18 7 -18 10 0 3 75 -10 108 -7 18 -29 32 -29 18z"/>
 <path d="M4876 9561 c-3 -4 -22 -11 -42 -14 -41 -7 -74 -32 -74 -57 0 -20 89 -121 121 -137 13 -7 45 -21 71 -32 40 -18 52 -30 83 -88 20 -38 44 -92 55 -122 19 -58 83 -140 94 -122 4 5 -9 27 -29 48 -19 20 -35 45 -35 55 0 10 -3 18 -8 18 -4 0 -12 17 -19 38 -6 21 -27 64 -45 97 -30 54 -40 63 -108 98 -87 43 -152 108 -148 147 2 19 13 28 52 42 54 19 81 38 54 38 -9 0 -19 -4 -22 -9z"/>
 <path d="M5945 9548 c-2 -7 -6 -42 -9 -78 -7 -87 -11 -114 -19 -127 -9 -14 -17 -89 -21 -182 -2 -51 0 -68 9 -61 6 5 12 32 12 60 1 28 9 90 17 138 22 131 30 306 11 250z"/>
 <path d="M5080 9506 c0 -8 5 -16 10 -18 6 -2 14 -26 19 -53 4 -28 15 -63 24 -79 9 -16 14 -32 12 -36 -2 -4 14 -17 36 -31 51 -30 109 -85 109 -103 0 -7 12 -22 26 -32 29 -22 66 -87 59 -106 -13 -38 -12 -108 1 -119 8 -7 13 -18 10 -26 -3 -7 -1 -13 5 -13 5 0 14 -11 20 -24 6 -13 22 -29 35 -35 22 -10 26 -7 44 27 11 20 30 49 42 64 33 41 15 44 -26 5 -23 -23 -36 -45 -36 -61 0 -43 -23 -29 -54 33 -26 54 -28 66 -22 123 l7 64 -44 50 c-24 27 -52 64 -62 82 -11 17 -43 48 -72 67 -56 37 -93 94 -93 141 0 15 -9 42 -21 60 -23 37 -29 41 -29 20z"/>
 <path d="M4098 9465 c-6 -30 -3 -43 8 -33 3 4 4 19 2 35 l-3 28 -7 -30z"/>
 <path d="M3120 9408 c0 -9 -5 -18 -12 -20 -7 -3 -5 -7 6 -11 9 -4 15 -3 11 2 -3 5 -1 11 5 13 6 2 6 8 0 18 -8 13 -10 13 -10 -2z"/>
 <path d="M5687 9403 c3 -7 9 -13 14 -13 5 0 9 6 9 13 0 8 -6 14 -14 14 -8 0 -12 -6 -9 -14z"/>
 <path d="M5697 9373 c-11 -10 -8 -53 3 -53 6 0 9 14 8 30 -3 33 -2 33 -11 23z"/>
 <path d="M3115 9340 c-4 -6 -11 -8 -16 -5 -5 4 -9 -1 -9 -9 0 -22 13 -20 28 4 7 11 10 20 8 20 -3 0 -8 -5 -11 -10z"/>
 <path d="M5745 9215 c7 -31 12 -41 19 -34 2 2 -3 18 -11 34 l-14 30 6 -30z"/>
 <path d="M5633 9223 c-8 -2 -13 -22 -13 -44 0 -51 17 -42 22 11 2 22 3 40 3 39 0 0 -6 -3 -12 -6z"/>
 <path d="M5650 9160 c0 -5 11 -10 25 -10 14 0 25 5 25 10 0 6 -11 10 -25 10 -14 0 -25 -4 -25 -10z"/>
 <path d="M1238 9133 c-36 -4 -37 -6 -47 -56 -22 -112 -24 -129 -12 -136 8 -5 7 -30 -4 -92 -29 -162 -46 -352 -40 -449 10 -175 17 -235 32 -300 9 -36 15 -96 14 -133 -2 -62 0 -69 18 -74 16 -4 21 -13 21 -39 0 -19 -5 -34 -10 -34 -7 0 -8 -35 -4 -99 7 -97 6 -100 -23 -148 -66 -109 -76 -141 -70 -228 9 -124 75 -290 144 -362 20 -21 38 -46 40 -56 4 -24 40 -94 53 -102 13 -8 13 7 -2 42 -6 15 -12 30 -13 33 0 3 -6 15 -13 26 -6 12 -9 24 -6 27 3 3 -8 20 -26 37 -25 25 -30 36 -27 63 3 17 1 41 -3 52 -6 15 -9 7 -9 -29 -1 -27 -4 -46 -8 -42 -5 4 -8 11 -9 14 -3 26 -20 69 -31 80 -7 8 -11 18 -8 23 4 5 1 9 -4 9 -6 0 -11 8 -11 18 0 9 -8 31 -17 47 -22 42 -25 221 -3 235 8 5 12 10 7 10 -8 0 48 105 71 133 8 9 11 17 6 17 -10 0 -9 105 1 206 6 51 4 68 -8 82 -9 10 -18 46 -22 86 -3 38 -10 77 -15 86 -5 10 -7 20 -4 22 2 3 0 18 -6 34 -7 16 -13 61 -15 99 -2 39 -6 117 -10 175 -4 60 -2 140 5 190 28 220 43 316 52 326 5 8 3 14 -7 18 -18 7 -19 37 -3 105 13 57 12 57 121 66 42 4 77 11 77 16 0 9 -96 10 -172 2z"/>
 <path d="M5673 9133 c-15 -6 -17 -33 -3 -33 5 0 14 9 20 20 11 20 6 23 -17 13z"/>
 <path d="M4627 9115 c-10 -7 -14 -16 -9 -19 5 -3 15 1 22 9 17 21 9 27 -13 10z"/>
 <path d="M5769 9110 c-3 -8 -2 -28 3 -45 11 -36 21 -172 20 -275 0 -41 3 -77 6 -80 4 -3 12 -14 18 -24 6 -11 17 -22 24 -24 11 -4 11 1 -2 20 -21 31 -35 143 -20 152 6 4 9 12 7 19 -2 7 -6 39 -9 72 -2 33 -8 71 -13 85 -5 14 -8 37 -7 53 2 15 -1 25 -6 22 -5 -3 -10 5 -12 17 -3 17 -5 19 -9 8z"/>
 <path d="M5624 9074 c3 -9 6 -22 6 -30 0 -8 10 -14 25 -14 19 0 25 -5 26 -22 3 -49 4 -53 22 -50 19 3 23 -13 5 -24 -6 -4 -14 -2 -16 4 -5 16 -32 15 -31 0 0 -7 9 -31 20 -53 19 -40 19 -40 14 -7 -2 17 -1 32 4 32 13 0 20 -64 8 -72 -6 -4 -15 -4 -19 -2 -4 3 -8 1 -8 -4 0 -15 38 -21 49 -8 5 6 11 22 14 36 l4 25 2 -27 c1 -29 16 -45 24 -25 2 6 -1 39 -7 72 -8 42 -16 60 -26 60 -8 0 -19 10 -25 23 -5 12 -13 22 -18 22 -4 0 -5 5 -2 10 11 18 45 11 45 -10 0 -10 6 -23 14 -27 7 -4 16 -15 19 -23 4 -8 4 1 1 20 -6 34 -40 78 -56 73 -5 -2 -8 5 -8 15 -1 16 -1 16 -11 0 -11 -20 -44 -24 -55 -7 -3 6 0 15 7 20 10 6 8 9 -10 9 -17 0 -22 -4 -17 -16z"/>
 <path d="M5230 8952 c0 -5 13 -20 29 -33 18 -15 31 -38 35 -63 9 -48 43 -94 110 -147 28 -22 58 -58 68 -78 9 -21 24 -44 33 -51 8 -7 18 -30 21 -51 4 -21 10 -36 14 -34 31 19 -48 180 -105 214 -20 11 -38 27 -41 36 -3 8 -10 12 -15 9 -5 -3 -9 2 -9 11 0 8 -7 18 -15 21 -8 4 -20 26 -26 50 -6 24 -15 44 -19 44 -4 0 -7 7 -6 16 0 9 -16 27 -36 40 -21 13 -38 20 -38 16z"/>
 <path d="M4500 8940 c0 -13 11 -13 30 0 12 8 11 10 -7 10 -13 0 -23 -4 -23 -10z"/>
 <path d="M3350 8820 c-24 -19 -24 -19 -2 -13 12 3 25 10 28 15 11 18 -1 17 -26 -2z"/>
 <path d="M5544 8813 c4 -8 2 -13 -6 -13 -9 0 -9 -3 2 -10 13 -8 12 -10 -4 -10 -20 0 -20 0 0 -15 10 -8 23 -15 28 -15 11 0 -2 52 -16 65 -8 7 -9 6 -4 -2z"/>
 <path d="M5752 8782 c-8 -24 -9 -48 -3 -87 3 -20 19 21 25 68 8 52 -6 64 -22 19z"/>
 <path d="M3300 8749 c0 -5 -4 -7 -10 -4 -5 3 -10 -1 -10 -9 0 -22 13 -20 28 4 7 12 8 20 2 20 -5 0 -10 -5 -10 -11z"/>
 <path d="M5765 8680 c-3 -5 -17 -10 -29 -10 l-24 0 30 -72 c29 -72 47 -104 33 -59 -5 16 -4 21 4 17 6 -4 18 -31 26 -60 9 -29 27 -68 40 -86 14 -19 25 -39 25 -44 0 -6 16 -19 35 -28 54 -27 45 1 -13 41 -34 24 -76 104 -86 161 -2 17 -10 37 -16 45 -7 8 -10 34 -8 60 3 43 -4 57 -17 35z"/>
 <path d="M5660 8664 c0 -15 22 -44 30 -39 6 4 5 14 -3 25 -11 19 -27 27 -27 14z"/>
 <path d="M5857 8656 c-6 -15 1 -26 15 -26 11 0 10 27 -1 34 -5 3 -11 0 -14 -8z"/>
 <path d="M5555 8629 c-7 -10 10 -28 28 -29 12 0 8 17 -7 29 -11 9 -16 9 -21 0z"/>
 <path d="M1409 8598 c-6 -20 -5 -38 2 -49 6 -10 9 -4 9 19 0 17 -2 32 -5 32 -3 0 -5 -1 -6 -2z"/>
 <path d="M5956 8583 c10 -23 5 -185 -7 -241 -11 -51 6 -99 34 -94 9 2 17 -2 17 -8 0 -5 -11 -10 -23 -10 -19 0 -27 9 -37 41 -17 50 -21 52 -42 24 -17 -23 -17 -24 11 -54 16 -18 34 -44 39 -59 l9 -27 8 33 7 34 36 -34 c33 -30 34 -31 19 -6 -24 39 -21 44 7 11 36 -41 43 -20 9 24 -16 21 -33 46 -36 56 -11 31 10 18 37 -23 14 -22 28 -40 30 -40 8 0 -7 45 -17 52 -7 4 -7 11 1 21 10 12 8 18 -13 31 -17 11 -24 12 -23 4 2 -7 -4 -12 -12 -13 -8 0 -20 -11 -26 -24 -12 -23 -12 -23 -23 -3 -8 15 -8 21 1 24 14 5 28 141 17 161 -4 7 -2 23 4 37 15 38 14 63 -5 82 -23 23 -32 23 -22 1z m-36 -319 c0 -8 -4 -12 -10 -9 -5 3 -10 13 -10 21 0 8 5 12 10 9 6 -3 10 -13 10 -21z"/>
 <path d="M5843 8578 c1 -7 7 -16 12 -20 13 -10 13 -31 0 -41 -5 -5 0 -5 13 -2 24 7 27 -6 23 -82 -1 -23 4 -35 19 -43 19 -10 20 -9 12 7 -11 20 -10 68 1 79 4 4 7 12 7 18 0 6 -4 5 -9 -3 -6 -9 -11 -10 -15 -2 -4 6 -4 11 0 11 3 0 -5 15 -20 34 -14 19 -26 39 -26 45 0 6 -4 11 -10 11 -5 0 -9 -6 -7 -12z"/>
 <path d="M5585 8560 c-3 -4 8 -10 24 -13 25 -5 28 -10 23 -34 -2 -15 -9 -34 -15 -41 -10 -13 -3 -97 13 -135 8 -20 9 -18 9 12 1 52 10 32 20 -45 6 -38 17 -123 27 -189 20 -143 23 -377 4 -400 -16 -19 -41 -140 -54 -260 -11 -101 10 -41 34 95 12 69 28 136 35 150 7 14 14 41 15 60 6 58 2 292 -4 345 -20 154 -40 272 -49 283 -6 8 -11 39 -12 70 -1 31 -5 67 -9 78 -7 21 -52 39 -61 24z"/>
 <path d="M6004 8481 c9 -16 20 -33 26 -36 5 -3 10 -14 10 -24 0 -10 9 -28 19 -40 11 -12 26 -32 34 -44 8 -12 18 -19 21 -16 3 3 -5 21 -18 40 -14 19 -35 56 -47 82 -12 26 -30 52 -41 58 -18 10 -19 9 -4 -20z"/>
 <path d="M3003 8454 c-12 -19 -18 -34 -14 -34 11 0 43 49 39 59 -2 5 -13 -7 -25 -25z"/>
 <path d="M5793 8453 c-15 -5 24 -69 46 -78 11 -4 10 0 -3 13 -9 11 -20 31 -24 44 -4 14 -12 23 -19 21z"/>
 <path d="M1410 8431 c0 -27 10 -51 21 -51 6 0 5 9 -1 20 -6 11 -8 25 -5 30 3 5 1 11 -5 15 -5 3 -10 -3 -10 -14z"/>
 <path d="M3430 8391 c0 -10 26 -9 36 2 4 4 -2 7 -14 7 -12 0 -22 -4 -22 -9z"/>
 <path d="M3597 8373 c-12 -12 -7 -22 8 -17 8 4 15 10 15 15 0 11 -14 12 -23 2z"/>
 <path d="M7105 8235 c3 -38 10 -146 16 -240 6 -93 11 -178 11 -187 -1 -10 4 -18 10 -18 6 0 7 15 4 38 -3 20 -11 120 -17 222 -6 102 -15 201 -19 220 -7 26 -8 18 -5 -35z"/>
 <path d="M6138 8245 c3 -25 0 -35 -8 -33 -7 2 -14 -7 -16 -19 -3 -16 1 -20 14 -16 13 3 18 17 20 54 2 27 -1 49 -5 49 -5 0 -7 -16 -5 -35z"/>
 <path d="M501 8250 c0 -14 4 -34 9 -45 8 -18 9 -18 9 5 0 14 -4 34 -9 45 -8 18 -9 18 -9 -5z"/>
 <path d="M1432 8180 c1 -16 6 -30 10 -30 5 0 7 14 6 30 -1 17 -6 30 -10 30 -5 0 -7 -13 -6 -30z"/>
 <path d="M3360 8170 c-31 -26 -33 -29 -12 -27 25 1 56 30 51 46 -2 5 -20 -3 -39 -19z"/>
 <path d="M521 8162 c-1 -25 67 -361 119 -587 40 -176 40 -178 45 -173 5 5 -19 125 -56 273 -12 50 -41 185 -64 300 -24 116 -44 199 -44 187z"/>
 <path d="M3500 8170 c-8 -5 -12 -11 -9 -14 3 -3 14 1 25 9 21 16 8 20 -16 5z"/>
 <path d="M5646 8128 c-3 -29 -8 -84 -10 -123 -3 -38 -8 -83 -11 -100 -4 -16 -8 -59 -10 -95 -11 -235 -15 -257 -80 -490 -8 -30 -15 -74 -15 -96 0 -23 -6 -57 -14 -75 -11 -26 -14 -83 -13 -244 l2 -210 58 -142 c31 -78 57 -157 58 -175 0 -25 2 -28 8 -14 6 15 9 11 19 -22 9 -31 17 -40 28 -35 9 3 11 9 6 12 -5 3 -9 13 -10 21 -1 35 -25 141 -30 135 -3 -3 -30 45 -61 107 -52 107 -55 117 -58 198 -1 47 -3 87 -4 90 -1 3 0 10 1 15 2 6 4 57 5 115 2 58 8 119 15 135 7 17 13 50 13 75 -1 25 3 53 8 62 6 11 5 18 -4 21 -9 4 -9 6 1 6 6 1 12 13 12 27 0 23 22 116 37 154 8 21 10 32 17 92 3 29 8 69 12 88 3 19 6 82 8 140 1 58 5 111 9 117 9 14 22 263 14 263 -3 0 -8 -24 -11 -52z"/>
 <path d="M5965 7964 c1 -81 -3 -170 -8 -198 -5 -28 -10 -67 -12 -87 -4 -53 -14 -78 -51 -132 -19 -27 -34 -53 -34 -58 0 -19 21 -8 30 15 5 13 14 27 20 31 6 4 22 25 37 48 25 40 26 45 30 261 3 122 1 231 -4 244 -6 15 -8 -28 -8 -124z"/>
 <path d="M6234 7997 c3 -10 6 -30 6 -43 0 -14 4 -22 10 -19 11 7 3 55 -13 70 -7 7 -8 4 -3 -8z"/>
 <path d="M5824 7989 c-10 -17 -11 -109 -1 -109 4 0 7 17 4 38 -2 20 0 47 4 60 9 23 5 30 -7 11z"/>
 <path d="M6190 7908 c15 -46 33 -101 39 -123 22 -86 35 -120 39 -103 2 9 -7 50 -19 90 -12 40 -24 84 -26 98 -5 31 -45 120 -55 120 -3 0 6 -37 22 -82z"/>
 <path d="M6257 7883 c3 -21 10 -42 16 -48 7 -7 8 -4 3 8 -3 10 -6 32 -6 48 0 16 -4 29 -9 29 -6 0 -7 -17 -4 -37z"/>
 <path d="M5809 7828 c-1 -7 -1 -17 0 -22 1 -4 -4 -14 -10 -22 -8 -9 -8 -14 -1 -14 13 0 17 7 26 43 4 16 2 27 -4 27 -5 0 -11 -6 -11 -12z"/>
 <path d="M7137 7755 c12 -46 8 -706 -6 -815 -19 -154 -37 -200 -177 -469 -33 -62 -46 -77 -85 -97 -50 -25 -191 -136 -277 -218 -29 -28 -71 -61 -92 -74 l-39 -23 1 113 c0 62 -3 154 -7 204 l-7 91 31 6 c48 10 39 30 -9 22 -42 -7 -52 3 -25 25 8 7 15 20 14 29 0 12 -2 11 -9 -4 -5 -11 -9 -15 -9 -9 -1 5 -8 19 -16 30 -9 11 -13 13 -10 4 3 -8 6 -57 8 -107 2 -51 7 -96 10 -100 12 -11 8 -25 -5 -17 -10 6 -10 4 -2 -7 15 -19 15 -152 0 -161 -6 -4 -6 -8 -1 -8 12 0 13 -60 2 -78 -5 -7 -5 -12 0 -11 20 3 25 -2 14 -15 -22 -26 6 -26 55 0 27 14 74 49 104 79 71 68 211 179 269 213 59 34 57 31 144 202 118 229 132 289 146 620 11 237 0 576 -19 594 -8 8 -9 3 -3 -19z"/>
 <path d="M6150 7755 c-7 -8 -9 -22 -5 -32 6 -15 9 -13 16 11 10 35 7 42 -11 21z"/>
 <path d="M5786 7718 c-4 -19 -1 -37 6 -46 10 -13 10 -14 1 -8 -7 4 -13 3 -13 -3 0 -5 8 -9 19 -8 19 1 20 6 7 46 -5 15 -4 26 4 31 8 5 8 9 -3 13 -10 4 -17 -4 -21 -25z"/>
 <path d="M6003 7728 c10 -5 29 -7 42 -4 14 4 25 1 28 -7 2 -6 8 -9 12 -4 14 12 -2 19 -52 23 -37 2 -44 0 -30 -8z"/>
 <path d="M5836 7721 c-17 -7 -16 -8 7 -24 30 -19 41 -22 32 -7 -3 6 3 10 15 10 12 0 19 4 15 10 -4 6 -15 6 -31 -1 -22 -8 -25 -7 -20 6 3 8 4 15 3 14 -1 0 -10 -4 -21 -8z"/>
 <path d="M6018 7693 c7 -3 10 -9 7 -14 -4 -5 13 -9 37 -8 46 0 32 12 -27 21 -16 3 -24 3 -17 1z"/>
 <path d="M6264 7633 c6 -34 12 -58 25 -101 6 -19 6 -30 0 -27 -13 9 -12 5 17 -82 29 -91 26 -130 -14 -160 -52 -38 -94 -47 -158 -34 -33 6 -60 16 -62 21 -2 6 -10 10 -18 10 -8 0 -23 9 -34 20 -11 11 -20 17 -20 13 0 -3 -9 2 -20 12 -14 13 -19 14 -15 4 16 -38 179 -127 211 -115 7 3 15 0 18 -7 3 -9 5 -9 5 1 1 19 21 14 21 -5 0 -13 4 -11 13 7 7 14 19 26 27 26 8 1 20 2 27 3 6 0 15 10 18 21 10 33 20 23 18 -17 -1 -21 2 -55 7 -76 7 -33 6 -38 -8 -32 -12 5 -12 1 3 -15 l19 -22 7 24 c13 51 9 152 -11 264 -29 163 -61 294 -72 294 -5 0 -7 -12 -4 -27z"/>
 <path d="M5766 7609 c-3 -17 -3 -35 0 -40 3 -5 1 -9 -4 -9 -5 0 -9 -6 -9 -12 -1 -23 -14 -81 -20 -91 -3 -6 -1 -7 4 -4 12 7 34 85 38 135 4 39 15 56 15 24 0 -12 4 -22 8 -22 13 0 11 34 -2 42 -19 13 -23 9 -30 -23z"/>
 <path d="M5957 7580 c-7 -37 -6 -110 3 -110 11 0 18 70 10 105 -7 30 -7 30 -13 5z"/>
 <path d="M5997 7544 c-13 -13 -7 -23 13 -21 11 1 19 6 17 11 -4 13 -21 18 -30 10z"/>
 <path d="M2718 7487 c-2 -20 -1 -37 3 -37 13 0 18 30 10 52 -7 20 -9 18 -13 -15z"/>
 <path d="M3437 7509 c6 -6 9 -19 6 -28 -4 -13 -3 -14 5 -1 6 8 9 17 6 21 -2 4 2 10 8 12 7 3 2 6 -11 6 -19 1 -22 -2 -14 -10z"/>
 <path d="M6020 7493 c0 -8 4 -11 10 -8 5 3 19 1 31 -6 19 -10 21 -9 15 6 -5 15 -4 16 9 5 10 -8 15 -9 15 -1 0 11 -31 21 -62 19 -10 -1 -18 -8 -18 -15z"/>
 <path d="M6202 7481 c-10 -6 -10 -10 3 -21 13 -11 15 -9 15 9 0 24 0 24 -18 12z"/>
 <path d="M1432 7435 c-17 -25 -29 -45 -26 -45 8 0 27 21 47 53 30 47 13 40 -21 -8z"/>
 <path d="M6065 7425 c-5 -2 -23 -6 -38 -9 -16 -4 -25 -11 -21 -17 4 -8 10 -7 17 0 6 6 21 11 34 11 13 0 23 5 23 10 0 6 -1 10 -2 9 -2 0 -7 -2 -13 -4z"/>
 <path d="M4330 7411 c0 -4 11 -6 25 -3 14 2 25 6 25 8 0 2 -11 4 -25 4 -14 0 -25 -4 -25 -9z"/>
 <path d="M5840 7378 c0 -18 15 -31 43 -35 10 -2 15 1 12 7 -3 5 -12 10 -20 10 -8 0 -19 8 -24 18 -10 16 -10 16 -11 0z"/>
 <path d="M1383 7368 c-19 -25 -23 -47 -7 -41 8 3 13 8 10 11 -3 2 -1 13 5 23 11 22 6 25 -8 7z"/>
 <path d="M5626 7372 c-2 -4 -7 -107 -9 -228 -3 -120 -3 -204 0 -186 3 21 8 30 16 25 9 -5 8 -2 0 9 -7 8 -11 17 -8 19 7 7 19 369 12 369 -3 0 -8 -4 -11 -8z"/>
 <path d="M5713 7333 c-1 -26 -5 -64 -8 -83 -4 -23 -3 -32 3 -25 9 9 21 75 22 113 1 59 -15 54 -17 -5z"/>
 <path d="M6250 7371 c0 -6 5 -11 11 -11 7 0 0 -11 -15 -25 -15 -14 -23 -25 -18 -25 5 0 18 11 31 23 19 21 20 25 6 37 -10 8 -15 9 -15 1z"/>
 <path d="M6460 7342 c0 -10 -3 -21 -6 -25 -4 -3 -17 -36 -29 -72 -13 -36 -29 -73 -35 -81 -10 -11 -9 -14 4 -14 10 0 19 11 23 30 3 17 11 30 19 30 14 0 21 18 28 74 3 21 10 44 15 49 15 15 14 27 -4 27 -8 0 -15 -8 -15 -18z"/>
 <path d="M5927 7322 c-4 -4 -7 -104 -8 -220 -1 -117 -5 -212 -8 -212 -3 0 -6 -44 -7 -98 0 -150 -14 -553 -19 -587 -3 -16 -7 -73 -9 -125 -2 -52 -7 -104 -10 -115 -51 -192 -119 -329 -197 -400 l-32 -30 23 38 c29 50 40 101 29 139 -6 22 -5 36 4 47 8 10 8 13 0 8 -21 -13 -21 103 0 142 28 51 22 177 -9 208 -7 7 -10 21 -7 32 3 11 0 28 -6 38 -10 17 -10 17 -11 1 0 -19 -15 -24 -24 -10 -3 5 -8 23 -11 40 -4 24 -1 34 15 42 11 6 20 15 20 21 0 6 -7 6 -19 -1 -35 -18 -42 -12 -36 28 l5 37 -14 -30 c-18 -37 -13 -78 13 -111 11 -14 23 -42 27 -63 4 -20 13 -49 21 -65 11 -20 14 -50 11 -98 -4 -73 -11 -84 -60 -95 -16 -3 -28 -12 -28 -19 0 -7 -19 -18 -42 -25 -54 -14 -98 -39 -98 -56 0 -16 3 -16 34 -2 14 7 23 16 20 20 -3 5 14 9 38 9 34 0 52 7 78 30 19 16 37 29 40 30 9 0 2 -244 -8 -283 -12 -44 -36 -85 -66 -109 -12 -10 -16 -18 -8 -18 7 0 23 11 36 25 13 14 26 25 29 25 3 0 30 26 61 58 60 62 116 165 160 292 28 84 50 195 41 210 -9 15 6 18 159 34 76 9 140 17 142 18 2 2 5 24 7 50 3 25 8 51 11 57 4 6 3 11 -2 11 -13 0 -22 -25 -22 -61 0 -24 -4 -29 -24 -29 -13 0 -26 -6 -29 -14 -4 -9 -27 -14 -77 -15 -39 -1 -91 -6 -116 -10 l-45 -9 5 92 c8 134 15 300 21 481 4 88 8 167 11 176 6 21 64 36 175 45 l87 7 6 -39 c3 -22 4 -54 3 -71 -2 -23 1 -33 11 -33 22 0 11 127 -13 143 -12 9 -120 16 -120 7 0 0 -27 -2 -60 -4 -33 -2 -68 -7 -77 -11 -16 -6 -18 0 -18 48 0 64 9 75 45 51 14 -9 25 -12 25 -6 0 6 -9 14 -20 17 -11 3 -20 10 -20 15 0 5 -6 7 -14 4 -10 -4 -12 4 -10 33 6 79 7 263 2 269 -3 3 -8 1 -11 -4z"/>
 <path d="M5859 7294 c9 -18 6 -23 -16 -33 -33 -15 -24 -25 11 -12 30 12 32 20 10 47 -15 18 -15 18 -5 -2z"/>
 <path d="M6056 7301 c-11 -17 79 -51 131 -51 48 0 113 29 113 50 0 15 -11 12 -32 -7 -27 -25 -160 -20 -193 7 -9 7 -15 8 -19 1z"/>
 <path d="M716 7130 c13 -226 70 -571 159 -950 35 -150 55 -244 96 -439 25 -119 79 -280 118 -352 40 -73 140 -181 208 -225 29 -19 55 -34 58 -34 3 0 30 -17 61 -37 101 -68 149 -93 181 -93 17 0 38 -7 47 -15 8 -8 21 -12 29 -9 8 3 46 -4 84 -16 50 -16 101 -23 193 -25 l125 -4 -120 9 c-87 6 -146 17 -215 38 -52 17 -113 33 -135 37 -48 8 -94 29 -158 72 -27 18 -76 47 -110 65 -56 30 -129 94 -183 159 -62 76 -127 237 -165 411 -11 51 -30 143 -43 203 -13 61 -31 139 -39 175 -48 198 -60 249 -67 290 -4 25 -24 128 -44 229 -20 102 -41 225 -47 275 -6 50 -16 145 -24 211 l-14 120 5 -95z"/>
 <path d="M3443 7205 c-7 -8 -9 -16 -5 -19 4 -3 13 4 20 15 14 22 3 25 -15 4z"/>
 <path d="M5701 7190 c-1 -14 -6 -48 -10 -77 -6 -46 -5 -51 11 -50 19 1 26 17 8 17 -6 0 -9 13 -8 29 1 19 7 27 15 24 7 -3 13 0 13 6 0 6 -4 11 -9 11 -6 0 -12 15 -14 33 -3 26 -4 27 -6 7z"/>
 <path d="M6198 7130 c2 -16 6 -30 8 -30 2 0 4 14 4 30 0 17 -4 30 -8 30 -5 0 -7 -13 -4 -30z"/>
 <path d="M4033 7130 c-18 -11 -33 -22 -33 -25 0 -3 12 3 27 12 15 10 29 17 32 15 3 -2 7 1 9 7 5 15 2 14 -35 -9z"/>
 <path d="M6010 7128 c0 -10 6 -18 14 -18 8 0 23 -2 33 -5 10 -3 7 0 -7 7 -14 7 -28 17 -32 23 -5 6 -8 3 -8 -7z"/>
 <path d="M5990 7101 c0 -4 11 -13 24 -19 18 -8 23 -16 19 -31 -3 -12 -9 -21 -14 -21 -5 0 -9 -5 -9 -10 0 -7 7 -7 20 0 11 6 25 8 30 5 6 -3 10 1 10 9 0 10 -6 13 -16 9 -12 -4 -14 0 -9 18 5 20 1 26 -25 36 -16 6 -30 8 -30 4z"/>
 <path d="M6137 7103 c7 -2 15 -4 19 -3 4 1 10 -4 15 -11 4 -8 11 -10 16 -6 10 11 -17 27 -42 26 -11 0 -14 -3 -8 -6z"/>
 <path d="M5964 7075 c8 -8 19 -15 25 -15 17 0 13 17 -5 24 -27 10 -36 7 -20 -9z"/>
 <path d="M6130 7074 c0 -8 4 -13 9 -9 5 3 12 1 16 -5 3 -5 13 -10 21 -10 13 0 13 2 2 13 -22 22 -48 28 -48 11z"/>
 <path d="M6221 7083 c0 -5 4 -17 9 -28 8 -18 9 -17 9 8 1 15 -3 27 -9 27 -5 0 -10 -3 -9 -7z"/>
 <path d="M6060 7069 c0 -8 8 -11 26 -8 4 0 10 -4 13 -10 4 -6 16 -12 26 -14 11 -2 29 -8 40 -14 29 -16 37 -16 46 -1 12 18 11 28 -2 28 -5 0 -7 -4 -4 -10 7 -11 -28 -14 -38 -3 -13 13 -107 41 -107 32z"/>
 <path d="M6321 7074 c-1 -6 5 -17 13 -23 7 -6 17 -41 21 -77 4 -36 9 -63 12 -60 3 3 2 39 -2 81 -5 58 -10 75 -20 71 -8 -3 -16 0 -19 7 -3 8 -5 8 -5 1z"/>
 <path d="M5793 7063 c-7 -3 -13 -9 -13 -14 0 -6 4 -7 10 -4 5 3 20 8 31 10 12 3 24 6 26 8 5 6 -39 5 -54 0z"/>
 <path d="M5884 7052 c-17 -11 -26 -49 -14 -57 6 -4 10 4 10 17 0 13 5 29 12 36 13 13 9 16 -8 4z"/>
 <path d="M5971 7034 c23 -25 35 -25 26 -1 -3 8 -15 17 -27 20 l-22 6 23 -25z"/>
 <path d="M3226 7029 c-18 -17 -18 -19 -2 -19 9 0 19 7 23 15 8 23 0 25 -21 4z"/>
 <path d="M5680 7032 c0 -9 3 -12 7 -9 3 4 12 -1 19 -10 11 -16 12 -15 7 8 -5 27 -33 36 -33 11z"/>
 <path d="M6080 7034 c0 -5 9 -15 20 -22 17 -10 20 -10 20 5 0 9 -3 13 -7 10 -3 -4 -12 -2 -20 4 -7 6 -13 7 -13 3z"/>
 <path d="M3070 7001 c0 -5 -7 -17 -16 -25 -14 -15 -14 -16 3 -16 12 0 18 8 19 25 1 14 0 25 -2 25 -2 0 -4 -4 -4 -9z"/>
 <path d="M3124 6995 c-3 -8 -4 -20 -1 -27 4 -8 6 -6 6 5 1 9 6 17 11 17 6 0 10 5 10 10 0 15 -20 12 -26 -5z"/>
 <path d="M5681 6980 c0 -33 1 -34 10 -11 6 16 6 28 -1 35 -7 7 -10 -1 -9 -24z"/>
 <path d="M6080 6990 c0 -5 10 -10 23 -10 18 0 19 2 7 10 -19 13 -30 13 -30 0z"/>
 <path d="M2966 6931 c-4 -5 -13 -8 -20 -5 -7 3 -18 -2 -25 -9 -10 -13 -6 -14 26 -10 45 6 50 10 36 24 -7 7 -13 8 -17 0z"/>
 <path d="M6241 6888 c-1 -16 4 -28 9 -28 12 0 12 8 0 35 -8 18 -9 17 -9 -7z"/>
 <path d="M6366 6858 c2 -13 5 -45 5 -73 1 -27 4 -54 7 -60 5 -8 12 -41 14 -72 1 -7 5 -10 10 -7 4 3 8 1 8 -4 0 -13 28 -23 34 -14 3 5 -4 28 -15 52 -11 25 -25 70 -30 100 -15 87 -19 100 -29 100 -5 0 -7 -10 -4 -22z"/>
 <path d="M6070 6823 c-24 -3 -50 -9 -57 -15 -18 -15 -16 -57 3 -65 30 -11 32 -44 6 -70 -22 -22 -24 -31 -19 -84 4 -43 1 -63 -8 -73 -8 -8 -12 -16 -10 -18 3 -3 6 -24 7 -47 1 -23 6 -44 11 -48 5 -3 4 -9 -3 -13 -7 -5 -13 -42 -16 -98 l-3 -91 37 -3 c28 -2 36 -7 34 -19 -6 -40 50 -48 93 -14 11 9 14 13 6 9 -11 -6 -13 1 -7 34 4 27 2 42 -4 42 -6 0 -1 10 10 23 19 19 19 22 5 25 -10 2 -14 10 -11 18 3 8 -1 17 -9 20 -8 4 -12 10 -9 15 3 5 10 6 16 3 7 -5 9 2 4 21 -4 17 -3 31 4 35 16 10 -15 40 -41 40 -32 0 -21 19 14 22 31 3 32 4 30 48 0 25 4 51 10 59 8 10 9 13 1 8 -8 -5 -12 13 -13 59 -1 38 3 63 8 60 5 -4 9 13 8 39 -1 25 -5 45 -8 45 -4 0 -9 9 -12 20 -3 11 -11 19 -19 18 -7 -1 -33 -3 -58 -5z m60 -109 c-15 -37 -52 -30 -65 14 -7 25 -14 32 -27 29 -13 -4 -18 1 -18 17 0 20 5 23 47 25 26 1 49 4 52 7 11 11 20 -66 11 -92z m-2 -91 c3 -35 -1 -44 -20 -57 -17 -11 -32 -13 -53 -8 -26 7 -30 14 -33 47 -4 48 17 67 68 63 33 -3 35 -5 38 -45z m2 -111 c0 -11 -7 -19 -17 -19 -62 1 -83 -4 -83 -18 0 -8 -4 -15 -8 -15 -4 0 -6 15 -4 33 4 31 5 32 58 35 47 2 54 0 54 -16z m-45 -84 c50 -14 62 -42 23 -57 -13 -5 -40 -16 -60 -25 -37 -16 -38 -16 -38 4 0 12 6 20 13 18 16 -3 87 24 87 33 0 4 -22 10 -50 14 -27 4 -50 11 -50 16 0 12 21 11 75 -3z m-35 -26 c0 -13 -12 -22 -22 -16 -10 6 -1 24 13 24 5 0 9 -4 9 -8z m70 -122 c0 -33 -4 -42 -25 -52 -19 -8 -28 -8 -40 2 -13 11 -19 10 -35 -5 -19 -18 -20 -17 -20 3 0 12 4 22 8 22 5 0 17 7 28 16 19 15 18 15 -3 11 -17 -4 -23 -1 -23 13 0 15 9 20 48 23 26 2 50 4 55 5 4 1 7 -16 7 -38z m10 -89 c0 -23 -37 -38 -53 -22 -7 7 -6 15 3 26 18 22 50 19 50 -4z"/>
 <path d="M6080 6745 c0 -18 5 -25 20 -25 15 0 20 7 20 25 0 18 -5 25 -20 25 -15 0 -20 -7 -20 -25z"/>
 <path d="M6044 6625 c-10 -25 4 -45 29 -45 29 0 52 24 43 45 -7 20 -65 20 -72 0z"/>
 <path d="M6073 6283 c-20 -8 -15 -33 6 -33 16 0 31 18 31 36 0 5 -21 4 -37 -3z"/>
 <path d="M1354 6750 c10 -144 45 -239 105 -286 19 -15 40 -111 40 -187 1 -53 -4 -65 -54 -149 -57 -94 -64 -120 -41 -150 25 -33 71 -16 134 50 36 39 40 52 15 52 -13 0 -14 3 -5 12 7 7 12 19 12 27 0 10 -10 5 -30 -14 -34 -32 -39 -50 -12 -41 9 3 0 -10 -22 -29 -21 -19 -43 -32 -47 -29 -5 3 -9 0 -9 -6 0 -6 -4 -8 -10 -5 -19 12 -10 43 14 49 28 7 114 118 96 124 -12 4 -33 -20 -62 -70 -9 -16 -19 -25 -22 -20 -3 5 11 33 32 63 32 47 36 62 37 114 0 33 -4 83 -9 110 -5 28 -10 62 -10 77 -1 14 -3 25 -6 23 -3 -2 -20 9 -37 24 -27 23 -39 46 -64 131 -17 56 -29 110 -26 119 2 9 -2 30 -10 46 -13 28 -13 26 -9 -35z"/>
 <path d="M6425 6750 c-3 -5 2 -24 11 -42 10 -19 19 -28 22 -20 2 7 -4 22 -13 32 -9 10 -14 24 -10 29 3 6 4 11 1 11 -3 0 -8 -4 -11 -10z"/>
 <path d="M6212 6743 c-6 -2 -9 -10 -5 -16 12 -19 11 -121 -1 -129 -19 -12 2 -20 23 -8 16 8 21 8 21 -1 0 -7 3 -9 7 -5 5 4 0 13 -10 20 -13 10 -17 30 -19 80 -1 36 -2 66 -3 65 0 0 -6 -3 -13 -6z"/>
 <path d="M6252 6651 c1 -16 5 -28 9 -26 6 5 0 55 -7 55 -3 0 -3 -13 -2 -29z"/>
 <path d="M6466 6593 c5 -19 74 -83 74 -69 0 3 -18 24 -40 48 -30 32 -38 38 -34 21z"/>
 <path d="M6219 6578 c-6 -11 -3 -58 3 -58 4 0 8 14 8 30 0 25 -6 38 -11 28z"/>
 <path d="M2620 6533 c8 -2 29 -11 45 -18 17 -7 44 -15 62 -18 17 -3 37 -8 44 -12 7 -5 10 -3 7 6 -3 8 -16 15 -29 15 -13 1 -44 9 -68 18 -24 9 -51 16 -60 15 -13 0 -13 -1 -1 -6z"/>
 <path d="M6247 6500 c-4 -14 -6 -36 -6 -50 1 -22 2 -20 10 8 6 19 9 41 7 50 -3 12 -6 10 -11 -8z"/>
 <path d="M6209 6413 c0 -54 -2 -114 -4 -133 -3 -23 -2 -30 4 -20 12 20 21 250 10 250 -5 0 -9 -44 -10 -97z"/>
 <path d="M2795 6491 c3 -5 21 -9 41 -9 19 0 33 3 29 6 -9 10 -76 12 -70 3z"/>
 <path d="M2880 6481 c0 -4 19 -8 43 -9 23 -1 54 -5 70 -8 16 -3 27 -1 27 5 0 6 -7 8 -15 5 -8 -4 -15 -2 -15 2 0 5 -25 10 -55 10 -30 1 -55 -1 -55 -5z"/>
 <path d="M4310 6448 c-25 -11 -25 -11 -2 -15 12 -3 29 3 38 11 19 19 2 21 -36 4z"/>
 <path d="M6563 6441 c-18 -9 -33 -22 -33 -29 0 -7 -4 -11 -9 -8 -13 8 -45 -19 -37 -32 4 -6 13 -9 21 -6 8 4 13 10 10 14 -3 5 4 11 15 15 22 7 76 53 69 59 -2 2 -19 -4 -36 -13z"/>
 <path d="M3245 6399 c-28 -6 -27 -7 10 -8 22 -1 50 -4 63 -7 12 -4 22 -2 22 4 0 13 -56 19 -95 11z"/>
 <path d="M3825 6384 c-11 -8 -13 -14 -5 -19 6 -4 19 0 28 8 9 8 24 17 32 20 8 3 3 5 -12 4 -15 -1 -34 -7 -43 -13z"/>
 <path d="M5450 6392 c-14 -2 -31 -11 -38 -20 -7 -9 -16 -16 -20 -14 -3 2 -7 -1 -9 -7 -1 -7 1 -7 3 -2 3 6 12 7 20 4 9 -3 14 2 15 13 0 11 3 14 6 7 6 -17 38 -16 52 1 14 17 5 23 -29 18z"/>
 <path d="M6680 6365 c-7 -9 -10 -18 -6 -22 3 -3 6 -1 6 5 0 6 8 12 18 14 11 2 13 6 6 11 -7 4 -17 0 -24 -8z"/>
 <path d="M5348 6356 c-10 -7 -18 -19 -18 -26 0 -7 9 -3 20 10 28 33 27 39 -2 16z"/>
 <path d="M3745 6341 c-16 -8 -32 -17 -35 -20 -10 -13 -34 -11 -116 9 -104 25 -137 21 -39 -5 39 -10 78 -22 87 -27 16 -8 106 16 118 31 3 4 16 12 30 18 20 9 21 11 5 10 -11 -1 -33 -8 -50 -16z"/>
 <path d="M5208 6313 c-10 -2 -18 -8 -18 -13 0 -5 -13 -11 -30 -15 -16 -4 -30 -13 -30 -21 0 -8 1 -14 3 -14 17 0 143 52 145 59 4 11 -37 13 -70 4z"/>
 <path d="M6546 6305 c-10 -7 -15 -18 -11 -24 3 -6 1 -11 -4 -11 -6 0 -11 5 -11 11 0 5 -5 7 -10 4 -6 -4 -8 -16 -4 -27 4 -14 2 -18 -5 -14 -6 4 -11 1 -11 -7 0 -12 4 -13 24 -4 13 7 23 15 20 18 -2 4 10 21 26 38 30 31 21 42 -14 16z"/>
 <path d="M6230 6256 c0 -31 6 -34 13 -6 3 11 1 23 -4 26 -5 3 -9 -6 -9 -20z"/>
 <path d="M4403 6247 c1 -7 -7 -11 -20 -9 -24 3 -28 -4 -15 -25 5 -8 15 -4 35 12 23 18 26 23 13 28 -9 4 -15 1 -13 -6z"/>
 <path d="M5100 6250 c-8 -5 -11 -12 -7 -16 4 -4 13 -2 19 4 15 15 7 24 -12 12z"/>
 <path d="M5021 6224 c-14 -17 -9 -27 15 -30 10 -2 13 3 9 16 -5 15 -2 17 15 13 11 -3 20 0 20 6 0 16 -43 13 -59 -5z"/>
 <path d="M6530 6211 c0 -5 -9 -13 -20 -16 -22 -7 -28 -25 -7 -21 28 6 47 19 47 32 0 8 -4 14 -10 14 -5 0 -10 -4 -10 -9z"/>
 <path d="M6210 6115 c-12 -64 -8 -104 6 -51 3 14 9 24 13 22 7 -5 6 82 -2 90 -2 3 -10 -25 -17 -61z"/>
 <path d="M4286 6134 c-8 -21 -4 -25 14 -14 11 7 12 12 4 20 -8 8 -13 7 -18 -6z"/>
 <path d="M4000 6134 c0 -5 43 -29 95 -54 88 -43 97 -45 132 -35 21 6 44 10 51 7 6 -2 12 2 12 9 0 8 -15 10 -54 6 -39 -4 -60 -1 -75 9 -11 8 -45 23 -73 33 -29 11 -61 22 -70 26 -10 4 -18 3 -18 -1z"/>
 <path d="M6172 6058 c-2 -49 3 -47 12 5 4 20 3 37 -2 37 -5 0 -9 -19 -10 -42z"/>
 <path d="M5953 6076 c-24 -6 -43 -14 -43 -19 0 -13 81 -2 115 16 l30 17 -30 -3 c-17 -1 -49 -6 -72 -11z"/>
 <path d="M1586 6048 c3 -18 17 -55 29 -83 12 -27 33 -79 45 -115 13 -36 40 -105 61 -155 21 -49 59 -155 84 -235 45 -140 57 -171 113 -289 25 -51 97 -152 114 -159 4 -2 8 -8 8 -13 0 -10 24 -40 55 -71 26 -26 75 -51 75 -39 0 5 -8 12 -19 16 -17 5 -71 75 -71 92 0 5 -15 22 -32 39 -34 32 -54 56 -75 90 -24 40 -103 204 -109 228 -3 14 -15 43 -25 63 -18 36 -17 62 1 33 6 -8 10 -10 10 -5 0 6 -9 21 -20 35 -11 14 -20 33 -20 42 0 9 -5 20 -11 23 -5 4 -8 12 -6 18 2 7 -2 28 -10 47 -8 19 -13 35 -12 35 1 0 -15 36 -35 80 -47 99 -96 230 -96 256 0 10 -4 19 -8 19 -5 0 -14 18 -21 40 -14 49 -36 55 -25 8z"/>
 <path d="M4346 6051 c-9 -13 27 -23 77 -21 23 0 70 2 104 3 106 3 70 15 -48 16 -61 1 -115 3 -119 6 -5 3 -11 1 -14 -4z"/>
 <path d="M2150 6018 c7 -10 9 -18 4 -18 -4 0 5 -13 21 -30 16 -16 25 -30 20 -30 -5 0 1 -7 13 -16 31 -21 38 -12 12 17 -39 47 -83 94 -70 77z"/>
 <path d="M1810 6007 c0 -5 9 -20 20 -34 11 -14 20 -22 20 -17 -1 12 -39 61 -40 51z"/>
 <path d="M6157 6004 c-4 -4 -7 -17 -7 -28 1 -19 1 -20 11 -3 11 19 8 43 -4 31z"/>
 <path d="M4394 5915 c-18 -13 -17 -14 19 -15 38 0 50 13 21 24 -20 8 -17 8 -40 -9z"/>
 <path d="M6405 5910 c-10 -11 -34 -30 -52 -41 -19 -12 -32 -23 -29 -26 5 -5 58 31 89 60 10 10 17 21 14 23 -2 2 -12 -5 -22 -16z"/>
 <path d="M4260 5881 c0 -6 -8 -9 -17 -9 -10 1 -31 -2 -48 -7 -34 -9 -46 -11 -92 -13 -18 -1 -33 -7 -33 -13 0 -13 64 -8 150 12 30 7 58 12 62 11 4 -1 5 5 2 13 -7 16 -24 21 -24 6z"/>
 <path d="M4300 5880 c19 -13 30 -13 30 0 0 6 -10 10 -22 10 -19 0 -20 -2 -8 -10z"/>
 <path d="M4454 5879 c22 -14 186 -21 186 -8 0 5 -24 9 -54 9 -29 0 -75 3 -102 6 -41 4 -46 3 -30 -7z"/>
 <path d="M2257 5853 c9 -16 26 -38 37 -50 11 -13 15 -23 10 -23 -5 0 -4 -4 2 -8 5 -4 28 -36 50 -71 21 -35 47 -75 56 -90 10 -14 33 -56 53 -93 19 -36 40 -70 46 -74 6 -4 10 -3 8 2 -29 65 -64 133 -79 149 -10 11 -21 30 -25 43 -3 12 -11 22 -16 22 -5 0 -9 6 -9 13 0 7 -7 22 -15 32 -8 11 -37 55 -65 98 -27 42 -54 77 -60 77 -6 0 -3 -12 7 -27z"/>
 <path d="M6203 5797 c-102 -43 -152 -70 -77 -43 90 33 207 88 183 86 -2 -1 -50 -20 -106 -43z"/>
 <path d="M3994 5813 c-11 -2 -38 -22 -59 -43 -22 -22 -48 -40 -59 -40 -30 0 -76 -49 -76 -82 0 -15 4 -28 9 -28 5 0 9 12 9 26 0 54 18 43 31 -19 8 -34 16 -56 18 -49 3 7 0 27 -6 44 -16 47 -13 76 9 88 11 6 20 8 20 5 0 -4 22 10 49 29 27 20 63 41 80 47 54 19 37 34 -25 22z"/>
 <path d="M4566 5813 c-3 -3 -1 -12 6 -20 9 -11 7 -13 -15 -9 -15 2 -29 0 -32 -5 -4 -5 5 -9 19 -9 14 0 27 -4 30 -9 3 -5 28 -21 56 -35 51 -26 98 -29 92 -5 -2 9 3 8 16 -4 10 -9 25 -17 34 -17 8 0 22 -18 31 -42 19 -47 31 -48 18 0 -11 37 -6 42 34 34 26 -4 27 -6 10 -13 -18 -7 -18 -8 4 -8 39 -1 107 -39 142 -79 18 -20 48 -69 67 -109 37 -78 46 -87 102 -97 33 -5 33 -4 -12 17 -48 22 -61 37 -33 37 28 0 91 -38 103 -62 11 -21 12 -19 6 16 l-5 38 28 -20 c28 -20 41 -41 81 -132 20 -45 55 -84 66 -73 3 3 -4 19 -15 35 -12 16 -22 34 -23 41 -1 7 -4 17 -7 22 -4 6 -12 26 -18 46 -14 42 -32 60 -81 79 -19 7 -43 20 -52 28 -12 10 -29 13 -57 8 l-40 -6 -24 54 c-47 102 -134 174 -233 192 -21 3 -44 11 -51 16 -7 5 -49 10 -95 10 -78 0 -84 2 -105 27 l-22 28 52 -5 c29 -2 65 -10 81 -18 36 -17 46 -18 46 -1 0 9 -27 18 -82 26 -46 7 -90 17 -99 22 -9 4 -19 5 -23 2z"/>
 <path d="M4129 5779 c24 -11 46 -17 49 -14 6 6 -62 35 -80 34 -7 0 7 -9 31 -20z"/>
 <path d="M4260 5787 c0 -8 6 -14 14 -14 8 0 12 6 9 14 -3 7 -9 13 -14 13 -5 0 -9 -6 -9 -13z"/>
 <path d="M4336 5783 c-3 -7 1 -13 8 -13 8 0 16 6 19 13 3 8 -1 14 -9 14 -7 0 -15 -6 -18 -14z"/>
 <path d="M4381 5786 c-17 -20 -5 -24 62 -21 37 1 62 7 67 16 10 16 2 28 -8 13 -8 -11 -62 -13 -62 -1 0 4 -5 7 -11 7 -5 0 -7 -4 -4 -10 3 -5 -1 -10 -10 -10 -9 0 -13 5 -10 10 9 15 -11 12 -24 -4z"/>
 <path d="M3846 5759 c-27 -16 -54 -36 -61 -42 -7 -7 -23 -19 -35 -27 -29 -20 -121 -88 -128 -95 -3 -3 0 -5 6 -5 6 0 17 6 25 14 7 8 38 30 68 49 30 19 64 45 76 56 13 12 43 30 68 41 25 11 45 24 45 30 0 16 -13 12 -64 -21z"/>
 <path d="M5510 5730 c-11 -7 -12 -12 -4 -20 8 -8 14 -7 23 4 14 17 1 28 -19 16z"/>
 <path d="M6018 5720 c-20 -11 -40 -24 -43 -30 -5 -8 79 33 94 46 12 11 -19 1 -51 -16z"/>
 <path d="M4240 5725 c0 -2 23 -26 50 -53 60 -59 67 -46 8 15 -38 39 -58 52 -58 38z"/>
 <path d="M4414 5674 c-29 -14 -64 -64 -45 -64 5 0 11 6 14 14 3 7 19 23 36 35 27 20 30 20 25 4 -5 -16 -4 -16 8 -2 7 9 20 18 28 22 9 3 6 6 -10 6 -14 0 -39 -6 -56 -15z"/>
 <path d="M4840 5649 c0 -6 9 -23 20 -39 26 -37 54 -104 97 -230 19 -58 45 -127 58 -155 12 -27 25 -61 28 -75 l6 -25 -20 24 c-11 13 -18 30 -15 37 3 7 2 14 -2 16 -9 4 -42 75 -42 91 0 7 -6 23 -13 37 -7 14 -21 54 -32 90 -17 57 -63 136 -73 125 -2 -2 2 -21 9 -42 7 -21 12 -41 11 -45 -1 -5 3 -8 8 -8 6 0 10 -9 10 -19 0 -11 5 -23 10 -26 6 -3 10 -15 10 -26 0 -19 2 -26 33 -87 9 -19 17 -41 17 -50 0 -9 9 -28 20 -42 36 -45 80 -115 80 -127 0 -7 -11 -13 -25 -13 -14 0 -25 -4 -25 -9 0 -13 -92 -19 -96 -6 -2 5 -6 21 -8 35 -3 14 -5 27 -6 30 -2 3 -2 8 -1 13 0 4 -4 7 -11 7 -6 0 -8 3 -5 6 3 4 1 16 -5 27 -9 17 -7 24 12 39 12 10 27 15 33 11 6 -4 3 -9 -8 -13 -12 -4 -15 -9 -8 -13 6 -4 18 -4 27 -1 10 4 16 1 16 -8 0 -17 -20 -38 -35 -38 -5 0 -3 4 5 10 12 8 12 10 -3 16 -26 10 -32 -2 -14 -30 15 -22 21 -24 48 -16 42 12 45 17 26 38 -10 10 -17 25 -17 34 0 8 -8 22 -17 30 -15 13 -24 14 -53 4 -22 -7 -35 -18 -34 -28 1 -10 -4 -14 -13 -11 -11 4 -11 -3 3 -38 10 -24 27 -60 39 -79 11 -19 27 -47 34 -62 8 -16 21 -28 30 -28 53 1 193 29 215 43 29 19 27 26 46 -133 35 -278 73 -499 91 -530 13 -23 11 -2 -11 86 -10 45 -22 103 -25 130 -4 27 -10 76 -15 108 l-9 59 44 49 c25 28 45 55 45 61 0 6 -2 8 -4 6 -2 -2 -22 -26 -45 -52 -22 -27 -41 -41 -41 -33 0 8 13 30 29 48 16 19 37 58 47 88 9 30 23 62 30 71 19 22 19 46 0 30 -11 -9 -15 -3 -21 35 -3 25 -4 48 -1 52 3 3 6 -3 6 -14 0 -10 8 -28 17 -39 l16 -20 -8 20 c-4 11 -9 31 -11 45 -4 21 -3 22 4 6 8 -19 9 -19 14 1 4 15 -1 24 -19 32 -40 18 -45 14 -39 -31 l5 -43 -14 45 -15 45 6 -47 c5 -43 3 -47 -18 -50 -13 -2 -33 0 -45 5 -18 8 -20 15 -16 43 5 28 2 34 -12 34 -10 0 -24 8 -31 17 -16 23 -24 15 -17 -20 4 -19 10 -26 19 -23 19 7 18 -25 -1 -50 -14 -18 -14 -18 -15 6 0 30 -31 115 -48 132 -19 19 -15 -12 10 -87 15 -48 18 -69 10 -77 -15 -15 -102 -22 -132 -9 l-25 10 28 0 c39 1 107 24 107 36 0 6 -18 62 -41 125 -23 63 -43 126 -46 140 -3 14 -10 30 -15 36 -5 7 -19 39 -32 72 -20 51 -21 60 -8 53 41 -21 94 -41 105 -41 23 1 -32 38 -75 50 -32 10 -50 23 -66 49 -13 20 -22 38 -20 41 1 3 -7 20 -17 38 -19 31 -45 44 -45 21z m468 -651 c-6 -51 -48 -152 -58 -141 -4 4 -10 35 -14 68 -3 33 -8 70 -12 82 -6 22 -7 22 75 31 10 2 12 -8 9 -40z"/>
 <path d="M5790 5599 c-55 -29 -99 -53 -97 -55 2 -2 53 21 113 51 60 30 104 54 97 55 -7 0 -57 -23 -113 -51z"/>
 <path d="M4200 5628 c0 -9 5 -20 11 -23 17 -11 20 0 4 21 -13 17 -14 17 -15 2z"/>
 <path d="M4945 5590 c17 -11 37 -20 45 -20 8 1 -1 9 -20 20 -46 25 -63 25 -25 0z"/>
 <path d="M4210 5582 c0 -5 6 -17 14 -28 15 -19 15 -19 11 1 -2 11 -4 23 -4 28 -1 10 -21 9 -21 -1z"/>
 <path d="M5294 5474 c37 -37 79 -84 93 -105 14 -22 29 -39 33 -39 11 0 31 26 25 32 -3 2 6 15 20 28 14 13 25 31 25 39 -1 10 -6 6 -15 -10 -8 -15 -22 -29 -31 -33 -9 -3 -14 -13 -10 -21 13 -35 -15 -21 -47 23 -36 48 -140 152 -153 152 -3 0 24 -30 60 -66z"/>
 <path d="M5539 5523 c-17 -4 -39 -43 -39 -68 0 -27 15 -15 38 30 12 25 21 44 20 44 -2 -1 -10 -3 -19 -6z"/>
 <path d="M3710 5472 c0 -16 -6 -34 -12 -42 -11 -12 -10 -12 2 -3 11 8 18 8 27 -2 6 -7 10 -15 7 -17 -2 -3 3 -5 11 -5 17 0 20 23 5 32 -5 3 -10 17 -10 30 0 12 -7 25 -15 29 -11 4 -15 -2 -15 -22z"/>
 <path d="M3786 5454 c-4 -10 -1 -14 6 -12 15 5 23 28 10 28 -5 0 -13 -7 -16 -16z"/>
 <path d="M5535 5418 c-11 -18 -28 -46 -38 -63 -24 -39 -54 -65 -78 -65 -25 0 -30 -12 -12 -35 13 -17 15 -17 9 -2 -4 14 1 21 24 28 18 7 42 30 62 61 18 28 41 64 51 79 11 16 15 29 10 29 -4 0 -17 -15 -28 -32z"/>
 <path d="M5056 5402 c-2 -4 -1 -14 3 -21 6 -9 10 -7 14 8 5 20 -7 29 -17 13z"/>
 <path d="M3650 5365 c-10 -12 -10 -15 3 -15 19 0 31 16 18 24 -5 3 -14 -1 -21 -9z"/>
 <path d="M3763 5298 c38 -91 51 -117 57 -113 9 6 22 -23 15 -34 -2 -4 1 -8 8 -8 7 0 20 -4 30 -8 14 -6 13 -3 -5 18 -12 13 -32 51 -44 83 -14 39 -28 60 -44 66 -16 6 -21 5 -17 -4z"/>
 <path d="M5180 5285 c0 -16 97 -47 106 -34 3 5 2 9 -3 8 -4 -1 -15 0 -23 4 -37 14 -80 26 -80 22z"/>
 <path d="M3256 5271 c-11 -18 -170 -118 -208 -132 -21 -7 -38 -17 -38 -22 0 -4 3 -7 8 -5 4 2 18 9 32 15 108 46 135 62 176 100 25 25 44 47 41 49 -3 3 -8 1 -11 -5z"/>
 <path d="M3990 5253 c0 -10 38 -73 44 -73 2 0 -5 18 -16 40 -19 38 -28 49 -28 33z"/>
 <path d="M4260 5236 c0 -8 65 -71 75 -72 27 -4 55 -17 55 -26 0 -5 6 -8 13 -5 13 4 37 -43 37 -75 0 -11 5 -18 13 -15 7 2 11 16 9 33 -4 35 -32 85 -44 78 -15 -9 -97 36 -103 57 -4 11 -11 17 -16 14 -5 -4 -9 -1 -9 4 0 6 -7 11 -15 11 -8 0 -15 -2 -15 -4z"/>
 <path d="M5198 5228 c15 -15 52 -21 52 -9 0 10 -24 21 -48 21 -12 0 -13 -3 -4 -12z"/>
 <path d="M4171 5219 c-13 -5 -21 -12 -18 -15 3 -3 14 -1 25 5 13 7 22 7 31 -2 8 -8 15 -7 28 6 16 16 16 17 -12 16 -17 0 -41 -5 -54 -10z"/>
 <path d="M3292 5173 c-43 -67 -89 -171 -96 -218 -5 -27 3 -14 22 40 30 85 52 130 91 183 13 18 21 35 18 38 -2 3 -18 -17 -35 -43z"/>
 <path d="M5255 5176 c-37 -38 -40 -44 -34 -81 l6 -40 3 40 3 40 7 -40 7 -40 2 42 c1 32 6 43 20 48 17 5 40 60 29 70 -1 1 -21 -16 -43 -39z"/>
 <path d="M5315 5201 c-8 -13 46 -49 80 -54 15 -2 34 -12 41 -22 8 -10 14 -14 14 -8 0 7 -7 18 -15 27 -8 8 -15 20 -15 26 0 6 -4 8 -10 5 -5 -3 -27 3 -49 15 -22 11 -42 16 -46 11z"/>
 <path d="M4110 5180 l-25 -20 32 11 c18 6 30 15 27 20 -7 11 -5 12 -34 -11z"/>
 <path d="M4220 5175 c0 -16 25 -55 36 -55 22 0 23 14 4 38 -16 19 -40 30 -40 17z"/>
 <path d="M4110 5140 c0 -40 202 -171 271 -175 37 -2 38 13 2 21 -37 8 -160 71 -189 97 -17 15 -21 24 -13 33 8 9 6 11 -9 8 -10 -3 -24 2 -31 10 -15 18 -31 21 -31 6z"/>
 <path d="M4661 5131 c-22 -12 -30 -21 -22 -25 7 -4 22 -1 35 8 22 14 36 12 36 -4 0 -3 -14 -14 -31 -24 -39 -23 -31 -33 10 -12 18 10 32 12 36 6 3 -5 -10 -16 -30 -24 -19 -8 -35 -20 -35 -26 0 -6 13 -5 36 5 42 17 45 18 42 8 -5 -14 25 -78 42 -90 13 -11 13 -13 -2 -27 -10 -9 -13 -11 -8 -4 18 22 11 32 -10 13 -11 -10 -17 -21 -15 -25 5 -8 -22 -35 -45 -43 -11 -4 -10 -6 4 -6 24 -1 82 35 90 55 5 14 8 14 22 -1 13 -13 14 -18 3 -31 -21 -26 -65 -43 -93 -38 -29 5 -100 46 -111 64 -3 6 -25 20 -47 31 -22 11 -43 29 -45 40 -4 15 -9 17 -19 8 -16 -13 -57 -2 -48 13 4 6 -2 5 -15 -2 -18 -9 -21 -30 -5 -30 3 0 2 5 -1 10 -10 16 12 12 29 -5 9 -9 37 -25 63 -37 27 -11 69 -40 95 -64 25 -24 58 -46 73 -50 38 -10 105 2 124 21 15 16 14 17 -9 5 l-25 -12 27 28 c22 22 30 26 40 16 7 -7 16 -12 21 -12 5 0 -12 23 -38 52 -25 28 -64 88 -86 132 -22 45 -44 84 -47 88 -4 3 -22 -2 -41 -11z"/>
 <path d="M4826 5115 c18 -43 73 -129 80 -122 5 4 -54 108 -80 142 -14 17 -14 15 0 -20z"/>
 <path d="M4077 5110 c9 -33 93 -100 166 -133 72 -32 85 -50 16 -23 -36 15 -41 15 -30 2 11 -13 8 -15 -23 -14 -19 1 -43 -5 -52 -13 -15 -12 -16 -12 -9 10 l7 24 -31 -23 c-18 -12 -53 -33 -79 -47 l-47 -24 35 30 c45 39 21 41 -45 5 -39 -22 -55 -26 -98 -21 -75 7 -100 22 -133 78 -20 35 -34 49 -51 49 -24 0 -39 -15 -24 -24 5 -4 11 -1 13 6 5 13 63 -45 73 -72 6 -15 86 -80 100 -80 4 0 5 7 1 15 -3 9 0 15 10 15 12 0 15 -6 11 -21 -5 -20 -3 -21 46 -17 30 3 84 20 127 40 41 19 98 40 125 47 54 14 146 18 164 7 6 -4 21 0 33 8 22 16 22 16 -10 16 -50 0 -188 74 -243 131 -53 55 -60 58 -52 29z m-92 -240 c10 -16 -41 -31 -67 -20 -21 8 -20 9 9 9 17 1 35 6 38 11 8 13 12 13 20 0z"/>
 <path d="M5262 5100 c0 -19 2 -27 5 -17 2 9 2 25 0 35 -3 9 -5 1 -5 -18z"/>
 <path d="M5391 5107 c-7 -13 -11 -43 -8 -68 l4 -44 1 46 c1 27 8 52 17 59 16 14 20 30 7 30 -5 0 -14 -10 -21 -23z"/>
 <path d="M4267 5113 c-12 -11 -8 -23 8 -23 8 0 14 -6 13 -12 -2 -7 5 -12 15 -11 14 1 17 -4 14 -17 -4 -16 -1 -17 19 -10 18 7 26 5 33 -8 9 -16 11 -16 28 2 17 17 17 18 1 13 -11 -4 -28 3 -44 18 -15 14 -33 25 -39 25 -7 0 -15 7 -19 15 -6 16 -18 19 -29 8z"/>
 <path d="M4760 5092 c-1 -38 122 -212 150 -212 19 0 17 16 -8 46 -62 76 -72 92 -65 110 5 13 3 16 -10 11 -17 -6 -24 -1 -52 38 -9 12 -14 15 -15 7z"/>
 <path d="M1620 5070 c9 -5 28 -7 43 -6 15 2 30 -1 33 -5 3 -5 10 -9 15 -9 6 0 7 5 4 10 -4 7 3 8 22 4 37 -9 42 -14 13 -14 -29 0 -24 -5 14 -14 24 -6 27 -4 22 9 -3 9 -2 13 4 10 6 -3 10 -13 10 -21 0 -8 7 -14 15 -14 8 0 15 5 15 10 0 6 9 10 21 10 11 0 18 -4 15 -9 -8 -13 65 -24 92 -14 l23 9 -23 11 c-56 26 -381 58 -338 33z"/>
 <path d="M4719 5025 c-1 -3 -2 -9 -3 -15 0 -5 -10 -16 -21 -24 -11 -8 -17 -17 -14 -21 4 -3 20 5 35 19 16 14 23 26 16 26 -7 0 -10 5 -7 10 3 6 4 10 1 10 -3 0 -7 -2 -7 -5z"/>
 <path d="M1740 5006 c0 -2 30 -11 68 -20 78 -18 172 -26 172 -14 0 4 -24 8 -52 8 -29 1 -80 7 -113 15 -64 16 -75 17 -75 11z"/>
 <path d="M5120 4992 c-8 -2 -23 -11 -32 -20 -13 -10 -29 -13 -57 -8 -47 7 -61 -6 -25 -23 40 -18 72 -13 106 18 33 29 36 43 8 33z"/>
 <path d="M2360 4980 c-12 -8 -12 -10 5 -9 11 0 29 4 40 9 18 8 18 9 -5 9 -14 0 -32 -4 -40 -9z"/>
 <path d="M4730 4975 c-9 -11 -9 -15 -1 -15 7 0 9 -5 6 -10 -4 -6 -12 -7 -18 -4 -7 4 -9 3 -4 -1 4 -5 0 -16 -9 -26 -15 -16 -14 -17 4 -12 12 3 29 14 38 25 15 15 16 21 5 27 -8 5 -10 14 -7 20 10 16 0 13 -14 -4z"/>
 <path d="M3994 4965 c11 -8 29 -15 40 -15 18 0 16 3 -8 15 -36 19 -57 19 -32 0z"/>
 <path d="M4925 4956 c17 -26 39 -39 49 -29 5 5 -51 53 -61 53 -2 0 4 -11 12 -24z"/>
 <path d="M3641 4937 c-8 -11 -4 -13 22 -13 17 0 46 -3 62 -7 17 -4 23 -4 15 0 -8 3 -21 12 -28 20 -17 17 -56 17 -71 0z"/>
 <path d="M5343 4895 c-6 -14 -8 -25 -4 -25 12 0 31 23 31 37 0 21 -14 15 -27 -12z"/>
 <path d="M4772 4879 c-18 -16 -28 -29 -23 -29 14 0 67 47 61 53 -3 3 -20 -8 -38 -24z"/>
 <path d="M4535 4829 c-11 -17 -2 -18 19 -3 17 12 17 14 4 14 -9 0 -20 -5 -23 -11z"/>
 <path d="M4460 4815 c0 -13 4 -14 20 -5 11 6 20 13 20 15 0 3 -9 5 -20 5 -11 0 -20 -7 -20 -15z"/>
 <path d="M2708 4813 c23 -2 59 -2 80 0 20 2 1 4 -43 4 -44 0 -61 -2 -37 -4z"/>
 <path d="M2507 4799 c7 -7 24 -8 54 -1 l44 10 -54 1 c-40 1 -52 -2 -44 -10z"/>
 <path d="M3310 4753 c0 -69 18 -61 25 10 4 37 2 47 -10 47 -12 0 -15 -13 -15 -57z"/>
 <path d="M2388 4793 c12 -2 32 -2 45 0 12 2 2 4 -23 4 -25 0 -35 -2 -22 -4z"/>
 <path d="M3140 4784 c0 -17 32 -35 52 -28 20 6 19 7 -11 20 -37 16 -41 16 -41 8z"/>
 <path d="M4460 4781 c0 -12 28 -22 35 -12 3 5 -2 12 -11 15 -21 8 -24 8 -24 -3z"/>
 <path d="M4267 4753 c-12 -11 -8 -23 8 -23 8 0 15 7 15 15 0 16 -12 20 -23 8z"/>
 <path d="M4582 4688 c6 -16 48 -23 48 -8 0 6 -4 9 -9 5 -5 -3 -12 -1 -16 5 -9 14 -27 12 -23 -2z"/>
 <path d="M4754 4555 c-7 -18 4 -37 17 -29 6 3 5 12 -3 22 -10 12 -10 14 0 8 6 -4 12 -2 12 3 0 16 -20 13 -26 -4z"/>
 <path d="M3563 4525 c3 -11 8 -31 12 -45 16 -67 29 -99 41 -104 20 -8 17 9 -12 83 -26 65 -52 107 -41 66z"/>
 <path d="M3460 4473 c0 -31 24 -73 41 -73 21 0 26 -16 7 -23 -7 -3 -4 -6 6 -6 11 -1 16 -4 13 -8 -9 -8 42 -63 59 -63 6 0 32 -12 58 -26 25 -14 46 -23 46 -20 0 19 -54 109 -58 97 -2 -7 2 -17 9 -22 10 -6 6 -9 -14 -9 -17 0 -38 10 -53 25 -14 14 -29 25 -34 25 -15 0 -12 20 3 20 7 1 4 6 -6 15 -11 7 -25 11 -32 8 -11 -4 -13 3 -8 31 3 21 1 36 -4 36 -6 0 -9 -12 -7 -27 2 -17 1 -20 -2 -8 -7 24 -24 44 -24 28z"/>
 <path d="M5000 4440 c-6 -12 -16 -17 -27 -13 -11 4 -14 2 -11 -8 6 -18 -33 -39 -50 -26 -9 7 -9 13 -1 23 7 9 7 14 1 14 -5 0 -15 -7 -22 -15 -7 -9 -19 -14 -26 -11 -7 3 -16 1 -19 -4 -3 -5 -18 -5 -34 0 -20 5 -35 4 -46 -4 -13 -9 -8 -11 27 -11 24 0 49 4 56 8 7 5 12 3 12 -6 0 -11 12 -14 47 -13 41 1 52 -3 76 -29 15 -16 26 -23 25 -15 -2 8 3 15 10 16 6 1 17 2 22 3 19 2 10 21 -9 21 -11 0 -23 -4 -26 -10 -3 -5 -11 -10 -17 -10 -14 0 -1 48 23 82 11 15 16 28 10 28 -6 0 -15 -9 -21 -20z"/>
 <path d="M4809 4437 c6 -8 8 -17 4 -20 -3 -4 2 -7 11 -7 12 0 16 5 12 16 -3 9 -6 18 -6 20 0 2 -7 4 -16 4 -13 0 -14 -3 -5 -13z"/>
 <path d="M5057 4369 c17 -29 50 -44 56 -26 2 6 9 7 16 2 11 -6 10 -10 -3 -17 -9 -5 -16 -17 -15 -26 0 -9 3 -12 5 -6 3 6 18 10 35 8 18 -2 28 0 24 6 -3 6 -1 10 4 10 6 0 11 -4 11 -10 0 -5 3 -9 8 -9 18 3 48 -2 62 -11 12 -7 12 -12 3 -21 -10 -10 -14 -9 -19 4 -7 20 -25 21 -95 6 -36 -8 -47 -14 -38 -20 11 -7 11 -9 1 -9 -7 0 -11 -4 -8 -9 8 -12 -54 -40 -73 -33 -9 3 -19 10 -23 16 -4 6 -8 0 -8 -13 0 -22 3 -23 40 -18 27 3 38 2 33 -5 -3 -7 -1 -8 5 -4 7 4 12 14 12 22 0 8 7 14 16 14 9 0 12 -5 8 -12 -4 -7 -3 -8 5 -4 6 4 9 12 5 17 -3 6 3 19 14 30 13 11 23 15 27 9 3 -6 -1 -13 -9 -16 -11 -4 -14 -13 -10 -31 4 -15 2 -28 -5 -32 -8 -5 -7 -16 5 -39 8 -18 19 -30 24 -27 5 3 2 17 -5 32 -10 19 -11 31 -4 40 6 6 8 16 5 21 -7 12 18 34 34 30 7 -2 15 3 18 11 3 10 -1 13 -17 8 -14 -3 -21 0 -21 9 0 16 45 20 55 4 3 -5 -2 -21 -11 -35 -12 -19 -22 -24 -38 -20 -15 5 -17 4 -8 -3 15 -10 15 -18 0 -45 -8 -16 -7 -17 10 -8 10 5 25 18 33 28 13 16 12 17 -3 4 -30 -23 -19 2 14 34 18 17 26 22 19 13 -7 -9 -10 -22 -6 -28 4 -6 -1 -21 -12 -32 -12 -15 -13 -19 -3 -14 8 4 3 -4 -12 -18 -16 -14 -28 -30 -28 -37 0 -8 7 -6 19 5 19 17 19 16 11 -19 -7 -30 -6 -34 6 -24 14 11 20 2 15 -25 -1 -5 5 -6 14 -2 9 3 19 6 21 6 2 0 4 7 4 15 0 18 -16 20 -23 3 -3 -7 -6 -3 -6 10 -1 12 5 22 12 22 9 0 9 2 0 8 -8 5 -8 12 3 26 13 19 14 19 15 -5 1 -13 1 -27 0 -31 0 -5 3 -8 9 -8 5 0 7 -7 4 -15 -4 -8 -4 -15 0 -15 9 0 36 57 36 76 0 14 -3 14 -15 4 -9 -7 -13 -20 -10 -29 5 -12 3 -13 -5 -5 -18 18 6 67 30 61 11 -3 20 0 20 6 0 6 2 8 4 6 3 -3 1 -21 -3 -42 -5 -21 -5 -37 0 -37 5 0 9 -5 9 -11 0 -5 -4 -8 -9 -5 -4 3 -18 -5 -30 -18 -24 -25 -14 -42 24 -41 11 0 25 -4 31 -10 19 -16 5 -32 -24 -29 -26 4 -25 3 3 -6 33 -11 60 -6 50 10 -3 5 -8 37 -11 72 -4 66 -10 80 -23 59 -5 -8 -8 2 -7 25 1 37 -1 39 -27 37 -26 -2 -28 0 -23 22 3 13 1 27 -4 30 -8 5 -8 11 -1 19 10 12 5 26 -10 26 -10 0 -17 -59 -8 -62 12 -4 -14 -51 -31 -56 -12 -4 -13 -2 -4 9 6 8 12 21 13 29 5 60 9 83 18 88 21 15 9 51 -20 62 -23 7 -28 14 -24 30 3 11 1 20 -4 20 -14 0 -10 -43 6 -64 7 -10 18 -15 24 -11 6 3 11 1 11 -4 0 -25 -37 -8 -61 27 -26 40 -54 55 -45 25 3 -10 1 -25 -4 -33 -7 -12 -12 -7 -24 20 -8 19 -15 29 -16 23 0 -14 -40 -18 -40 -4 0 5 -11 11 -25 13 -24 5 -24 5 -8 -23z m325 -303 c2 -22 0 -32 -7 -29 -6 2 -9 17 -7 33 6 39 9 38 14 -4z"/>
 <path d="M4660 4371 c0 -5 -10 -11 -22 -13 -12 -2 -23 -9 -26 -16 -3 -10 3 -10 27 2 26 14 42 36 26 36 -3 0 -5 -4 -5 -9z"/>
 <path d="M4439 4321 c-9 -9 -19 -22 -23 -29 -7 -11 -4 -11 13 0 18 11 36 37 29 43 -2 1 -10 -5 -19 -14z"/>
 <path d="M4556 4315 c-20 -30 -16 -31 13 -6 12 11 18 22 13 25 -6 3 -17 -5 -26 -19z"/>
 <path d="M5054 4299 c-11 -23 -12 -29 -2 -23 7 5 16 9 20 9 12 0 21 15 9 15 -8 0 -11 7 -7 15 10 27 -3 16 -20 -16z"/>
 <path d="M4450 4277 c0 -8 -11 -20 -25 -27 -14 -7 -25 -19 -25 -27 0 -20 10 -16 38 15 14 15 27 26 29 25 2 -2 11 -3 20 -3 15 0 14 2 -3 15 -24 18 -34 19 -34 2z"/>
 <path d="M4365 4230 c3 -24 2 -39 -4 -36 -5 3 -11 0 -14 -8 -3 -8 0 -17 8 -20 8 -3 17 6 24 25 7 19 7 29 0 29 -6 0 -8 9 -4 19 3 11 1 22 -5 26 -6 4 -8 -8 -5 -35z"/>
 <path d="M5051 4246 c-13 -7 -19 -16 -13 -20 5 -3 21 3 33 14 27 22 16 26 -20 6z"/>
 <path d="M5326 4214 c-8 -20 -4 -25 11 -16 7 4 9 13 4 21 -6 10 -10 9 -15 -5z"/>
 <path d="M3701 4208 c-1 -3 15 -44 35 -90 20 -45 47 -112 59 -148 13 -36 24 -58 24 -50 0 14 -17 65 -48 145 -18 45 -70 151 -70 143z"/>
 <path d="M4985 4170 c-3 -5 -1 -10 4 -10 6 0 11 -7 11 -15 0 -8 -4 -15 -10 -15 -5 0 -10 -8 -9 -17 0 -13 2 -14 6 -4 5 11 7 11 14 0 7 -11 9 -9 10 6 1 11 1 26 0 33 -1 6 3 12 9 12 6 0 8 5 5 10 -3 6 -12 10 -20 10 -8 0 -17 -4 -20 -10z"/>
 <path d="M5054 4148 c-10 -12 -13 -18 -6 -14 7 4 12 2 12 -6 0 -8 5 -6 11 5 6 10 20 22 32 27 21 8 21 9 -4 9 -15 1 -34 -8 -45 -21z"/>
 <path d="M4314 4145 c3 -8 -2 -19 -12 -24 -9 -6 -13 -11 -8 -11 5 0 -2 -9 -14 -20 -13 -12 -25 -27 -26 -35 -2 -13 3 -12 27 2 16 10 29 25 29 35 0 9 5 20 11 23 6 4 8 14 5 22 -3 8 -2 11 3 8 5 -3 12 -1 16 5 3 6 -3 10 -15 10 -15 0 -20 -5 -16 -15z"/>
 <path d="M4947 4144 c4 -12 3 -15 -5 -10 -8 5 -10 2 -6 -8 3 -9 10 -16 15 -16 12 0 11 37 -1 45 -6 4 -7 -1 -3 -11z"/>
 <path d="M5101 4131 c-13 -11 -28 -22 -34 -24 -7 -2 -8 -8 -4 -13 4 -5 12 -2 16 5 5 7 14 10 20 7 6 -4 9 -12 6 -17 -4 -5 -1 -9 4 -9 14 0 14 17 0 25 -6 5 -4 12 8 20 10 7 15 16 12 19 -3 3 -16 -3 -28 -13z"/>
 <path d="M5417 4137 c-2 -7 0 -21 5 -32 8 -19 8 -19 4 2 -3 15 0 20 10 16 8 -3 14 -1 14 5 0 15 -28 23 -33 9z"/>
 <path d="M4720 4105 c-10 -12 -10 -15 4 -15 9 0 16 7 16 15 0 8 -2 15 -4 15 -2 0 -9 -7 -16 -15z"/>
 <path d="M4206 4094 c-6 -16 2 -18 22 -5 11 7 11 9 -1 14 -9 3 -18 -1 -21 -9z"/>
 <path d="M4897 4078 c-8 -29 -4 -32 11 -8 6 10 8 21 3 24 -5 3 -11 -4 -14 -16z"/>
 <path d="M4949 4061 c-13 -14 -14 -21 -4 -34 7 -10 18 -17 25 -17 9 0 8 5 -3 18 -20 22 -13 32 22 33 24 0 24 1 6 9 -26 11 -27 11 -46 -9z"/>
 <path d="M5460 4066 c0 -11 -5 -16 -14 -13 -8 3 -18 -5 -25 -19 -14 -32 -14 -35 4 -28 11 5 14 1 9 -12 -5 -16 -4 -16 5 -4 6 8 8 24 5 35 -4 15 -3 16 4 6 11 -15 36 -6 27 10 -4 5 -1 9 4 9 12 0 14 -11 5 -34 -3 -9 -10 -14 -14 -11 -4 3 -11 -6 -14 -19 -6 -23 -39 -43 -61 -37 -5 1 -7 -1 -2 -5 10 -11 47 -13 41 -2 -3 4 2 8 11 8 8 0 18 7 22 16 5 13 7 13 14 2 7 -10 9 -10 10 2 3 50 19 80 19 36 0 -15 4 -25 9 -22 13 8 1 48 -20 69 -11 10 -19 14 -19 10 0 -4 -5 -1 -10 7 -8 13 -10 12 -10 -4z"/>
 <path d="M4205 4050 c1 -8 -4 -26 -10 -40 -14 -28 -5 -74 10 -51 4 8 2 17 -6 22 -14 8 -5 14 16 9 6 -1 7 2 2 6 -4 4 0 18 8 30 12 19 13 22 1 18 -8 -3 -16 0 -19 8 -2 8 -3 8 -2 -2z"/>
 <path d="M4830 4049 c0 -18 2 -19 15 -9 15 12 12 30 -6 30 -5 0 -9 -10 -9 -21z"/>
 <path d="M4910 4036 c0 -7 -11 -25 -25 -40 -26 -28 -32 -46 -15 -46 6 0 10 10 10 21 0 18 2 19 15 9 8 -7 15 -9 16 -4 0 5 2 24 5 42 2 17 2 32 -1 32 -3 0 -5 -6 -5 -14z"/>
 <path d="M4160 4021 c0 -5 -7 -17 -16 -25 -16 -16 -8 -22 12 -8 15 10 25 42 14 42 -6 0 -10 -4 -10 -9z"/>
 <path d="M5541 4003 c-1 -27 8 -53 21 -53 5 0 6 5 3 10 -3 6 -2 10 4 10 5 0 12 -5 14 -10 3 -6 4 -5 3 2 -2 7 -9 13 -17 13 -8 0 -17 11 -20 25 -6 23 -7 23 -8 3z"/>
 <path d="M4566 3988 c-15 -21 -13 -43 3 -33 8 4 22 55 15 55 -1 0 -10 -10 -18 -22z"/>
 <path d="M4781 4000 c-1 -21 16 -46 26 -37 4 5 3 11 -3 15 -6 4 -14 14 -17 22 -5 13 -5 13 -6 0z"/>
 <path d="M5270 4000 c0 -12 8 -12 35 0 18 8 17 9 -7 9 -16 1 -28 -3 -28 -9z"/>
 <path d="M4830 3983 c0 -7 4 -13 9 -13 5 0 11 6 14 13 3 8 -1 14 -9 14 -8 0 -14 -6 -14 -14z"/>
 <path d="M4943 3988 c-23 -30 -24 -38 -5 -38 15 0 19 5 15 20 -3 11 0 20 6 20 6 0 11 -5 11 -11 0 -5 5 -7 11 -3 8 4 7 9 -2 15 -19 12 -25 11 -36 -3z"/>
 <path d="M4654 3965 c4 -24 16 -30 16 -7 0 12 -4 22 -9 22 -5 0 -8 -7 -7 -15z"/>
 <path d="M5514 3963 c-6 -2 -9 -15 -6 -31 l5 -27 8 29 c9 33 9 35 -7 29z"/>
 <path d="M4125 3946 c15 -11 14 -13 -10 -24 -15 -7 -25 -15 -22 -18 6 -7 69 29 71 40 0 5 -12 10 -28 12 -25 2 -26 1 -11 -10z"/>
 <path d="M4884 3936 c-10 -8 -16 -17 -13 -20 3 -3 14 3 24 14 21 23 17 26 -11 6z"/>
 <path d="M5537 3933 c-9 -9 -9 -33 1 -32 21 4 31 -3 26 -16 -4 -8 -1 -15 5 -15 6 0 11 -6 11 -14 0 -8 9 -18 20 -21 11 -4 18 -11 14 -16 -3 -6 5 -20 18 -33 12 -12 30 -34 38 -48 65 -111 95 -156 102 -152 4 3 8 -2 8 -10 0 -9 4 -16 9 -16 12 0 31 -56 31 -91 0 -39 17 -45 25 -9 9 40 -1 82 -25 108 -25 26 -26 41 -2 19 27 -24 43 0 26 41 -15 37 -24 39 -49 12 -10 -11 -23 -20 -29 -20 -14 0 -46 72 -46 105 0 14 -4 25 -10 25 -5 0 -9 3 -9 8 3 18 -2 32 -11 32 -13 0 -1 -52 14 -62 7 -5 4 -8 -6 -8 -10 0 -18 3 -19 8 0 4 -2 20 -4 36 -7 49 7 62 59 58 36 -3 55 -12 81 -37 20 -18 35 -42 35 -55 0 -13 11 -46 24 -74 13 -28 26 -69 30 -91 8 -53 16 -215 10 -215 -3 0 -16 7 -29 16 -14 9 -25 12 -25 8 1 -15 24 -49 35 -51 6 -1 27 -4 48 -8 33 -7 37 -5 37 14 0 12 -11 44 -24 71 -14 28 -27 65 -31 83 -5 25 3 16 34 -38 22 -38 40 -75 41 -82 0 -6 4 -14 9 -17 10 -7 2 33 -10 49 -25 33 -81 155 -85 185 -3 19 -15 58 -28 85 -13 28 -27 63 -30 78 -13 56 -61 87 -141 92 -46 3 -55 1 -60 -16 -7 -20 -25 -27 -25 -9 0 6 5 10 10 10 19 0 10 18 -11 23 -15 4 -20 11 -16 21 4 10 1 16 -9 16 -8 0 -12 4 -9 10 14 22 -40 62 -58 43z m427 -584 c-5 -9 -34 -13 -34 -5 0 2 3 12 6 20 5 13 9 14 20 5 8 -6 11 -15 8 -20z"/>
 <path d="M4675 3910 c-3 -5 3 -10 14 -10 12 0 21 5 21 10 0 6 -6 10 -14 10 -8 0 -18 -4 -21 -10z"/>
 <path d="M5441 3903 c-1 -12 4 -25 9 -28 12 -7 12 2 0 30 -8 19 -9 19 -9 -2z"/>
 <path d="M3823 3870 c4 -14 7 -33 7 -42 0 -10 4 -18 9 -18 10 0 -3 67 -15 78 -4 4 -4 -4 -1 -18z"/>
 <path d="M4079 3873 c-1 -10 -2 -25 -3 -33 0 -8 -9 -14 -18 -12 -10 2 -18 -2 -18 -8 0 -5 5 -10 12 -10 6 0 3 -9 -7 -20 -10 -11 -14 -20 -10 -20 4 0 0 -9 -10 -20 -10 -11 -15 -23 -12 -27 4 -4 14 2 22 13 15 19 15 19 8 0 -4 -14 -3 -17 6 -12 6 4 9 16 6 26 -7 23 12 63 26 55 5 -4 9 7 9 24 0 16 3 36 6 45 3 9 1 16 -5 16 -6 0 -12 -8 -12 -17z"/>
 <path d="M5530 3881 c0 -4 -13 -7 -30 -5 -22 3 -30 -1 -30 -12 0 -11 5 -14 18 -9 9 4 24 8 31 9 14 3 29 26 17 26 -3 0 -6 -4 -6 -9z"/>
 <path d="M4932 3783 c4 -21 33 -25 33 -3 0 8 -8 16 -18 18 -14 3 -18 -1 -15 -15z"/>
 <path d="M4580 3781 c0 -5 16 -11 35 -13 36 -4 47 5 19 16 -23 9 -54 7 -54 -3z"/>
 <path d="M4663 3767 c2 -6 30 -13 63 -15 32 -2 62 -9 66 -15 5 -8 8 -7 8 4 0 13 8 15 45 9 32 -5 48 -3 56 7 13 14 0 17 -56 14 -73 -4 -132 -3 -158 2 -19 4 -27 2 -24 -6z"/>
 <path d="M5766 3741 c-7 -11 22 -37 51 -45 17 -6 22 -4 18 6 -8 19 -62 50 -69 39z"/>
 <path d="M5394 3719 c0 -11 3 -19 7 -19 19 0 38 -108 26 -146 -5 -14 -3 -21 6 -21 9 0 12 7 10 17 -3 10 2 20 11 23 9 4 16 3 16 -1 0 -4 10 -18 23 -32 12 -14 38 -57 57 -95 32 -65 35 -77 34 -158 0 -54 3 -82 8 -73 15 26 11 158 -5 203 -9 23 -38 72 -64 110 -45 62 -103 171 -103 192 0 5 -6 11 -13 14 -8 3 -13 -3 -13 -14z"/>
 <path d="M4260 3719 c0 -11 21 -11 39 0 9 6 5 9 -13 9 -14 0 -26 -4 -26 -9z"/>
 <path d="M3984 3695 c4 -11 -1 -15 -17 -15 -16 0 -18 -3 -8 -9 11 -7 10 -13 -3 -34 -14 -21 -15 -25 -2 -30 16 -6 30 18 27 46 -2 15 8 21 29 19 3 0 6 8 6 19 0 12 -7 19 -19 19 -13 0 -17 -5 -13 -15z"/>
 <path d="M5742 3696 c1 -10 8 -17 13 -17 15 1 12 24 -3 29 -9 3 -13 -2 -10 -12z"/>
 <path d="M5076 3684 c-5 -13 -4 -14 7 -6 8 7 17 9 20 5 4 -3 7 -1 7 5 0 18 -27 14 -34 -4z"/>
 <path d="M4220 3666 c0 -12 9 -16 33 -15 21 1 25 3 12 6 -11 3 -26 10 -32 15 -10 8 -13 6 -13 -6z"/>
 <path d="M5542 3634 c1 -9 9 -19 16 -22 9 -3 13 2 10 14 -1 9 -9 19 -16 22 -9 3 -13 -2 -10 -14z"/>
 <path d="M3883 3594 c-28 -32 -29 -38 -4 -22 11 7 22 20 24 30 6 23 6 23 -20 -8z"/>
 <path d="M5038 3609 c-14 -9 20 -25 52 -24 14 0 26 7 28 16 2 12 -6 15 -33 15 -20 -1 -41 -4 -47 -7z"/>
 <path d="M3928 3593 c6 -2 12 -9 12 -14 0 -6 -4 -8 -9 -4 -6 3 -13 -15 -16 -40 -4 -25 -12 -45 -19 -45 -8 0 -8 -2 0 -8 7 -4 10 -18 9 -32 -1 -14 -3 -33 -4 -43 -1 -12 -5 -16 -13 -11 -8 5 -7 1 2 -10 9 -12 15 -47 17 -100 2 -44 10 -116 18 -158 9 -42 15 -80 14 -85 -1 -4 0 -15 3 -23 20 -59 28 -90 28 -113 0 -14 5 -29 11 -33 6 -3 8 -16 5 -28 -7 -25 14 -168 27 -177 4 -3 7 -10 6 -15 -4 -22 2 -54 10 -54 5 0 5 20 0 46 -5 25 -6 50 -3 55 3 5 1 9 -4 9 -5 0 -7 12 -4 26 3 15 1 24 -4 21 -5 -3 -9 18 -9 46 0 79 -14 182 -25 185 -14 5 -12 32 3 32 8 0 8 3 1 8 -23 16 -41 92 -22 92 6 0 4 8 -5 18 -18 20 -24 98 -7 87 6 -3 10 -2 10 4 0 5 -4 11 -10 13 -9 3 -17 33 -19 66 -1 7 -5 10 -11 7 -5 -3 -10 -1 -10 4 0 6 7 11 15 11 9 0 12 6 9 15 -4 8 -1 15 5 15 6 0 11 5 11 11 0 5 -4 8 -9 4 -15 -9 -23 13 -16 45 4 18 11 27 18 23 6 -3 3 4 -6 18 -21 29 -22 43 -2 35 18 -6 19 -1 5 24 -7 13 -6 22 3 32 7 7 15 17 16 22 3 10 -19 26 -34 25 -5 0 -4 -3 3 -6z"/>
 <path d="M4033 3571 c-7 -10 -9 -22 -6 -25 12 -12 19 -6 21 19 2 30 0 31 -15 6z"/>
 <path d="M4170 3575 c7 -8 17 -15 22 -15 6 0 5 7 -2 15 -7 8 -17 15 -22 15 -6 0 -5 -7 2 -15z"/>
 <path d="M5155 3572 c-16 -9 -36 -25 -43 -34 -7 -10 -29 -20 -50 -23 -20 -4 -48 -12 -62 -20 -25 -13 -104 -32 -106 -24 0 2 -7 -1 -15 -8 -21 -17 -131 -33 -146 -21 -7 6 -14 5 -18 -2 -4 -6 -14 -9 -22 -6 -8 4 -30 -3 -47 -14 -33 -20 -130 -118 -133 -134 -1 -5 -6 -12 -12 -15 -6 -4 -13 -23 -16 -41 l-5 -35 12 31 c24 57 58 76 58 32 0 -10 5 -18 10 -18 13 0 13 16 0 40 -5 10 -7 26 -4 35 6 13 18 15 80 11 45 -3 74 -2 74 4 0 6 7 10 15 10 8 0 15 -7 15 -16 0 -15 2 -15 25 0 22 15 25 15 33 0 7 -13 13 -14 30 -5 11 6 31 11 44 11 13 0 41 9 63 20 22 11 47 20 56 20 9 0 38 10 65 21 36 16 52 19 65 11 13 -8 19 -6 27 11 28 59 20 75 -18 35 -11 -12 -22 -19 -26 -16 -3 3 -63 -14 -132 -39 -125 -44 -203 -56 -225 -34 -7 7 -21 4 -42 -9 -21 -13 -35 -16 -45 -10 -8 6 -25 10 -37 10 -13 0 -23 3 -23 6 0 7 51 49 60 49 3 0 10 3 15 7 6 3 22 6 37 6 14 0 57 3 95 8 37 4 75 8 83 9 26 1 104 28 120 40 8 7 24 11 35 9 29 -5 71 11 102 40 33 30 65 35 57 9 -5 -16 -4 -16 9 0 30 37 62 3 84 -90 3 -13 12 -23 20 -23 9 0 13 6 10 14 -3 8 -1 17 6 20 8 3 7 9 -5 19 -10 8 -18 22 -18 31 0 10 -4 14 -10 11 -5 -3 -10 -1 -10 4 0 15 43 14 59 -1 6 -7 15 -14 19 -14 28 -6 52 -18 52 -27 0 -6 2 -8 5 -5 11 11 -19 58 -36 58 -10 0 -20 4 -23 9 -7 10 -94 37 -146 45 -23 4 -45 0 -65 -12z"/>
 <path d="M4996 3572 c-7 -11 4 -52 14 -52 4 0 10 14 12 30 4 28 -13 43 -26 22z"/>
 <path d="M4910 3556 c-14 -7 -47 -17 -73 -20 -31 -5 -52 -14 -60 -27 -6 -10 -17 -19 -24 -19 -6 0 -14 -4 -17 -8 -2 -4 11 -8 30 -8 22 0 34 5 34 13 0 8 10 18 23 22 17 7 26 4 39 -12 l18 -22 0 26 c0 15 7 30 16 33 20 8 34 -1 34 -20 0 -29 18 -13 22 21 4 38 -3 42 -42 21z"/>
 <path d="M5213 3513 c-7 -2 -13 -14 -13 -26 0 -11 -7 -29 -17 -39 -13 -14 -13 -18 -2 -18 11 0 54 52 67 83 4 8 -16 8 -35 0z"/>
 <path d="M5353 3433 c3 -5 -1 -21 -8 -38 -11 -24 -14 -26 -15 -10 0 14 -7 6 -21 -23 -15 -32 -27 -44 -49 -49 -17 -3 -30 -9 -30 -13 0 -5 -17 -14 -37 -21 -21 -6 -41 -18 -46 -25 -4 -7 -29 -16 -55 -20 -26 -3 -55 -13 -65 -22 -23 -21 -102 -22 -102 -2 0 8 7 13 15 11 46 -11 52 -11 23 3 -21 10 -33 24 -38 45 -3 17 -11 34 -17 37 -7 5 -9 -2 -4 -20 4 -17 2 -34 -5 -42 -9 -11 -8 -14 1 -14 8 0 10 -3 7 -7 -4 -3 -2 -12 4 -19 12 -15 1 -21 -89 -48 -32 -9 -61 -12 -75 -8 -12 5 -35 5 -52 2 -16 -3 -39 -3 -51 1 -11 4 -35 10 -52 12 -38 6 -64 30 -56 51 3 9 2 16 -4 16 -16 0 -19 -21 -8 -47 8 -16 27 -28 60 -38 81 -24 175 -19 336 21 80 19 163 37 185 40 22 3 47 8 55 11 8 4 17 7 20 7 24 6 129 75 119 78 -19 7 -4 21 24 23 15 1 30 15 45 44 25 44 24 71 -3 71 -9 0 -14 -3 -12 -7z"/>
 <path d="M5211 3380 c5 -63 -24 -80 -53 -32 l-17 27 -1 -27 c0 -40 -17 -76 -37 -81 -14 -4 -13 -5 4 -6 13 0 28 8 35 19 8 12 24 20 40 20 19 0 28 5 28 16 0 10 5 14 15 10 13 -5 15 1 9 32 -9 51 -27 68 -23 22z"/>
 <path d="M5801 3389 c0 -8 6 -24 14 -35 13 -17 14 -17 15 -1 0 9 -4 17 -9 17 -5 0 -12 8 -14 18 -4 13 -5 14 -6 1z"/>
 <path d="M5160 3370 c0 -5 7 -10 15 -10 8 0 15 5 15 10 0 6 -7 10 -15 10 -8 0 -15 -4 -15 -10z"/>
 <path d="M5440 3376 c0 -4 7 -23 16 -44 11 -26 16 -74 16 -162 2 -107 -1 -130 -17 -158 -15 -25 -17 -34 -7 -44 18 -18 14 -74 -9 -119 -11 -23 -18 -43 -15 -47 9 -8 55 46 62 73 3 14 10 25 15 25 5 0 9 7 9 15 0 8 5 15 11 15 5 0 7 5 4 10 -3 6 -11 10 -16 10 -6 0 -7 -4 -4 -10 3 -5 1 -10 -4 -10 -6 0 -11 9 -11 19 0 11 -4 22 -9 26 -6 3 -5 18 3 38 7 17 11 60 10 95 -1 35 2 62 8 62 5 0 6 6 1 13 -11 16 -10 110 1 118 5 4 -1 10 -13 14 -11 3 -21 14 -21 24 0 10 -7 24 -15 31 -8 7 -15 10 -15 6z"/>
 <path d="M4383 3249 c4 -147 23 -220 70 -270 79 -83 236 -195 261 -186 6 3 -6 12 -26 21 -21 9 -38 20 -38 25 0 5 -15 16 -32 24 -18 9 -55 37 -81 62 -27 25 -53 45 -57 45 -14 0 -73 128 -76 163 -2 18 -5 76 -7 130 -7 143 -17 132 -14 -14z"/>
 <path d="M5999 3295 c-3 -34 -9 -42 -37 -55 -31 -13 -33 -17 -28 -49 8 -49 25 -61 19 -14 -3 34 -1 40 25 54 31 17 43 52 31 85 -5 14 -8 9 -10 -21z"/>
 <path d="M5028 3288 c-2 -21 0 -38 4 -38 15 0 21 30 11 53 -9 20 -11 19 -15 -15z"/>
 <path d="M4621 3270 c-2 -8 -4 -23 -6 -34 -2 -13 0 -15 7 -8 5 5 8 20 5 33 -2 13 -5 17 -6 9z"/>
 <path d="M4677 3274 c-4 -4 -7 -19 -6 -33 l0 -26 10 24 c10 26 8 47 -4 35z"/>
 <path d="M4820 3248 c0 -15 4 -29 9 -33 16 -9 18 9 5 35 l-14 25 0 -27z"/>
 <path d="M4720 3221 c0 -12 6 -21 16 -21 9 0 14 7 12 17 -5 25 -28 28 -28 4z"/>
 <path d="M3852 3188 c6 -18 28 -21 28 -4 0 9 -7 16 -16 16 -9 0 -14 -5 -12 -12z"/>
 <path d="M3950 3186 c0 -9 6 -16 13 -16 8 0 7 -4 -3 -10 -9 -6 -10 -10 -3 -10 20 0 25 19 9 36 -15 14 -16 14 -16 0z"/>
 <path d="M5223 3154 c-29 -12 -53 -25 -53 -28 0 -3 24 5 53 16 58 24 62 26 56 32 -2 2 -28 -7 -56 -20z"/>
 <path d="M5114 3130 c-25 -10 -41 -30 -25 -30 6 0 11 5 11 10 0 6 9 10 19 10 11 0 23 5 26 10 7 12 -2 12 -31 0z"/>
 <path d="M5956 3095 c3 -22 10 -45 16 -52 5 -7 7 -16 4 -22 -4 -5 2 -24 13 -43 11 -18 25 -62 32 -98 6 -36 15 -74 19 -85 8 -19 22 -96 41 -220 5 -33 9 -107 9 -164 0 -58 2 -102 5 -99 3 3 6 57 6 120 1 113 -19 241 -70 453 -25 102 -83 267 -75 210z"/>
 <path d="M5266 3104 c-17 -12 -17 -14 -4 -14 9 0 20 5 23 11 11 17 2 18 -19 3z"/>
 <path d="M4975 3090 c-4 -6 6 -10 22 -10 22 0 25 2 13 10 -19 12 -27 12 -35 0z"/>
 <path d="M5132 3070 c-41 -10 -79 -23 -85 -29 -17 -18 93 -2 114 15 8 8 27 14 42 14 14 0 29 5 32 10 8 14 -16 11 -103 -10z"/>
 <path d="M5186 3015 c9 -14 20 -23 23 -18 3 4 28 10 55 12 44 3 63 -2 118 -30 50 -25 50 1 1 28 -26 14 -66 23 -126 28 l-89 7 18 -27z"/>
 <path d="M5570 3019 c0 -18 2 -19 15 -9 8 7 15 16 15 21 0 5 -7 9 -15 9 -9 0 -15 -9 -15 -21z"/>
 <path d="M5135 3000 c-34 -16 -36 -18 -10 -13 16 4 35 6 42 6 7 0 13 6 13 14 0 16 3 16 -45 -7z"/>
 <path d="M3676 2994 c-9 -8 -16 -20 -16 -26 0 -6 9 -1 20 12 29 33 25 44 -4 14z"/>
 <path d="M3836 2985 c-9 -9 -16 -21 -16 -26 0 -12 17 -12 25 1 11 18 25 10 25 -15 0 -13 -8 -28 -17 -34 -14 -7 -15 -13 -6 -22 9 -9 15 -4 28 21 31 59 2 116 -39 75z"/>
 <path d="M5360 2965 c-12 -15 -45 -22 -37 -7 3 4 -15 7 -39 7 l-43 1 21 -23 c34 -36 128 -25 128 15 0 19 -17 22 -30 7z"/>
 <path d="M3617 2930 c2 -19 7 -55 12 -80 l8 -45 2 46 c0 25 -3 49 -8 55 -5 5 -11 20 -14 34 -2 14 -3 9 0 -10z"/>
 <path d="M5960 2948 c0 -8 9 -38 20 -68 12 -30 18 -41 15 -25 -4 17 -9 45 -12 63 -5 32 -23 55 -23 30z"/>
 <path d="M3723 2926 c-35 -36 -27 -48 13 -21 20 14 40 22 45 19 5 -3 14 -2 20 2 8 4 7 9 -2 15 -24 15 -53 9 -76 -15z"/>
 <path d="M5127 2924 c-8 -8 1 -24 14 -24 5 0 9 7 9 15 0 15 -12 20 -23 9z"/>
 <path d="M5887 2923 c-10 -9 -9 -23 2 -23 5 0 11 7 15 15 5 15 -5 20 -17 8z"/>
 <path d="M5100 2878 c-19 -5 -47 -9 -62 -9 -14 1 -39 -4 -55 -11 -15 -6 -31 -12 -35 -12 -5 -1 -8 -5 -8 -11 0 -5 26 -11 57 -13 45 -2 68 2 103 20 24 13 46 29 48 36 4 14 1 14 -48 0z"/>
 <path d="M5785 2846 c-53 -39 -69 -45 -130 -51 -154 -16 -239 -93 -290 -260 -13 -44 -12 -51 6 -86 11 -22 20 -39 22 -39 1 0 2 28 2 62 0 60 1 63 25 67 25 3 25 3 -5 16 -29 12 -28 12 28 13 64 1 94 6 211 29 70 15 84 22 135 67 59 53 59 51 -2 -26 -29 -36 -49 -50 -90 -63 -80 -25 -107 -37 -107 -45 0 -5 24 -1 53 7 28 8 64 17 79 20 35 7 79 50 129 127 45 69 50 89 12 55 l-26 -24 24 35 c13 19 27 37 32 38 4 2 7 8 7 13 0 6 -6 7 -12 3 -10 -6 -10 -4 0 8 10 13 10 17 -4 22 -22 9 -31 7 -16 -3 10 -6 9 -11 -4 -22 -12 -9 -15 -10 -10 -1 4 7 2 12 -4 12 -7 0 -10 -7 -7 -15 4 -8 2 -17 -4 -21 -6 -4 -7 -10 0 -17 6 -9 -8 -27 -47 -63 -68 -60 -78 -66 -162 -87 -131 -34 -269 -39 -211 -8 12 7 19 16 16 20 -6 10 77 94 98 99 4 1 20 8 36 16 16 9 53 18 82 21 30 4 61 8 70 9 20 3 107 73 120 98 5 10 8 18 7 18 -2 0 -30 -20 -63 -44z"/>
 <path d="M3833 2840 c-4 -19 -6 -39 -5 -44 2 -4 -2 -14 -8 -21 -9 -11 -4 -17 21 -30 26 -14 33 -14 40 -4 5 8 2 20 -7 30 -7 8 -14 29 -14 45 0 16 -5 36 -10 44 -7 12 -11 7 -17 -20z"/>
 <path d="M4874 2835 c-15 -20 -24 -38 -21 -41 3 -3 11 5 18 17 6 13 21 31 33 41 12 9 16 17 9 18 -7 0 -24 -16 -39 -35z"/>
 <path d="M3665 2768 c10 -127 70 -253 116 -246 11 2 18 8 17 13 -2 6 -7 9 -12 7 -21 -7 -61 52 -89 130 -12 33 13 29 27 -4 8 -18 15 -27 15 -21 1 7 -14 46 -32 85 -19 40 -37 80 -40 88 -4 8 -5 -15 -2 -52z"/>
 <path d="M5797 2802 c-9 -10 -17 -23 -17 -29 0 -6 -6 -14 -12 -16 -7 -3 -8 -6 -2 -6 15 -1 57 45 52 59 -2 7 -10 4 -21 -8z"/>
 <path d="M5922 2764 c-5 -9 -6 -31 -2 -48 4 -17 3 -40 -1 -51 -11 -28 -10 -43 1 -25 6 10 10 11 10 3 0 -7 5 -13 10 -13 6 0 9 6 8 13 -2 6 2 11 8 10 6 -1 11 5 11 13 0 8 -4 14 -9 14 -4 0 -8 9 -8 21 0 13 -4 18 -12 13 -10 -6 -10 -4 0 7 14 15 16 33 3 25 -5 -4 -7 3 -4 14 6 24 -2 26 -15 4z"/>
 <path d="M4878 2726 c-22 -21 -23 -30 -3 -22 8 3 15 1 15 -4 0 -5 9 -14 21 -20 25 -14 59 -21 59 -13 0 10 -35 32 -52 33 -9 0 -18 9 -20 22 -3 21 -4 21 -20 4z"/>
 <path d="M4980 2700 c0 -5 19 -10 43 -10 31 0 38 3 27 10 -20 13 -70 13 -70 0z"/>
 <path d="M4626 2681 c-3 -5 1 -14 8 -20 16 -13 32 2 21 19 -8 12 -22 13 -29 1z"/>
 <path d="M3843 2645 c1 -38 11 -35 21 8 5 20 3 27 -8 27 -9 0 -13 -11 -13 -35z"/>
 <path d="M5981 2653 c0 -5 4 -17 9 -28 8 -18 9 -17 9 8 1 15 -3 27 -9 27 -5 0 -10 -3 -9 -7z"/>
 <path d="M3970 2630 c0 -11 5 -20 10 -20 6 0 10 9 10 20 0 11 -4 20 -10 20 -5 0 -10 -9 -10 -20z"/>
 <path d="M3747 2612 c3 -12 9 -25 14 -28 14 -8 11 10 -6 32 -13 18 -14 18 -8 -4z"/>
 <path d="M4941 2602 c-13 -25 2 -38 19 -16 9 10 10 18 3 25 -8 8 -14 5 -22 -9z"/>
 <path d="M5954 2589 c-9 -16 18 -30 33 -17 7 6 13 15 13 21 0 6 -7 2 -15 -9 -13 -16 -14 -16 -9 -1 7 19 -11 24 -22 6z"/>
 <path d="M5884 2543 c-27 -27 -46 -44 -41 -39 14 18 7 27 -9 12 -8 -9 -25 -16 -37 -17 -21 0 -21 -1 3 -11 l25 -10 -25 -10 c-14 -6 -38 -16 -55 -24 l-30 -14 30 2 c17 1 36 7 44 13 11 7 13 7 8 -1 -4 -7 0 -17 8 -24 8 -7 12 -17 8 -24 -4 -6 1 -5 10 3 9 7 17 21 16 30 0 10 -2 12 -6 3 -2 -6 -9 -10 -14 -6 -5 3 -5 13 2 25 10 20 10 20 28 0 10 -11 21 -18 24 -14 4 3 -1 12 -11 19 -15 11 -15 14 11 38 15 14 27 31 27 39 0 8 10 21 23 30 12 8 19 18 16 22 -4 3 -29 -15 -55 -42z"/>
 <path d="M4040 2540 c0 -11 7 -20 15 -20 13 0 14 4 5 20 -6 11 -13 20 -15 20 -3 0 -5 -9 -5 -20z"/>
 <path d="M4900 2553 c-70 -8 -140 -29 -219 -64 -94 -41 -113 -47 -176 -49 -32 -1 -36 -3 -20 -10 39 -17 191 -7 179 11 -3 5 7 9 21 9 14 0 37 11 50 25 14 13 25 21 25 18 0 -3 7 0 15 7 8 7 15 9 15 5 0 -4 6 -3 13 3 7 6 36 14 65 18 29 4 55 11 58 16 8 12 4 14 -26 11z"/>
 <path d="M3725 2513 c38 -39 95 -65 95 -43 0 5 -11 10 -25 10 -14 0 -43 16 -67 37 l-43 37 40 -41z"/>
 <path d="M5917 2511 l-38 -38 28 0 c15 0 22 2 16 4 -18 6 -16 23 2 23 13 0 41 37 33 45 -2 2 -20 -13 -41 -34z"/>
 <path d="M4451 2521 c-17 -11 71 -19 97 -9 21 8 18 9 -38 14 -25 2 -51 0 -59 -5z"/>
 <path d="M4960 2521 c0 -6 8 -11 18 -11 10 0 22 -3 26 -7 10 -10 36 -12 36 -3 0 12 -9 16 -47 25 -21 4 -33 3 -33 -4z"/>
 <path d="M5533 2523 c9 -2 25 -2 35 0 9 3 1 5 -18 5 -19 0 -27 -2 -17 -5z"/>
 <path d="M3863 2487 c-39 -13 -44 -26 -8 -19 14 2 31 -1 39 -7 17 -14 31 2 22 24 -6 17 -7 17 -53 2z"/>
 <path d="M4967 2422 c-26 -20 -43 -38 -37 -40 5 -2 17 4 26 12 9 9 29 23 45 31 16 9 29 20 29 25 0 17 -13 11 -63 -28z"/>
 <path d="M5894 2439 c-19 -22 -19 -22 4 -10 12 6 22 16 22 21 0 15 -5 12 -26 -11z"/>
 <path d="M3902 2423 c2 -9 10 -19 18 -21 12 -4 13 -3 3 10 -7 8 -10 18 -6 21 3 4 1 7 -6 7 -7 0 -11 -8 -9 -17z"/>
 <path d="M5756 2423 c-4 -5 -20 -8 -34 -8 -16 0 -26 -6 -24 -13 1 -8 -12 -12 -37 -12 -22 0 -43 -4 -46 -10 -3 -5 -1 -10 6 -10 7 0 9 -3 6 -6 -4 -4 -13 -2 -20 5 -8 6 -26 10 -41 9 -25 -2 -26 -4 -9 -15 9 -8 23 -11 30 -9 7 3 13 1 13 -4 0 -5 -8 -11 -17 -13 -10 -3 2 -3 26 -1 50 5 64 11 55 26 -5 7 0 9 14 6 13 -4 20 -2 19 6 -1 6 11 11 28 12 16 1 31 6 33 13 2 6 8 9 13 6 5 -4 6 1 3 9 -7 18 -8 19 -18 9z"/>
 <path d="M4550 2390 c-43 -7 -42 -8 18 -7 34 1 62 5 62 9 0 9 -14 8 -80 -2z"/>
 <path d="M3918 2365 c2 -14 6 -25 8 -25 2 0 4 11 4 25 0 14 -4 25 -9 25 -4 0 -6 -11 -3 -25z"/>
 <path d="M4883 2373 c-7 -2 -9 -11 -6 -19 3 -8 -1 -14 -11 -14 -9 0 -16 4 -16 10 0 5 -19 3 -42 -6 -58 -20 -106 -25 -153 -14 -45 10 -109 0 -86 -14 22 -14 247 -20 255 -7 4 6 15 11 25 11 20 0 55 34 50 48 -2 5 -9 7 -16 5z"/>
 <path d="M4495 2295 c50 -7 104 -18 120 -25 49 -20 191 -18 263 4 34 11 62 22 62 27 0 4 -27 -2 -61 -12 -79 -25 -176 -24 -275 1 -44 11 -106 19 -139 19 -60 -1 -59 -1 30 -14z"/>
 <path d="M6086 2279 c-3 -8 -7 -43 -10 -79 -3 -36 -9 -77 -15 -92 -6 -17 -7 -30 -1 -33 12 -7 -7 -52 -34 -82 -11 -13 -15 -23 -10 -24 8 0 -32 -21 -46 -23 -9 -2 -83 -60 -110 -86 -14 -14 -42 -40 -63 -58 -21 -17 -33 -32 -28 -32 6 0 -4 -15 -21 -32 -18 -18 -36 -33 -41 -33 -14 0 -57 -46 -57 -61 0 -10 -7 -13 -24 -8 -14 3 -27 1 -31 -7 -6 -9 -2 -11 13 -7 12 4 20 2 17 -2 -3 -5 0 -12 6 -16 8 -5 9 -3 4 6 -5 9 -2 10 14 5 16 -5 22 -3 20 7 -3 28 2 38 21 38 11 0 20 4 20 10 0 5 -7 6 -17 3 -11 -4 -14 -3 -9 6 5 7 15 10 23 6 16 -6 83 55 83 75 0 6 4 9 9 6 4 -3 27 17 51 45 36 43 44 48 58 37 10 -8 13 -9 9 -1 -9 15 61 73 88 73 18 -1 17 -2 -5 -15 l-25 -14 26 -1 c15 0 32 7 39 15 9 10 9 15 1 15 -6 0 -11 7 -11 15 0 12 6 14 28 8 15 -4 36 -7 47 -7 11 0 23 -4 27 -10 4 -6 11 -7 15 -2 4 4 0 13 -9 20 -10 7 -16 15 -13 18 3 2 -2 5 -10 5 -8 0 -15 -3 -15 -7 0 -4 -11 -5 -25 -2 -14 2 -22 9 -19 14 3 5 13 7 21 3 13 -4 14 -3 4 9 -9 11 -9 16 1 22 35 22 58 9 58 -33 0 -13 5 -23 10 -23 16 0 12 -28 -6 -38 -15 -8 -15 -10 0 -15 21 -8 38 23 25 46 -6 9 -7 22 -3 29 4 7 3 8 -4 4 -8 -4 -12 0 -12 11 0 27 -20 43 -52 43 -28 0 -37 13 -18 25 6 3 10 13 10 21 0 8 -4 12 -10 9 -5 -3 -10 -2 -10 4 0 5 5 13 10 16 6 4 9 20 6 37 -2 17 -1 55 4 86 9 52 6 82 -4 51z"/>
 <path d="M3970 2222 c0 -4 4 -12 9 -17 8 -9 94 -169 139 -260 32 -63 138 -183 211 -238 85 -64 161 -109 180 -104 12 3 9 7 -10 15 -15 6 -34 21 -42 32 -9 14 -20 19 -28 15 -8 -5 -10 -4 -5 3 6 11 -5 16 -20 10 -3 -2 -12 8 -19 22 -7 14 -17 24 -22 23 -18 -5 -42 9 -48 28 -4 11 -19 25 -33 31 -17 6 -22 12 -14 15 10 4 6 9 -10 17 -12 7 -22 18 -20 25 1 7 -1 10 -5 8 -5 -2 -18 6 -30 19 l-22 23 22 4 c18 4 18 4 -5 6 -21 1 -28 6 -28 21 0 11 -5 20 -11 20 -5 0 -8 4 -5 9 4 5 2 11 -3 13 -18 6 -82 111 -77 125 3 8 1 11 -4 8 -9 -6 -56 73 -52 88 2 7 -34 47 -43 47 -3 0 -5 -4 -5 -8z"/>
 <path d="M4480 2167 c8 -8 26 -18 40 -22 32 -9 25 -2 -20 20 -27 13 -32 14 -20 2z"/>
 <path d="M5040 2170 c-8 -5 -11 -12 -8 -16 4 -3 14 1 23 10 18 17 9 21 -15 6z"/>
 <path d="M4870 2145 c0 -8 8 -16 18 -16 9 -1 29 -3 45 -5 15 -1 27 1 27 7 0 5 -16 9 -36 9 -21 0 -33 4 -29 10 3 6 -1 10 -9 10 -9 0 -16 -7 -16 -15z"/>
 <path d="M4830 2139 c0 -7 -10 -9 -25 -7 -13 3 -22 1 -19 -3 9 -15 54 -10 54 6 0 8 -2 15 -5 15 -3 0 -5 -5 -5 -11z"/>
 <path d="M4985 2125 c-34 -28 -24 -32 29 -10 33 14 53 34 22 22 -8 -3 -16 -2 -18 3 -2 6 -16 -1 -33 -15z"/>
 <path d="M4823 2088 c16 -10 45 -10 51 1 3 5 -10 9 -29 8 -21 -1 -30 -4 -22 -9z"/>
 <path d="M4653 2053 c0 -9 7 -13 18 -10 10 3 19 1 21 -5 2 -5 11 -1 21 10 14 15 14 19 2 19 -8 0 -12 -4 -9 -9 7 -10 1 -10 -29 1 -18 7 -24 6 -24 -6z"/>
 <path d="M5930 1971 c-15 -29 -12 -38 5 -15 15 19 15 19 9 -1 -5 -16 -4 -17 5 -5 6 8 11 21 11 28 0 19 -18 14 -30 -7z"/>
 <path d="M5616 1972 c-8 -13 15 -21 38 -12 13 4 16 9 9 13 -7 4 -15 2 -19 -4 -5 -8 -9 -8 -14 1 -5 8 -10 8 -14 2z"/>
 <path d="M6060 1919 c0 -6 5 -7 10 -4 6 3 10 1 10 -4 0 -6 9 -11 20 -11 32 0 23 25 -10 27 -17 1 -30 -2 -30 -8z"/>
 <path d="M6171 1888 c-11 -18 -11 -20 2 -15 17 7 44 -19 32 -31 -4 -4 -10 -1 -12 6 -3 6 -9 12 -15 12 -7 0 -6 -5 1 -14 20 -23 -14 -27 -43 -5 -17 13 -23 25 -19 37 6 14 4 15 -9 4 -13 -10 -19 -10 -33 4 -16 16 -18 17 -27 1 -5 -9 -18 -17 -28 -17 -11 0 -20 -5 -20 -10 0 -5 -3 -9 -7 -8 -32 8 -78 -46 -66 -78 3 -8 -5 -22 -18 -32 -12 -11 -18 -21 -13 -24 13 -9 51 25 51 45 0 9 -5 17 -11 17 -20 1 64 68 92 73 34 7 84 -2 76 -14 -3 -5 0 -9 6 -9 7 0 10 -7 6 -15 -6 -16 5 -18 51 -9 44 9 57 37 35 73 -18 29 -18 29 -31 9z"/>
 <path d="M6032 1824 c-13 -9 -29 -13 -37 -10 -15 5 -38 -17 -41 -41 -1 -8 3 -12 9 -10 7 3 11 10 9 17 -2 8 3 10 13 7 8 -4 15 -1 15 5 0 6 3 9 6 5 10 -10 64 14 64 29 0 18 -10 18 -38 -2z"/>
 <path d="M5904 1806 c-3 -8 -15 -17 -27 -20 -22 -6 -97 -95 -97 -114 0 -6 -6 -12 -12 -15 -7 -2 -10 -8 -6 -12 11 -12 33 11 53 55 19 42 29 49 41 28 4 -7 4 -10 -1 -6 -5 5 -15 -1 -23 -13 -20 -28 -2 -45 29 -28 15 8 19 14 11 17 -7 2 -20 -2 -30 -9 -14 -11 30 44 49 61 13 12 37 70 28 70 -5 0 -12 -6 -15 -14z"/>
 <path d="M6068 1803 c-21 -5 -23 -19 -5 -26 6 -3 -1 -6 -18 -7 -16 -1 -34 -3 -40 -4 -5 0 -23 -13 -39 -28 -16 -15 -32 -26 -36 -23 -4 2 -17 -6 -29 -19 -15 -15 -19 -26 -12 -31 6 -3 11 -1 11 4 0 6 9 11 21 11 12 0 23 8 26 18 3 14 11 18 29 14 18 -3 24 0 24 13 0 13 6 16 24 11 17 -4 26 -1 30 11 6 15 8 15 16 3 6 -8 10 -13 11 -10 2 8 7 70 5 69 0 -1 -9 -3 -18 -6z"/>
 <path d="M6118 1770 c-15 -17 -15 -18 3 -23 15 -4 19 0 19 19 0 28 0 28 -22 4z"/>
 <path d="M6077 1723 c-14 -4 -16 -8 -6 -19 6 -8 17 -14 25 -14 7 0 15 -12 17 -27 3 -24 4 -23 6 7 1 27 4 31 11 20 9 -13 10 -13 10 1 0 18 -19 39 -34 38 -6 -1 -19 -3 -29 -6z"/>
 <path d="M6004 1698 c-12 -5 -31 -27 -43 -48 -11 -20 -29 -44 -38 -51 -15 -11 -15 -10 1 9 27 31 16 36 -18 7 -27 -23 -40 -29 -57 -27 -4 1 -5 -8 -2 -18 3 -12 0 -20 -6 -20 -7 0 -9 5 -5 13 4 6 -1 5 -12 -4 -10 -9 -28 -21 -39 -28 -17 -9 -13 -10 20 -5 60 10 153 69 169 109 8 18 19 35 24 39 17 10 42 -5 48 -29 4 -15 11 -22 20 -18 10 4 12 0 8 -11 -4 -10 -15 -16 -27 -14 -11 2 -22 -3 -25 -11 -3 -10 2 -13 22 -9 19 4 24 2 17 -5 -6 -6 -7 -16 -1 -27 6 -12 4 -35 -6 -69 -8 -28 -12 -56 -9 -61 3 -6 2 -10 -3 -10 -16 0 -21 13 -12 31 6 10 6 20 1 23 -9 6 -28 -12 -31 -29 -1 -5 -7 -9 -15 -7 -7 1 -20 -7 -28 -19 -9 -12 -20 -18 -26 -15 -5 4 -13 1 -17 -5 -4 -8 -3 -9 4 -5 7 4 12 2 12 -3 0 -6 -8 -11 -19 -11 -10 0 -18 -6 -17 -12 1 -15 -5 -18 -40 -18 -16 0 -23 4 -18 12 5 7 3 8 -7 2 -8 -5 -22 -7 -31 -6 -10 2 -18 -2 -18 -7 0 -11 2 -12 83 -16 43 -3 52 2 49 27 -1 3 5 9 13 12 16 6 29 -9 20 -24 -3 -5 -1 -10 5 -10 6 0 10 8 9 18 -3 33 1 43 19 40 9 -2 16 3 15 10 -2 6 6 12 16 12 11 0 22 -6 25 -12 7 -19 30 20 33 57 2 17 5 59 8 94 3 36 10 68 16 72 14 9 3 29 -17 29 -8 0 -14 5 -14 11 0 7 9 9 21 6 15 -4 19 -3 12 4 -10 10 -32 17 -61 18 -7 1 -10 6 -7 11 7 12 6 12 -21 -2z"/>
 <path d="M6002 1639 c0 -16 4 -27 9 -23 5 3 7 9 4 14 -3 4 -1 10 4 12 5 1 3 8 -3 14 -10 9 -13 6 -14 -17z"/>
 <path d="M5710 1640 c-14 -11 -20 -20 -13 -20 6 0 15 5 18 11 4 6 13 8 21 5 8 -3 11 0 7 10 -6 17 -3 18 -33 -6z"/>
 <path d="M5855 1649 c-12 -19 -87 -69 -96 -63 -5 3 -9 -2 -9 -10 0 -19 17 -30 25 -16 4 6 11 7 17 4 7 -4 8 -2 4 5 -4 6 0 14 11 18 10 3 26 13 35 20 9 8 22 12 29 7 8 -4 10 -3 5 5 -4 6 0 14 9 17 13 6 14 8 3 15 -17 12 -26 11 -33 -2z"/>
 <path d="M5778 1633 c-10 -2 -18 -9 -18 -14 0 -13 13 -11 36 6 19 14 14 17 -18 8z"/>
 <path d="M5520 1616 c0 -7 -11 -21 -25 -30 -17 -12 -25 -13 -25 -4 0 9 -3 9 -12 0 -20 -20 1 -27 30 -10 32 19 60 58 43 58 -6 0 -11 -6 -11 -14z"/>
 <path d="M5576 1595 c-11 -8 -17 -17 -14 -20 2 -3 15 4 28 15 26 23 15 27 -14 5z"/>
 <path d="M5977 1602 c-8 -14 0 -56 11 -60 9 -3 9 3 1 25 -10 28 -10 28 9 8 11 -11 18 -23 16 -26 -2 -3 3 -6 10 -6 7 0 13 6 13 13 0 7 -4 11 -8 8 -4 -2 -10 4 -14 15 -6 20 -31 35 -38 23z"/>
 <path d="M4547 1565 l28 -26 -35 21 c-19 11 -42 20 -50 20 -8 -1 5 -12 30 -24 25 -13 48 -22 53 -19 4 2 33 -12 65 -31 31 -20 81 -44 110 -54 29 -11 59 -27 67 -38 8 -10 15 -14 15 -9 0 6 9 -3 20 -20 20 -29 21 -29 15 -4 l-6 25 66 -4 c86 -6 109 13 29 23 -133 16 -294 76 -381 141 -42 32 -62 31 -26 -1z"/>
 <path d="M5358 1573 c-10 -2 -18 -9 -18 -14 0 -6 10 -5 23 2 37 20 36 23 -5 12z"/>
 <path d="M5620 1570 l-25 -8 28 -1 c15 -1 27 4 27 9 0 6 -1 10 -2 9 -2 -1 -14 -5 -28 -9z"/>
 <path d="M5939 1561 c19 -12 5 -31 -24 -31 -22 0 -93 -56 -83 -65 8 -8 60 22 56 31 -2 5 9 10 24 12 44 5 74 57 34 60 -15 1 -17 -1 -7 -7z"/>
 <path d="M5330 1518 c0 -5 9 -8 21 -8 11 0 17 -4 14 -10 -3 -5 -2 -10 2 -10 5 0 13 8 20 18 10 17 7 18 -23 18 -19 -1 -34 -4 -34 -8z"/>
 <path d="M6010 1522 c-18 -6 -84 -62 -73 -62 4 0 -9 -16 -30 -35 -21 -19 -44 -35 -52 -35 -8 0 -17 -4 -20 -10 -3 -5 1 -10 10 -10 21 0 106 60 100 70 -3 4 4 15 15 25 12 10 20 13 20 7 0 -7 -4 -12 -10 -12 -5 0 -10 -4 -10 -9 0 -5 8 -8 18 -6 11 1 16 10 14 26 -1 18 0 21 7 9 8 -11 12 -9 21 14 12 33 11 35 -10 28z"/>
 <path d="M5780 1502 c0 -5 9 -12 21 -15 13 -3 19 -1 16 6 -5 15 -37 22 -37 9z"/>
 <path d="M6030 1489 c0 -11 5 -17 10 -14 6 3 10 13 10 21 0 8 -4 14 -10 14 -5 0 -10 -9 -10 -21z"/>
 <path d="M5903 1483 c-25 -23 -47 -63 -34 -63 6 0 16 10 22 22 7 12 21 30 33 40 12 9 16 17 10 18 -6 0 -20 -8 -31 -17z"/>
 <path d="M5270 1482 c0 -5 9 -12 21 -15 13 -3 19 -1 16 6 -5 15 -37 22 -37 9z"/>
 <path d="M5726 1461 c9 -10 44 -11 44 -1 0 5 -11 9 -25 8 -13 -1 -22 -4 -19 -7z"/>
 <path d="M5843 1445 c-9 -24 1 -27 15 -5 8 13 8 20 2 20 -6 0 -13 -7 -17 -15z"/>
 <path d="M5696 1415 c19 -15 19 -15 0 -30 -11 -8 -29 -12 -43 -9 -15 4 -23 2 -23 -6 0 -7 7 -10 15 -6 8 3 15 0 15 -5 0 -6 11 -9 24 -7 15 3 27 -2 35 -14 16 -26 14 -34 -10 -35 -16 -2 -19 2 -14 15 5 14 4 14 -6 5 -10 -10 -16 -9 -30 3 -17 15 -45 11 -35 -5 3 -4 -1 -8 -10 -8 -9 0 -12 7 -8 19 3 10 0 18 -5 18 -13 0 -11 -59 2 -67 4 -2 14 0 21 6 7 6 16 8 19 5 3 -4 27 -8 52 -10 42 -2 45 -1 45 21 0 13 8 29 18 34 15 9 15 10 -5 11 -23 0 -32 15 -12 22 13 4 -35 58 -52 58 -7 0 -4 -7 7 -15z"/>
 <path d="M5757 1423 c-3 -5 -2 -15 2 -22 12 -19 82 -4 74 16 -3 8 -9 11 -12 6 -9 -12 -45 -13 -52 -1 -4 6 -9 6 -12 1z"/>
 <path d="M5990 1355 c-13 -14 -19 -25 -14 -25 5 0 -4 -9 -20 -19 -17 -11 -33 -18 -38 -15 -4 3 -8 -2 -8 -10 0 -28 22 -17 76 39 30 30 48 55 41 55 -8 0 -24 -11 -37 -25z"/>
 <path d="M5535 1359 c-10 -15 1 -23 20 -15 9 3 13 10 10 16 -8 13 -22 13 -30 -1z"/>
 <path d="M4894 1325 c9 -13 16 -31 16 -40 0 -8 5 -15 10 -15 6 0 10 4 10 8 0 18 -32 72 -42 72 -6 0 -3 -11 6 -25z"/>
 <path d="M4937 1333 c-10 -10 -8 -33 2 -33 6 0 9 9 8 20 -1 23 -1 22 -10 13z"/>
 <path d="M5485 1320 c13 -21 76 -43 88 -31 8 8 4 11 -11 11 -13 0 -37 7 -54 16 -18 9 -27 11 -23 4z"/>
 <path d="M5400 1319 c0 -16 28 -71 32 -63 3 5 -3 23 -13 39 -11 17 -19 27 -19 24z"/>
 <path d="M5833 1278 c-15 -15 -37 -28 -50 -28 -25 0 -31 -15 -9 -23 8 -3 20 1 26 9 13 14 35 20 27 7 -3 -5 9 -8 26 -8 26 0 32 4 32 22 0 11 3 25 8 29 12 13 8 20 -13 20 -11 0 -32 -13 -47 -28z m25 -7 c-7 -12 -16 -21 -21 -21 -4 0 0 11 10 24 22 29 30 27 11 -3z"/>
 <path d="M4937 1265 c-27 -34 -25 -41 7 -29 8 3 12 12 9 20 -3 8 -1 14 5 14 6 0 12 -4 14 -9 2 -5 9 -3 16 5 10 11 10 14 -2 14 -8 0 -16 4 -18 10 -1 5 -16 -6 -31 -25z"/>
 <path d="M5447 1281 c3 -10 0 -28 -6 -39 -7 -14 -8 -23 -1 -27 5 -3 10 -1 10 5 0 7 7 9 16 6 61 -24 93 -10 34 14 -21 9 -30 19 -30 36 0 14 -6 24 -14 24 -9 0 -12 -7 -9 -19z"/>
 <path d="M5756 1285 c4 -8 10 -12 15 -9 14 8 10 24 -6 24 -9 0 -12 -6 -9 -15z"/>
 <path d="M5170 1246 c0 -8 4 -17 9 -20 10 -7 23 19 14 28 -11 11 -23 6 -23 -8z"/>
 <path d="M5345 1250 c3 -5 16 -10 28 -10 18 0 19 2 7 10 -20 13 -43 13 -35 0z"/>
 <path d="M5546 1241 c15 -16 34 -22 76 -24 31 -2 54 1 52 5 -3 4 2 8 10 8 9 0 16 -8 16 -17 0 -13 2 -15 8 -5 5 7 15 10 24 7 9 -4 15 0 15 9 0 18 -48 26 -127 22 -30 -1 -64 2 -75 7 -20 9 -20 9 1 -12z"/>
 <path d="M4986 1241 c-6 -8 5 -20 33 -36 9 -5 7 1 -4 19 -19 29 -21 30 -29 17z"/>
 <path d="M5199 1215 c-9 -19 -13 -35 -8 -35 5 0 12 -1 16 -2 4 -2 9 14 11 35 2 20 2 37 0 37 -2 -1 -10 -16 -19 -35z"/>
 <path d="M5041 1223 c-1 -12 4 -25 9 -28 12 -7 12 2 0 30 -8 19 -9 19 -9 -2z"/>
 <path d="M5337 1216 c-4 -9 -11 -14 -17 -11 -6 4 -7 -1 -4 -10 6 -15 8 -15 22 -2 8 8 12 21 10 28 -3 9 -6 8 -11 -5z"/>
 <path d="M5376 1222 c-13 -12 -4 -21 29 -32 19 -6 35 -17 35 -25 0 -13 35 -27 45 -17 8 8 -36 52 -52 52 -7 0 -13 4 -13 9 0 10 -36 21 -44 13z"/>
 <path d="M5105 1175 c30 -55 30 -57 4 -73 -12 -8 -18 -9 -14 -3 3 6 1 11 -5 11 -6 0 -8 6 -4 13 4 6 3 8 -1 4 -5 -4 -17 7 -27 25 -9 18 -17 26 -18 18 0 -9 5 -21 12 -28 12 -12 18 -82 7 -82 -9 0 -21 30 -24 61 -1 14 -7 35 -13 45 -9 15 -11 -3 -8 -74 2 -67 7 -96 17 -103 10 -5 16 -3 21 9 5 14 7 13 7 -5 1 -13 6 -23 11 -23 13 0 13 6 -6 42 -9 16 -11 27 -5 24 6 -4 11 -3 11 2 0 6 9 8 21 5 17 -5 20 -11 15 -34 -4 -21 -2 -27 9 -23 10 4 12 17 9 45 -3 22 -2 49 1 60 8 24 35 25 29 2 -2 -10 -5 -35 -8 -56 -4 -36 -3 -37 14 -22 10 9 27 16 37 15 10 -1 20 -1 23 0 3 1 12 3 20 5 8 2 29 8 47 13 17 6 34 8 37 4 3 -3 6 0 6 6 0 7 6 12 14 12 8 0 17 4 20 8 7 11 -35 7 -69 -8 -41 -18 -55 -20 -55 -9 0 5 8 9 18 10 16 0 16 1 -1 7 -16 7 -16 9 -3 27 15 20 15 20 16 0 1 -12 4 -15 7 -7 3 8 9 9 16 4 7 -5 27 -3 47 4 19 7 33 13 30 14 -32 9 -50 8 -50 -2 0 -15 -13 -1 -16 17 -1 8 2 15 7 15 5 0 9 5 9 11 0 7 -12 8 -32 4 -18 -4 -30 -4 -26 0 4 5 0 14 -10 22 -16 12 -16 13 1 7 22 -8 23 12 0 20 -35 14 -33 -19 4 -51 31 -28 34 -33 16 -33 -12 0 -23 7 -27 15 -7 19 -46 20 -46 1 0 -8 7 -21 15 -30 17 -16 19 -53 5 -76 -8 -12 -10 -12 -15 3 -6 13 -11 14 -26 6 -13 -6 -19 -6 -19 1 0 5 5 10 10 10 6 0 10 8 10 18 0 14 -2 15 -10 2 -6 -9 -10 -10 -10 -3 0 19 20 26 35 13 17 -14 19 -7 5 19 -5 10 -23 21 -39 24 -23 5 -29 11 -24 23 5 12 7 13 14 2 5 -7 9 -8 9 -2 0 19 -13 24 -28 11 -13 -10 -15 -9 -9 6 4 10 3 16 -2 13 -5 -3 -11 3 -14 14 -3 11 -10 20 -16 20 -7 0 0 -20 14 -45z m-66 -148 c0 -21 -1 -21 -9 -2 -12 28 -12 37 0 30 6 -3 10 -16 9 -28z"/>
 <path d="M5472 1195 c9 -10 21 -16 28 -13 7 2 -1 10 -16 17 -27 12 -28 11 -12 -4z"/>
 <path d="M5575 1189 c-4 -5 -16 -9 -29 -9 -33 0 -28 -25 6 -26 15 -1 28 2 28 6 0 4 9 10 20 13 11 3 20 9 20 14 0 12 -38 14 -45 2z"/>
 <path d="M5634 1188 c-5 -7 0 -9 13 -6 16 4 19 2 16 -13 -3 -10 -10 -16 -16 -12 -6 3 -7 1 -3 -5 9 -15 -26 -32 -52 -25 -17 4 -22 1 -22 -13 0 -16 2 -17 10 -4 7 12 12 12 22 2 9 -9 9 -12 -1 -12 -7 0 -10 -4 -7 -9 4 -5 0 -12 -6 -14 -8 -3 -8 -6 -2 -6 15 -1 104 102 104 121 0 10 -50 6 -56 -4z"/>
 <path d="M5346 1183 c-3 -3 -6 -15 -6 -26 0 -13 5 -17 15 -13 9 3 19 -3 25 -14 6 -11 18 -20 26 -20 8 0 12 5 9 10 -4 7 3 9 22 5 l28 -5 -30 14 c-16 9 -38 15 -47 16 -10 0 -18 6 -18 14 0 17 -14 28 -24 19z"/>
 <path d="M5077 1173 c-13 -12 -7 -33 8 -33 8 0 15 5 15 10 0 6 -5 10 -11 10 -5 0 -7 5 -4 10 7 11 2 13 -8 3z"/>
 <path d="M4985 1130 c-4 -6 -10 -8 -15 -5 -9 5 -8 -1 5 -55 5 -19 4 -22 -4 -10 -7 9 -11 10 -11 3 0 -7 11 -25 25 -40 19 -22 24 -24 25 -10 0 9 -7 17 -15 17 -8 0 -15 5 -15 11 0 5 4 8 9 5 5 -3 8 5 7 18 0 13 -4 22 -8 19 -10 -6 -10 1 2 31 10 26 7 35 -5 16z"/>
 <path d="M5517 1125 c-19 -13 -7 -32 13 -20 6 3 10 1 10 -5 0 -6 5 -8 11 -4 7 4 7 9 2 13 -6 3 -12 11 -14 18 -3 9 -9 8 -22 -2z"/>
 <path d="M5417 1087 c-22 -7 -35 -15 -31 -19 4 -5 1 -8 -6 -8 -7 0 -11 -3 -8 -6 4 -3 21 2 38 11 23 12 43 15 69 9 55 -11 91 -13 91 -4 0 4 -19 10 -43 13 -24 3 -49 8 -57 11 -8 2 -32 -1 -53 -7z"/>
 </g>

</svg>