<?xml version="1.0" standalone="no"?>
<!DOCTYPE svg PUBLIC "-//W3C//DTD SVG 20010904//EN"
 "http://www.w3.org/TR/2001/REC-SVG-20010904/DTD/svg10.dtd">
<svg version="1.0" xmlns="http://www.w3.org/2000/svg"
 width="128.000000pt" height="128.000000pt" viewBox="0 0 128.000000 128.000000"
 preserveAspectRatio="xMidYMid meet">

<g transform="translate(0.000000,128.000000) scale(0.100000,-0.100000)"
fill="#000000" stroke="none">
<path d="M480 1244 c-79 -20 -187 -76 -246 -126 -295 -250 -312 -680 -38 -953
73 -72 208 -148 254 -143 24 3 25 6 28 73 l3 70 -70 0 c-85 1 -113 18 -154 94
-16 28 -42 61 -58 73 -37 28 -37 38 1 38 39 0 74 -23 101 -66 33 -54 91 -75
154 -58 12 3 29 25 41 50 l21 44 -26 6 c-79 18 -104 27 -147 57 -112 75 -149
288 -70 396 21 28 23 37 14 68 -6 24 -6 50 2 84 11 43 15 49 38 49 15 0 57
-15 93 -33 53 -27 71 -32 95 -25 38 11 210 11 248 0 24 -7 42 -2 95 25 36 18
78 33 93 33 24 0 28 -5 37 -52 7 -34 8 -64 2 -85 -8 -26 -5 -37 14 -64 38 -51
51 -128 36 -212 -15 -91 -50 -150 -109 -188 -43 -27 -66 -35 -145 -53 -27 -6
-27 -7 -10 -33 14 -21 19 -56 23 -158 l5 -130 25 -3 c46 -5 181 71 254 143
118 118 182 256 193 421 20 304 -184 583 -482 659 -75 19 -241 19 -315 -1z"/>
</g>
</svg>
