<svg width="91" height="91" viewBox="0 0 91 91" fill="none" xmlns="http://www.w3.org/2000/svg">
<path d="M34.8269 43.08C37.7709 43.56 40.0269 44.664 41.5949 46.392C43.1629 48.088 43.9469 50.2 43.9469 52.728C43.9469 54.68 43.4349 56.488 42.4109 58.152C41.3869 59.784 39.8189 61.096 37.7069 62.088C35.6269 63.08 33.0669 63.576 30.0269 63.576C27.6589 63.576 25.3229 63.272 23.0189 62.664C20.7469 62.024 18.8109 61.128 17.2109 59.976L20.2349 54.024C21.5149 54.984 22.9869 55.736 24.6509 56.28C26.3469 56.792 28.0749 57.048 29.8349 57.048C31.7869 57.048 33.3229 56.68 34.4429 55.944C35.5629 55.176 36.1229 54.104 36.1229 52.728C36.1229 49.976 34.0269 48.6 29.8349 48.6H26.2829V43.464L33.1949 35.64H18.8909V29.4H42.4109V34.44L34.8269 43.08Z" fill="white"/>
<path d="M72.4068 56.664V63H47.0148V57.96L59.9748 45.72C61.3508 44.408 62.2788 43.288 62.7588 42.36C63.2388 41.4 63.4788 40.456 63.4788 39.528C63.4788 38.184 63.0148 37.16 62.0868 36.456C61.1908 35.72 59.8628 35.352 58.1028 35.352C56.6308 35.352 55.3028 35.64 54.1188 36.216C52.9348 36.76 51.9428 37.592 51.1428 38.712L45.4788 35.064C46.7908 33.112 48.5988 31.592 50.9028 30.504C53.2068 29.384 55.8468 28.824 58.8228 28.824C61.3188 28.824 63.4948 29.24 65.3508 30.072C67.2388 30.872 68.6948 32.024 69.7188 33.528C70.7748 35 71.3028 36.744 71.3028 38.76C71.3028 40.584 70.9188 42.296 70.1508 43.896C69.3828 45.496 67.8948 47.32 65.6868 49.368L57.9588 56.664H72.4068Z" fill="white"/>
</svg>
