<svg id="Слой_1" data-name="Слой 1" xmlns="http://www.w3.org/2000/svg" viewBox="0 0 500 500"><defs><style>.cls-1{fill:#84c795;}</style></defs><title>Лого 500х500 зел без  фона</title><path class="cls-1" d="M225.27,179.7a11.09,11.09,0,0,1-10.46-7.18,10.72,10.72,0,0,1,6.74-13.79c3.92-1.36,7.94-2.55,12-3.55a141.8,141.8,0,0,1,23.59-3.8,10.8,10.8,0,1,1,1.72,21.53A119,119,0,0,0,239,176.09c-3.37.84-6.74,1.84-10,3A11.36,11.36,0,0,1,225.27,179.7Z"/><path class="cls-1" d="M226.19,149.24a11.06,11.06,0,0,1-10.72-8A10.77,10.77,0,0,1,223.36,128a181.93,181.93,0,0,1,32-5.48,191.74,191.74,0,0,1,36,.29,10.87,10.87,0,0,1,9.87,11.87,11,11,0,0,1-12.2,9.6,168.7,168.7,0,0,0-31.72-.26A158.85,158.85,0,0,0,229,148.88,11.4,11.4,0,0,1,226.19,149.24Z"/><path class="cls-1" d="M294.44,174.28a11.46,11.46,0,0,1-1.8-.14l-10.11-1.6a10.83,10.83,0,0,1-9.17-12.39,11.07,11.07,0,0,1,12.74-8.92l10.11,1.6a10.83,10.83,0,0,1,9.17,12.39A11,11,0,0,1,294.44,174.28Z"/><path class="cls-1" d="M393,435.22a11,11,0,0,1-3.33-.52,10.32,10.32,0,0,1-6.82-13.1c.68-2,1.33-4.06,1.94-6.1,1.69-5.67,2.68-10,2.86-10.84,1.65-7.42,2.13-19.2,2-27a10.52,10.52,0,0,1,10.55-10.5h.12A10.53,10.53,0,0,1,411,377.39c.05,4.53,0,20.19-2.52,31.65-.21.94-1.34,5.91-3.22,12.23-.68,2.28-1.4,4.57-2.16,6.8A10.66,10.66,0,0,1,393,435.22Z"/><path class="cls-1" d="M323,435.74a11.37,11.37,0,0,1-3.49-.55,10.73,10.73,0,0,1-7.05-13.64,260.85,260.85,0,0,0,7.18-25.24A273.7,273.7,0,0,0,326.38,343a11.1,11.1,0,0,1,22.19.56A295.1,295.1,0,0,1,341.3,401a282.07,282.07,0,0,1-7.76,27.3A11.08,11.08,0,0,1,323,435.74Z"/><path class="cls-1" d="M205.42,437a11.25,11.25,0,0,1-6.76-2.24,10.6,10.6,0,0,1-2-15.14l5.66-7.15a11.32,11.32,0,0,1,15.58-2,10.59,10.59,0,0,1,2,15.13l-5.68,7.17A11.2,11.2,0,0,1,205.42,437Z"/><path class="cls-1" d="M115.19,432.73a11.14,11.14,0,0,1-9.4-6,10.65,10.65,0,0,1,5-14.46A87.18,87.18,0,0,0,152,370.68a94.52,94.52,0,0,0,7.87-27.11,11,11,0,0,1,12.47-9.25,10.88,10.88,0,0,1,9.53,12.14,115.64,115.64,0,0,1-9.65,33.16,109.14,109.14,0,0,1-51.55,52A11.31,11.31,0,0,1,115.19,432.73Z"/><path class="cls-1" d="M164.85,434.55a11.23,11.23,0,0,1-7.55-2.88,10.59,10.59,0,0,1-.58-15.26,138,138,0,0,0,20.44-27.57c6.21-11,16.61-29.51,16.86-53,0-4.17-.24-7.84-.57-12.08a213.5,213.5,0,0,1-.56-29.82c.42-8.72.64-13.52,1.94-19.46A85.09,85.09,0,0,1,242.42,215a11.24,11.24,0,0,1,14.82,5,10.67,10.67,0,0,1-5.18,14.41,64.84,64.84,0,0,0-17.26,11.73A66.71,66.71,0,0,0,216.55,279c-.92,4.21-1.09,7.9-1.48,16a192.53,192.53,0,0,0,.52,27.2c.35,4.54.69,8.84.63,13.94-.31,28.85-12.84,51.13-19.58,63.1A159.64,159.64,0,0,1,173,431.1,11.22,11.22,0,0,1,164.85,434.55Z"/><path class="cls-1" d="M229.63,210.84a11.11,11.11,0,0,1-10.21-6.55,10.69,10.69,0,0,1,5.84-14.17c22.38-9.31,44.47-12.07,65.65-8.19,2.26.41,4.53.91,6.76,1.47a10.77,10.77,0,0,1,8,13.16,11.13,11.13,0,0,1-13.53,7.73c-1.75-.44-3.52-.83-5.28-1.15C270,200.08,252.25,202.37,234,210A11.33,11.33,0,0,1,229.63,210.84Z"/><path class="cls-1" d="M75.1,420.13a11.08,11.08,0,0,1-10.54-7.42,10.73,10.73,0,0,1,7.07-13.63,86.65,86.65,0,0,0,38.61-24.89,85.14,85.14,0,0,0,18.23-34l.18-.8a113.29,113.29,0,0,0,3-23.56,11,11,0,0,1,11.1-10.69h.11a10.94,10.94,0,0,1,11,10.9,134.19,134.19,0,0,1-3.56,28h0l-.22,1a106.53,106.53,0,0,1-23,43.23,108.92,108.92,0,0,1-48.54,31.36A11.38,11.38,0,0,1,75.1,420.13Z"/><path class="cls-1" d="M338.18,323.66l-.54,0a10.91,10.91,0,0,1-10.27-11.56,103.8,103.8,0,0,0-.1-16.59,109.43,109.43,0,0,0-3.48-19.16l-.12-.42c-2-7.41-3.5-12.77-7.22-19.16-2.68-4.61-8.27-14.21-19.34-19.83a43.29,43.29,0,0,0-6.11-2.45l-.12,0A52.85,52.85,0,0,0,277,231.88a10.8,10.8,0,1,1,1.09-21.56A75.61,75.61,0,0,1,297.93,214a66.08,66.08,0,0,1,9.43,3.82c16.89,8.58,25.25,22.94,28.4,28.34,5.12,8.8,7.18,16.3,9.36,24.24l.12.42a130.88,130.88,0,0,1,4.16,22.91,124.94,124.94,0,0,1,.12,20A11,11,0,0,1,338.18,323.66Z"/><path class="cls-1" d="M250.65,437a10.94,10.94,0,0,1-4-.74,11.3,11.3,0,0,1-6.41-14.53,271,271,0,0,0,16.08-65.21c1.58-14.21,2.07-30,2.26-36,.36-11.77.36-23.67,0-35.37a11.19,11.19,0,0,1,10.75-11.6h.35a11.17,11.17,0,0,1,11.09,10.9c.38,12.16.38,24.54,0,36.78-.19,6.21-.7,22.69-2.39,37.81A293.68,293.68,0,0,1,261,429.76,11.11,11.11,0,0,1,250.65,437Z"/><path class="cls-1" d="M290.25,435.07a11.53,11.53,0,0,1-3.39-.51,10.58,10.58,0,0,1-7.18-13.41,256.85,256.85,0,0,0,11.42-50c1.36-11.16,1.9-22.16,2.13-26.86.65-13.26.52-22.89.43-29.92-.18-13.24-.72-19-1.23-22.93-1-7.4-1.39-10.51-2.34-13.15-2.87-8-9.69-14.51-17-16.11a19.64,19.64,0,0,0-17.83,6.17c-6.68,7-8.25,16.95-8.85,20.68-.46,2.9-.44,4.34-.27,10,.06,1.89.12,4.16.18,7,.14,7.15.27,21.35-.45,36.08-.77,15.64-1.27,26-4.71,39.08a129.59,129.59,0,0,1-6.68,19.23A11.27,11.27,0,0,1,220,406a10.51,10.51,0,0,1-5.91-14,108.75,108.75,0,0,0,5.6-16.14c2.77-10.58,3.27-18.79,4.06-34.89.72-14.65.54-29.12.43-34.67-.06-2.76-.12-5-.17-6.8-.17-5.9-.26-8.86.52-13.77s3.18-20,14.39-31.84a42.67,42.67,0,0,1,39.17-12.59c14.71,3.23,27.67,15,33,30,1.72,4.83,2.31,9.3,3.36,17.41.59,4.49,1.21,11,1.4,25.31.09,6.89.23,17.3-.45,31.19-.24,4.92-.8,16.44-2.26,28.35a277.43,277.43,0,0,1-12.33,54.07A11.07,11.07,0,0,1,290.25,435.07Z"/><path class="cls-1" d="M359.11,435.25a11.43,11.43,0,0,1-2.77-.34,10.77,10.77,0,0,1-8-13.15c4.36-16.47,7.08-30.85,8.08-42.73.21-2.47.39-5.31.4-5.34.66-10,.84-20,.55-29.63a11.1,11.1,0,0,1,22.19-.64c.32,10.31.12,21-.58,31.64,0,0-.2,3.07-.43,5.73-1.1,13.1-4,28.69-8.71,46.35A11.05,11.05,0,0,1,359.11,435.25Z"/><path class="cls-1" d="M171,322.2a11,11,0,0,1-11-9.6,122.73,122.73,0,0,1-.57-21.5c1.63-26.48,12.16-52.62,30.45-75.62a11.31,11.31,0,0,1,15.57-1.93,10.6,10.6,0,0,1,2,15.14c-10.84,13.63-24.12,35.75-25.85,63.7A101.67,101.67,0,0,0,182,310.2a10.87,10.87,0,0,1-9.8,11.93A11.54,11.54,0,0,1,171,322.2Z"/><path class="cls-1" d="M424,437a10.87,10.87,0,0,1-4.81-1.12,10.25,10.25,0,0,1-4.71-13.95,9.15,9.15,0,0,0,1-3.06,8.53,8.53,0,0,0-.31-3.57,10.34,10.34,0,0,1,7.24-12.88,10.72,10.72,0,0,1,13.24,7,28.62,28.62,0,0,1,1,12,29.47,29.47,0,0,1-3.11,9.85A10.71,10.71,0,0,1,424,437Z"/><path class="cls-1" d="M221,119.26a11,11,0,0,1-10.94-9,10.83,10.83,0,0,1,9.15-12.4,339.26,339.26,0,0,1,77.15-3.44,10.9,10.9,0,0,1,10.28,11.54,11,11,0,0,1-11.86,10,316.52,316.52,0,0,0-72,3.21A11.46,11.46,0,0,1,221,119.26Z"/><path class="cls-1" d="M212.6,91a11.05,11.05,0,0,1-10.74-8.11,10.77,10.77,0,0,1,8-13.14,209.11,209.11,0,0,1,21.29-4.16,220.54,220.54,0,0,1,34.7-2A281.12,281.12,0,0,1,307.08,67a10.83,10.83,0,0,1,9.18,12.38,11.07,11.07,0,0,1-12.73,8.93,258.31,258.31,0,0,0-37.89-3.16,197.2,197.2,0,0,0-31.3,1.8,186.17,186.17,0,0,0-19,3.7A11.42,11.42,0,0,1,212.6,91Z"/></svg>