<svg width="403" height="151" viewBox="0 0 403 151" fill="none" xmlns="http://www.w3.org/2000/svg">
<g filter="url(#filter0_d)">
<path d="M80.0898 97.0215C80.0898 92.8711 78.625 89.6973 75.6953 87.5C72.7656 85.2539 67.4922 82.9102 59.875 80.4688C52.2578 77.9785 46.2275 75.5371 41.7842 73.1445C29.6748 66.6016 23.6201 57.7881 23.6201 46.7041C23.6201 40.9424 25.2314 35.8154 28.4541 31.3232C31.7256 26.7822 36.3887 23.2422 42.4434 20.7031C48.5469 18.1641 55.3828 16.8945 62.9512 16.8945C70.5684 16.8945 77.3555 18.2861 83.3125 21.0693C89.2695 23.8037 93.8838 27.6855 97.1553 32.7148C100.476 37.7441 102.136 43.457 102.136 49.8535H80.1631C80.1631 44.9707 78.625 41.1865 75.5488 38.501C72.4727 35.7666 68.1514 34.3994 62.585 34.3994C57.2139 34.3994 53.0391 35.5469 50.0605 37.8418C47.082 40.0879 45.5928 43.0664 45.5928 46.7773C45.5928 50.2441 47.3262 53.1494 50.793 55.4932C54.3086 57.8369 59.46 60.0342 66.2471 62.085C78.7471 65.8447 87.8535 70.5078 93.5664 76.0742C99.2793 81.6406 102.136 88.5742 102.136 96.875C102.136 106.104 98.6445 113.354 91.6621 118.628C84.6797 123.853 75.2803 126.465 63.4639 126.465C55.2607 126.465 47.79 124.976 41.0518 121.997C34.3135 118.97 29.1621 114.844 25.5977 109.619C22.082 104.395 20.3242 98.3398 20.3242 91.4551H42.3701C42.3701 103.223 49.4014 109.106 63.4639 109.106C68.6885 109.106 72.7656 108.057 75.6953 105.957C78.625 103.809 80.0898 100.83 80.0898 97.0215Z" fill="#EFEFEF"/>
<path d="M117.077 125V18.3594H149.89C159.265 18.3594 167.639 20.4834 175.012 24.7314C182.434 28.9307 188.22 34.9365 192.37 42.749C196.521 50.5127 198.596 59.3506 198.596 69.2627V74.1699C198.596 84.082 196.545 92.8955 192.443 100.61C188.391 108.325 182.653 114.307 175.231 118.555C167.81 122.803 159.436 124.951 150.109 125H117.077ZM139.05 36.1572V107.349H149.67C158.264 107.349 164.831 104.541 169.372 98.9258C173.913 93.3105 176.232 85.2783 176.33 74.8291V69.1895C176.33 58.3496 174.084 50.1465 169.592 44.5801C165.1 38.9648 158.532 36.1572 149.89 36.1572H139.05Z" fill="#EFEFEF"/>
<path d="M273.229 103.027H234.704L227.38 125H204.016L243.713 18.3594H264.074L303.991 125H280.627L273.229 103.027ZM240.637 85.2295H267.297L253.894 45.3125L240.637 85.2295Z" fill="#EFEFEF"/>
<path d="M335.925 107.349H382.58V125H313.952V18.3594H335.925V107.349Z" fill="#EFEFEF"/>
</g>
<defs>
<filter id="filter0_d" x="0.324219" y="0.894531" width="402.256" height="149.57" filterUnits="userSpaceOnUse" color-interpolation-filters="sRGB">
<feFlood flood-opacity="0" result="BackgroundImageFix"/>
<feColorMatrix in="SourceAlpha" type="matrix" values="0 0 0 0 0 0 0 0 0 0 0 0 0 0 0 0 0 0 127 0"/>
<feOffset dy="4"/>
<feGaussianBlur stdDeviation="10"/>
<feColorMatrix type="matrix" values="0 0 0 0 0 0 0 0 0 1 0 0 0 0 0.819608 0 0 0 1 0"/>
<feBlend mode="normal" in2="BackgroundImageFix" result="effect1_dropShadow"/>
<feBlend mode="normal" in="SourceGraphic" in2="effect1_dropShadow" result="shape"/>
</filter>
</defs>
</svg>
