<svg xmlns="http://www.w3.org/2000/svg" xmlns:xlink="http://www.w3.org/1999/xlink" version="1.1" id="Слой_1" x="0px" y="0px" viewBox="0 0 1000 1000" style="enable-background:new 0 0 1000 1000;" xml:space="preserve">
<style type="text/css">
	.st0{fill:#00FFE0;}
	.st1{fill:#C000FF;}
</style>
<g>
	<path class="st0" d="M933.3,343.3c-98-41-241.8-56.6-299.1-61.4l-25.6-2.1c-22.5-18.3-51-29.3-81.8-29.3c-30.9,0-59.4,11-82,29.4   l-26.4,2.3c-56.8,4.8-199.3,20.5-296.3,61.1l-19.1,8l0.9,20.7c2,47.3,19,210.7,153.9,327.7C358.2,786.9,469.6,801.8,527.1,803   l0.6,0l0.6,0c57.5-1.2,168.9-16.1,269.3-103.3c134.8-117,151.9-280.4,153.9-327.7l0.9-20.7L933.3,343.3z M489.8,320.6   c10.9-6.7,23.5-10.7,36.9-10.7c40.3,0,73.1,34.7,73.1,77.3s-32.8,77.3-73.1,77.3c-3.7,0-7.4-0.4-11-1c-5.9,1.6-12.1,2.5-18.5,2.5   c-40.2,0-72.9-32.6-72.9-72.9C424.4,355.4,453.1,324.3,489.8,320.6z M758.7,654.9c-86,74.6-181.4,87.7-231,88.8   c-49.6-1.1-145-14.1-231-88.8C195,566.7,170.5,447.3,164.7,390.5c52.4-18.7,126.5-34.3,208.2-44c-3.6,13.9-5.5,28.2-5.5,42.9   c0,90.5,71.3,164.1,158.9,164.1s158.9-73.6,158.9-164.1c0-14.7-1.9-29.2-5.6-43.2c82.8,9.7,157.9,25.4,210.9,44.3   C884.8,447.3,860.4,566.7,758.7,654.9z"/>
	<path class="st1" d="M870,342.4c-97-40.6-239.5-56-296.2-60.8l-25.3-2.1c-22.4-18.1-50.5-29-81.1-29c-30.7,0-58.9,10.9-81.2,29.1   l-26.1,2.2c-56.2,4.8-197.3,20.3-293.4,60.5l-19.1,8l0.9,20.7c2,46.9,18.9,208.8,152.4,324.6c99.5,86.4,209.9,101.2,266.8,102.3   l0.6,0l0.6,0c56.9-1.2,167.3-16,266.8-102.3c133.6-115.9,150.4-277.8,152.4-324.6l0.9-20.7L870,342.4z M467.4,309.9   c13.4,0,25.9,3.9,36.6,10.7c37,3.4,66.1,34.6,66.1,72.5c0,40.2-32.6,72.9-72.9,72.9c-8.3,0-16.2-1.4-23.6-4   c-2.1,0.2-4.1,0.3-6.2,0.3c-39.8,0-72.1-34.2-72.1-76.2S427.7,309.9,467.4,309.9z M696.9,650.9c-85.1,73.8-179.4,86.7-228.5,87.8   c-49.1-1.1-143.5-14-228.5-87.8c-100.4-87.1-124.7-205-130.5-261.3c51.8-18.4,124.9-33.8,205.4-43.4c-3.5,13.6-5.3,27.7-5.3,42.1   C309.4,478,380.1,551,467,551s157.6-73,157.6-162.7c0-14.5-1.8-28.7-5.4-42.4c81.6,9.6,155.7,25.1,208.1,43.7   C821.5,445.9,797.3,563.8,696.9,650.9z"/>
	<g>
		<path d="M498,793.9l-0.6,0c-57.3-1.1-168.5-15.5-268.9-99.2C93.3,581.9,76.2,424.1,74.2,378.4l-0.9-21l19.5-7.8    c96.9-39,239.3-54.1,296-58.7l63.4-5.2l-36.8,51.9c-12,16.9-18.3,36.7-18.3,57.4c0,54.9,44.7,99.6,99.6,99.6s99.6-44.7,99.6-99.6    c0-20.8-6.4-40.7-18.4-57.6L541,285.6l63.5,5.1c57.3,4.6,201,19.5,298.8,58.9l19.5,7.8l-0.9,21c-2,45.7-19.1,203.4-154.3,316.2    c-100.4,83.7-211.6,98.1-268.9,99.2L498,793.9z M135.2,397.2c6,54.8,30.8,168,131.4,251.9c86.1,71.8,181.8,84.4,231.5,85.4    c49.7-1,145.4-13.6,231.5-85.4C830.1,565.2,854.8,452,860.9,397.2c-53-18.1-127.9-33.2-210.4-42.4c3.4,13.1,5.2,26.6,5.2,40.3    c0,87.6-71.3,158.9-158.9,158.9s-158.9-71.3-158.9-158.9c0-13.7,1.7-27.1,5.1-40C261.5,364.3,187.6,379.3,135.2,397.2z"/>
		<path d="M497.1,527.9c-74.4,0-135-60.5-135-135s60.5-135,135-135s135,60.5,135,135S571.5,527.9,497.1,527.9z M497.1,322.3    c-39,0-70.7,31.7-70.7,70.7s31.7,70.7,70.7,70.7s70.7-31.7,70.7-70.7S536.1,322.3,497.1,322.3z"/>
	</g>
</g>
</svg>