<?xml version="1.0" encoding="utf-8"?>
<!-- Generator: Adobe Illustrator 19.0.1, SVG Export Plug-In . SVG Version: 6.00 Build 0)  -->
<svg version="1.1" id="Слой_1" xmlns="http://www.w3.org/2000/svg" xmlns:xlink="http://www.w3.org/1999/xlink" x="0px" y="0px"
	 viewBox="0 0 1032.1 348"  xml:space="preserve">
<style type="text/css">
	.left-hand{fill:#16D1FF;}
	.right-hand{fill:#CC1CFF;}
	.st2{fill:#FFFFFF;stroke:#000000;stroke-width:3;stroke-miterlimit:10;}
	.st3{fill:#DE00CF;}
	.st4{fill:none;stroke:url(#SVGID_1_);stroke-width:27;stroke-miterlimit:10;}
	.st5{fill:#00E6FF;}

@keyframes touch-left-hand {
    0%, 10%, 22%, 45%, 100% {
        transform: none;
    }
	60% {
        transform: translate(4px, -3px);

	}
    17% {
        transform: translate(15px, -8px);
    }
}

@keyframes touch-right-hand {
     0%, 18%, 23%, 45%, 100% {
        transform: none;
    }
	60% {
        transform: translate(-2px, 5px);

	}
    17% {
        transform: translate(-15px, 15px);
    }
}

@keyframes ripple {
     0%, 16%, 31%, 100% {
	 transform: scale(0.01);
	 opacity: 0;
	 }

    17% {
		opacity: 1;
    }
	30% {
        transform: none;
		opacity: 0;
	}
   
}

.ripple {
    animation: ripple 10s cubic-bezier(0.165, 0.84, 0.44, 1) infinite;
	    transform: scale(1.5);
    transform-origin: 320px 173px;
}

.left-hand {
    animation: touch-left-hand 10s cubic-bezier(0.165, 0.84, 0.44, 1) infinite;
}

.right-hand {
    animation: touch-right-hand 10s cubic-bezier(0.215, 0.610, 0.355, 1) infinite;
}



</style>
<circle class="st4 ripple" cx="320.1" cy="173.3" r="139"/>
<path class="left-hand" d="M221.5,229.5c10.4-12.3,19.6-21.4,26-27.3c12.1-11.4,28.7-25.3,28.7-25.3l0,0l23.9-13c0,0,9.6-4.8,10.3,0
	c0.7,4.8,0.7,11.6-4.1,13.7c-4.8,2.1-19.1,8.8-28.7,19.8c-9.6,11,4.8,24.7,4.8,24.7s2.1-0.7-6.2,17.8s-30.8,34.2-30.8,34.2
	L225.6,291l-20.5-21.9l-9.6-23.9C204.2,239.9,212.8,234.7,221.5,229.5z"/>
<path class="right-hand" d="M423.9,100.9c-11.6,5.1-21.2,7.7-28,9.2c-8.8,2-20.9,3.8-35.4,11.6c-0.1,0-0.1,0.1-0.1,0.1l-16.7,14
	c-3.2,2.3-4.6,5.1-3.8,6.8c0.7,1.5,2.9,1.8,3.2,1.8c5.6,0.8,8.6-6.2,17.1-11.9c3.6-2.4,12.5-8.4,18.9-5.6c5.4,2.4,3.9,8.7,11.9,14.3
	c1.8,1.2,5.1,3.5,9.4,3.6c4.5,0.1,6.1-2.1,12.4-5.2c12-5.9,18.6-3.9,28.8-12.1c0,0,0,0,0,0l18.6-9.7L450,96.3l-15-14.2
	C431.3,88.4,427.6,94.7,423.9,100.9z"/>
<g>	
	<g>
		<path class="st3" d="M611.6,136.8c0.9,0.9,1.3,2.1,1.3,3.7v80.9c0,1.4-0.4,2.6-1.3,3.6c-0.9,0.9-2.1,1.4-3.7,1.4
			c-1.4,0-2.6-0.5-3.6-1.4c-0.9-0.9-1.4-2.1-1.4-3.6v-8.6c-3.8,4.7-8.4,8.3-13.8,10.9c-5.4,2.6-11.4,3.9-17.8,3.9
			c-8.1,0-15.3-1.7-21.7-5c-6.4-3.3-11.4-8.2-15-14.5c-3.6-6.4-5.4-14-5.4-22.9v-44.7c0-1.4,0.5-2.6,1.4-3.6
			c0.9-0.9,2.1-1.4,3.6-1.4c1.4,0,2.6,0.5,3.6,1.4c0.9,0.9,1.4,2.1,1.4,3.6v44.7c0,10.5,3,18.6,8.9,24.1c5.9,5.5,13.7,8.3,23.2,8.3
			c5.9,0,11.2-1.1,16-3.4c4.8-2.3,8.6-5.4,11.4-9.5c2.8-4,4.2-8.5,4.2-13.4v-50.9c0-1.6,0.5-2.8,1.4-3.7c0.9-0.9,2.1-1.3,3.6-1.3
			C609.5,135.4,610.7,135.9,611.6,136.8z"/>
		<path class="st3" d="M743,221.3c-6.9-4-12.3-9.6-16.2-16.7c-3.9-7.1-5.9-15-5.9-23.6c0-8.8,1.8-16.6,5.5-23.7
			c3.7-7,8.8-12.6,15.3-16.6c6.5-4,13.8-6.1,21.9-6.1c7.1,0,13.6,1.4,19.4,4.2c5.9,2.8,11,6.9,15.3,12.3c0.8,1.1,1.2,2.1,1.2,2.8
			c0,1.6-0.8,2.8-2.3,3.7c-0.8,0.7-1.7,1-2.7,1c-1.6,0-2.8-0.7-3.8-2c-7.1-8.4-16.1-12.6-27.1-12.6c-6.4,0-12.1,1.6-17.1,4.7
			c-5,3.2-8.8,7.6-11.6,13.2c-2.7,5.7-4.1,12-4.1,19.1c0,7,1.5,13.3,4.5,18.9s7.1,10.1,12.5,13.3c5.3,3.2,11.4,4.8,18.3,4.8
			c9.7,0,17.6-2.7,23.4-8.1c1-1,2.2-1.5,3.5-1.5c1.2,0,2.2,0.4,3,1.2c1.1,1,1.7,2.2,1.7,3.7c0,1.2-0.4,2.2-1.3,3
			c-3.9,3.5-8.4,6.3-13.6,8.2c-5.2,1.9-10.7,2.9-16.6,2.9C757.6,227.3,749.9,225.3,743,221.3z"/>
		<path class="st3" d="M970.8,139.3c6.4,3.3,11.4,8.2,15,14.5c3.6,6.4,5.4,14,5.4,22.9v44.7c0,1.4-0.5,2.6-1.4,3.6
			c-0.9,0.9-2.1,1.4-3.6,1.4c-1.4,0-2.6-0.5-3.6-1.4c-0.9-0.9-1.4-2.1-1.4-3.6v-44.7c0-10.5-3-18.6-8.9-24.1
			c-5.9-5.5-13.7-8.3-23.2-8.3c-5.9,0-11.2,1.1-16,3.4c-4.8,2.3-8.6,5.4-11.4,9.5c-2.8,4-4.2,8.5-4.2,13.4v50.9
			c0,1.4-0.4,2.6-1.3,3.6c-0.9,0.9-2.1,1.4-3.7,1.4c-1.4,0-2.6-0.5-3.6-1.4c-0.9-0.9-1.4-2.1-1.4-3.6V101.5c0-1.6,0.5-2.8,1.4-3.7
			c0.9-0.9,2.1-1.3,3.6-1.3c1.5,0,2.8,0.4,3.7,1.3c0.9,0.9,1.3,2.1,1.3,3.7v47.5c3.8-4.7,8.4-8.3,13.8-10.9
			c5.4-2.6,11.4-3.9,17.8-3.9C957.2,134.3,964.4,135.9,970.8,139.3z"/>
	</g>
</g>
<linearGradient id="SVGID_1_" gradientUnits="userSpaceOnUse" x1="187.2954" y1="249.9776" x2="452.9976" y2="96.5744">
	<stop  offset="2.955665e-002" style="stop-color:#00E6FF"/>
	<stop  offset="1" style="stop-color:#E800FF"/>
</linearGradient>
<circle class="st4" cx="320.1" cy="173.3" r="139.9"/>
<g>
	<path class="st5" d="M102.9,217.6c0.9,0.9,1.4,2.2,1.4,3.7c0,1.4-0.5,2.6-1.4,3.6c-0.9,0.9-2.2,1.4-3.7,1.4h-3.8
		c-6.1,0-11.5-1.4-16.3-4.2c-4.8-2.8-8.5-6.6-11.1-11.4c-2.7-4.8-4-10.3-4-16.4v-46.7h-13c-1.3,0-2.4-0.4-3.2-1.2
		c-0.8-0.8-1.2-1.9-1.2-3.2s0.4-2.4,1.2-3.2s1.9-1.2,3.2-1.2h13v-27.1c0-1.6,0.5-2.8,1.4-3.7c0.9-0.9,2.1-1.4,3.6-1.4
		c1.6,0,2.8,0.5,3.7,1.4c0.9,0.9,1.4,2.2,1.4,3.7v27.1H96c1.3,0,2.4,0.4,3.2,1.2s1.2,1.9,1.2,3.2s-0.4,2.4-1.2,3.2
		c-0.8,0.8-1.9,1.2-3.2,1.2H74v46.7c0,6.4,2,11.7,6,15.7c4,4,9.1,6.1,15.5,6.1h3.7C100.7,216.2,101.9,216.7,102.9,217.6z"/>
</g>
</svg>
