<svg width="572" height="572" viewBox="0 0 572 572" fill="none" xmlns="http://www.w3.org/2000/svg">
<path d="M78.456 468H285.5H492.545C496.658 467.808 506.805 464.202 514.484 451.311C522.162 438.42 514.94 422.152 514.483 418.507L307.439 48.4642C306.068 43.8602 304.56 33.5013 309.496 28.8973C314.432 24.2934 321.608 23.9097 324.579 24.2934V5.87747C324.579 5.30198 324.442 4.03589 323.893 3.57549C323.345 3.1151 322.293 3 321.836 3H285.5H249.165C248.708 3 247.656 3.1151 247.108 3.57549C246.56 4.03589 246.422 5.30198 246.422 5.87747V24.2934C249.393 23.9097 256.569 24.2934 261.505 28.8973C266.441 33.5013 264.933 43.8602 263.562 48.4642L56.514 418.507C56.0569 422.152 48.839 438.42 56.5175 451.311C64.1959 464.202 74.3425 467.808 78.456 468Z" fill="url(#paint0_linear)"/>
<defs>
<linearGradient id="paint0_linear" x1="285.5" y1="3" x2="285.5" y2="468" gradientUnits="userSpaceOnUse">
<stop stop-color="#CF05BB"/>
<stop offset="1" stop-color="#54299F"/>
</linearGradient>
</defs>
</svg>
